<?xml version="1.0" encoding="UTF-8" standalone="no"?>
<!DOCTYPE svg PUBLIC "-//W3C//DTD SVG 1.1//EN"
 "http://www.w3.org/Graphics/SVG/1.1/DTD/svg11.dtd">
<!-- Generated by graphviz version 6.0.2 (20221011.1828)
 -->
<!-- Title: Tree Pages: 1 -->
<svg width="641pt" height="314pt"
 viewBox="0.00 0.00 641.00 314.00" xmlns="http://www.w3.org/2000/svg" xmlns:xlink="http://www.w3.org/1999/xlink">
<g id="graph0" class="graph" transform="scale(1 1) rotate(0) translate(4 310)">
<title>Tree</title>
<polygon fill="white" stroke="none" points="-4,4 -4,-310 637,-310 637,4 -4,4"/>
<!-- 0 -->
<g id="node1" class="node">
<title>0</title>
<path fill="#f0b78e" stroke="black" d="M376,-306C376,-306 257,-306 257,-306 251,-306 245,-300 245,-294 245,-294 245,-235 245,-235 245,-229 251,-223 257,-223 257,-223 376,-223 376,-223 382,-223 388,-229 388,-235 388,-235 388,-294 388,-294 388,-300 382,-306 376,-306"/>
<text text-anchor="start" x="269" y="-290.8" font-family="Helvetica,sans-Serif" font-size="14.00">WindGas ≤ 0.8</text>
<text text-anchor="start" x="283" y="-275.8" font-family="Helvetica,sans-Serif" font-size="14.00">gini = 0.42</text>
<text text-anchor="start" x="269" y="-260.8" font-family="Helvetica,sans-Serif" font-size="14.00">samples = 394</text>
<text text-anchor="start" x="259.5" y="-245.8" font-family="Helvetica,sans-Serif" font-size="14.00">value = [276, 118]</text>
<text text-anchor="start" x="253" y="-230.8" font-family="Helvetica,sans-Serif" font-size="14.00">class = Low Renew.</text>
</g>
<!-- 1 -->
<g id="node2" class="node">
<title>1</title>
<path fill="#64b2eb" stroke="black" d="M295.5,-187C295.5,-187 173.5,-187 173.5,-187 167.5,-187 161.5,-181 161.5,-175 161.5,-175 161.5,-116 161.5,-116 161.5,-110 167.5,-104 173.5,-104 173.5,-104 295.5,-104 295.5,-104 301.5,-104 307.5,-110 307.5,-116 307.5,-116 307.5,-175 307.5,-175 307.5,-181 301.5,-187 295.5,-187"/>
<text text-anchor="start" x="198" y="-171.8" font-family="Helvetica,sans-Serif" font-size="14.00">Bio ≤ 0.696</text>
<text text-anchor="start" x="197" y="-156.8" font-family="Helvetica,sans-Serif" font-size="14.00">gini = 0.293</text>
<text text-anchor="start" x="187" y="-141.8" font-family="Helvetica,sans-Serif" font-size="14.00">samples = 112</text>
<text text-anchor="start" x="186" y="-126.8" font-family="Helvetica,sans-Serif" font-size="14.00">value = [20, 92]</text>
<text text-anchor="start" x="169.5" y="-111.8" font-family="Helvetica,sans-Serif" font-size="14.00">class = High Renew.</text>
</g>
<!-- 0&#45;&gt;1 -->
<g id="edge1" class="edge">
<title>0&#45;&gt;1</title>
<path fill="none" stroke="black" d="M288.05,-222.91C281.82,-214.01 275.16,-204.51 268.72,-195.33"/>
<polygon fill="black" stroke="black" points="271.5,-193.2 262.9,-187.02 265.77,-197.22 271.5,-193.2"/>
<text text-anchor="middle" x="258.57" y="-207.94" font-family="Helvetica,sans-Serif" font-size="14.00">True</text>
</g>
<!-- 4 -->
<g id="node5" class="node">
<title>4</title>
<path fill="#e88e4d" stroke="black" d="M458,-187C458,-187 339,-187 339,-187 333,-187 327,-181 327,-175 327,-175 327,-116 327,-116 327,-110 333,-104 339,-104 339,-104 458,-104 458,-104 464,-104 470,-110 470,-116 470,-116 470,-175 470,-175 470,-181 464,-187 458,-187"/>
<text text-anchor="start" x="349.5" y="-171.8" font-family="Helvetica,sans-Serif" font-size="14.00">WindBio ≤ 0.48</text>
<text text-anchor="start" x="361" y="-156.8" font-family="Helvetica,sans-Serif" font-size="14.00">gini = 0.167</text>
<text text-anchor="start" x="351" y="-141.8" font-family="Helvetica,sans-Serif" font-size="14.00">samples = 282</text>
<text text-anchor="start" x="345.5" y="-126.8" font-family="Helvetica,sans-Serif" font-size="14.00">value = [256, 26]</text>
<text text-anchor="start" x="335" y="-111.8" font-family="Helvetica,sans-Serif" font-size="14.00">class = Low Renew.</text>
</g>
<!-- 0&#45;&gt;4 -->
<g id="edge4" class="edge">
<title>0&#45;&gt;4</title>
<path fill="none" stroke="black" d="M344.95,-222.91C351.18,-214.01 357.84,-204.51 364.28,-195.33"/>
<polygon fill="black" stroke="black" points="367.23,-197.22 370.1,-187.02 361.5,-193.2 367.23,-197.22"/>
<text text-anchor="middle" x="374.43" y="-207.94" font-family="Helvetica,sans-Serif" font-size="14.00">False</text>
</g>
<!-- 2 -->
<g id="node3" class="node">
<title>2</title>
<path fill="#fae6d7" stroke="black" d="M131,-68C131,-68 12,-68 12,-68 6,-68 0,-62 0,-56 0,-56 0,-12 0,-12 0,-6 6,0 12,0 12,0 131,0 131,0 137,0 143,-6 143,-12 143,-12 143,-56 143,-56 143,-62 137,-68 131,-68"/>
<text text-anchor="start" x="34" y="-52.8" font-family="Helvetica,sans-Serif" font-size="14.00">gini = 0.494</text>
<text text-anchor="start" x="28" y="-37.8" font-family="Helvetica,sans-Serif" font-size="14.00">samples = 18</text>
<text text-anchor="start" x="27" y="-22.8" font-family="Helvetica,sans-Serif" font-size="14.00">value = [10, 8]</text>
<text text-anchor="start" x="8" y="-7.8" font-family="Helvetica,sans-Serif" font-size="14.00">class = Low Renew.</text>
</g>
<!-- 1&#45;&gt;2 -->
<g id="edge2" class="edge">
<title>1&#45;&gt;2</title>
<path fill="none" stroke="black" d="M173.8,-103.73C159.2,-93.92 143.64,-83.46 129.18,-73.75"/>
<polygon fill="black" stroke="black" points="131.06,-70.8 120.81,-68.13 127.16,-76.61 131.06,-70.8"/>
</g>
<!-- 3 -->
<g id="node4" class="node">
<title>3</title>
<path fill="#51a9e8" stroke="black" d="M295.5,-68C295.5,-68 173.5,-68 173.5,-68 167.5,-68 161.5,-62 161.5,-56 161.5,-56 161.5,-12 161.5,-12 161.5,-6 167.5,0 173.5,0 173.5,0 295.5,0 295.5,0 301.5,0 307.5,-6 307.5,-12 307.5,-12 307.5,-56 307.5,-56 307.5,-62 301.5,-68 295.5,-68"/>
<text text-anchor="start" x="201" y="-52.8" font-family="Helvetica,sans-Serif" font-size="14.00">gini = 0.19</text>
<text text-anchor="start" x="191" y="-37.8" font-family="Helvetica,sans-Serif" font-size="14.00">samples = 94</text>
<text text-anchor="start" x="186" y="-22.8" font-family="Helvetica,sans-Serif" font-size="14.00">value = [10, 84]</text>
<text text-anchor="start" x="169.5" y="-7.8" font-family="Helvetica,sans-Serif" font-size="14.00">class = High Renew.</text>
</g>
<!-- 1&#45;&gt;3 -->
<g id="edge3" class="edge">
<title>1&#45;&gt;3</title>
<path fill="none" stroke="black" d="M234.5,-103.73C234.5,-95.52 234.5,-86.86 234.5,-78.56"/>
<polygon fill="black" stroke="black" points="238,-78.3 234.5,-68.3 231,-78.3 238,-78.3"/>
</g>
<!-- 5 -->
<g id="node6" class="node">
<title>5</title>
<path fill="#e1f0fb" stroke="black" d="M459.5,-68C459.5,-68 337.5,-68 337.5,-68 331.5,-68 325.5,-62 325.5,-56 325.5,-56 325.5,-12 325.5,-12 325.5,-6 331.5,0 337.5,0 337.5,0 459.5,0 459.5,0 465.5,0 471.5,-6 471.5,-12 471.5,-12 471.5,-56 471.5,-56 471.5,-62 465.5,-68 459.5,-68"/>
<text text-anchor="start" x="361" y="-52.8" font-family="Helvetica,sans-Serif" font-size="14.00">gini = 0.497</text>
<text text-anchor="start" x="355" y="-37.8" font-family="Helvetica,sans-Serif" font-size="14.00">samples = 24</text>
<text text-anchor="start" x="350" y="-22.8" font-family="Helvetica,sans-Serif" font-size="14.00">value = [11, 13]</text>
<text text-anchor="start" x="333.5" y="-7.8" font-family="Helvetica,sans-Serif" font-size="14.00">class = High Renew.</text>
</g>
<!-- 4&#45;&gt;5 -->
<g id="edge5" class="edge">
<title>4&#45;&gt;5</title>
<path fill="none" stroke="black" d="M398.5,-103.73C398.5,-95.52 398.5,-86.86 398.5,-78.56"/>
<polygon fill="black" stroke="black" points="402,-78.3 398.5,-68.3 395,-78.3 402,-78.3"/>
</g>
<!-- 6 -->
<g id="node7" class="node">
<title>6</title>
<path fill="#e68844" stroke="black" d="M621,-68C621,-68 502,-68 502,-68 496,-68 490,-62 490,-56 490,-56 490,-12 490,-12 490,-6 496,0 502,0 502,0 621,0 621,0 627,0 633,-6 633,-12 633,-12 633,-56 633,-56 633,-62 627,-68 621,-68"/>
<text text-anchor="start" x="524" y="-52.8" font-family="Helvetica,sans-Serif" font-size="14.00">gini = 0.096</text>
<text text-anchor="start" x="514" y="-37.8" font-family="Helvetica,sans-Serif" font-size="14.00">samples = 258</text>
<text text-anchor="start" x="508.5" y="-22.8" font-family="Helvetica,sans-Serif" font-size="14.00">value = [245, 13]</text>
<text text-anchor="start" x="498" y="-7.8" font-family="Helvetica,sans-Serif" font-size="14.00">class = Low Renew.</text>
</g>
<!-- 4&#45;&gt;6 -->
<g id="edge6" class="edge">
<title>4&#45;&gt;6</title>
<path fill="none" stroke="black" d="M459.2,-103.73C473.8,-93.92 489.36,-83.46 503.82,-73.75"/>
<polygon fill="black" stroke="black" points="505.84,-76.61 512.19,-68.13 501.94,-70.8 505.84,-76.61"/>
</g>
</g>
</svg>
