<?xml version="1.0" encoding="UTF-8" standalone="no"?>
<!DOCTYPE svg PUBLIC "-//W3C//DTD SVG 1.1//EN"
 "http://www.w3.org/Graphics/SVG/1.1/DTD/svg11.dtd">
<!-- Generated by graphviz version 6.0.1 (20220911.1526)
 -->
<!-- Title: Tree Pages: 1 -->
<svg width="650pt" height="433pt"
 viewBox="0.00 0.00 649.50 433.00" xmlns="http://www.w3.org/2000/svg" xmlns:xlink="http://www.w3.org/1999/xlink">
<g id="graph0" class="graph" transform="scale(1 1) rotate(0) translate(4 429)">
<title>Tree</title>
<polygon fill="white" stroke="none" points="-4,4 -4,-429 645.5,-429 645.5,4 -4,4"/>
<!-- 0 -->
<g id="node1" class="node">
<title>0</title>
<path fill="#f0b78e" stroke="black" d="M384.5,-425C384.5,-425 265.5,-425 265.5,-425 259.5,-425 253.5,-419 253.5,-413 253.5,-413 253.5,-354 253.5,-354 253.5,-348 259.5,-342 265.5,-342 265.5,-342 384.5,-342 384.5,-342 390.5,-342 396.5,-348 396.5,-354 396.5,-354 396.5,-413 396.5,-413 396.5,-419 390.5,-425 384.5,-425"/>
<text text-anchor="start" x="279.5" y="-409.8" font-family="Helvetica,sans-Serif" font-size="14.00">WIND ≤ 0.949</text>
<text text-anchor="start" x="291.5" y="-394.8" font-family="Helvetica,sans-Serif" font-size="14.00">gini = 0.42</text>
<text text-anchor="start" x="277.5" y="-379.8" font-family="Helvetica,sans-Serif" font-size="14.00">samples = 400</text>
<text text-anchor="start" x="268" y="-364.8" font-family="Helvetica,sans-Serif" font-size="14.00">value = [280, 120]</text>
<text text-anchor="start" x="261.5" y="-349.8" font-family="Helvetica,sans-Serif" font-size="14.00">class = Low Renew.</text>
</g>
<!-- 1 -->
<g id="node2" class="node">
<title>1</title>
<path fill="#f8fbfe" stroke="black" d="M308.5,-306C308.5,-306 171.5,-306 171.5,-306 165.5,-306 159.5,-300 159.5,-294 159.5,-294 159.5,-235 159.5,-235 159.5,-229 165.5,-223 171.5,-223 171.5,-223 308.5,-223 308.5,-223 314.5,-223 320.5,-229 320.5,-235 320.5,-235 320.5,-294 320.5,-294 320.5,-300 314.5,-306 308.5,-306"/>
<text text-anchor="start" x="167.5" y="-290.8" font-family="Helvetica,sans-Serif" font-size="14.00">POPULATION ≤ 1.042</text>
<text text-anchor="start" x="211" y="-275.8" font-family="Helvetica,sans-Serif" font-size="14.00">gini = 0.5</text>
<text text-anchor="start" x="192.5" y="-260.8" font-family="Helvetica,sans-Serif" font-size="14.00">samples = 108</text>
<text text-anchor="start" x="191.5" y="-245.8" font-family="Helvetica,sans-Serif" font-size="14.00">value = [53, 55]</text>
<text text-anchor="start" x="175" y="-230.8" font-family="Helvetica,sans-Serif" font-size="14.00">class = High Renew.</text>
</g>
<!-- 0&#45;&gt;1 -->
<g id="edge1" class="edge">
<title>0&#45;&gt;1</title>
<path fill="none" stroke="black" d="M295.51,-341.91C289.05,-333.01 282.14,-323.51 275.48,-314.33"/>
<polygon fill="black" stroke="black" points="278.15,-312.05 269.44,-306.02 272.48,-316.17 278.15,-312.05"/>
<text text-anchor="middle" x="265.53" y="-327.01" font-family="Helvetica,sans-Serif" font-size="14.00">True</text>
</g>
<!-- 2 -->
<g id="node7" class="node">
<title>2</title>
<path fill="#eca572" stroke="black" d="M469.5,-306C469.5,-306 350.5,-306 350.5,-306 344.5,-306 338.5,-300 338.5,-294 338.5,-294 338.5,-235 338.5,-235 338.5,-229 344.5,-223 350.5,-223 350.5,-223 469.5,-223 469.5,-223 475.5,-223 481.5,-229 481.5,-235 481.5,-235 481.5,-294 481.5,-294 481.5,-300 475.5,-306 469.5,-306"/>
<text text-anchor="start" x="364.5" y="-290.8" font-family="Helvetica,sans-Serif" font-size="14.00">WIND ≤ 1.291</text>
<text text-anchor="start" x="372.5" y="-275.8" font-family="Helvetica,sans-Serif" font-size="14.00">gini = 0.346</text>
<text text-anchor="start" x="362.5" y="-260.8" font-family="Helvetica,sans-Serif" font-size="14.00">samples = 292</text>
<text text-anchor="start" x="357" y="-245.8" font-family="Helvetica,sans-Serif" font-size="14.00">value = [227, 65]</text>
<text text-anchor="start" x="346.5" y="-230.8" font-family="Helvetica,sans-Serif" font-size="14.00">class = Low Renew.</text>
</g>
<!-- 0&#45;&gt;2 -->
<g id="edge6" class="edge">
<title>0&#45;&gt;2</title>
<path fill="none" stroke="black" d="M354.49,-341.91C360.95,-333.01 367.86,-323.51 374.52,-314.33"/>
<polygon fill="black" stroke="black" points="377.52,-316.17 380.56,-306.02 371.85,-312.05 377.52,-316.17"/>
<text text-anchor="middle" x="384.47" y="-327.01" font-family="Helvetica,sans-Serif" font-size="14.00">False</text>
</g>
<!-- 3 -->
<g id="node3" class="node">
<title>3</title>
<path fill="#bcdef6" stroke="black" d="M134,-179.5C134,-179.5 12,-179.5 12,-179.5 6,-179.5 0,-173.5 0,-167.5 0,-167.5 0,-123.5 0,-123.5 0,-117.5 6,-111.5 12,-111.5 12,-111.5 134,-111.5 134,-111.5 140,-111.5 146,-117.5 146,-123.5 146,-123.5 146,-167.5 146,-167.5 146,-173.5 140,-179.5 134,-179.5"/>
<text text-anchor="start" x="35.5" y="-164.3" font-family="Helvetica,sans-Serif" font-size="14.00">gini = 0.479</text>
<text text-anchor="start" x="29.5" y="-149.3" font-family="Helvetica,sans-Serif" font-size="14.00">samples = 78</text>
<text text-anchor="start" x="24.5" y="-134.3" font-family="Helvetica,sans-Serif" font-size="14.00">value = [31, 47]</text>
<text text-anchor="start" x="8" y="-119.3" font-family="Helvetica,sans-Serif" font-size="14.00">class = High Renew.</text>
</g>
<!-- 1&#45;&gt;3 -->
<g id="edge2" class="edge">
<title>1&#45;&gt;3</title>
<path fill="none" stroke="black" d="M182.06,-222.91C164.74,-210.77 145.79,-197.49 128.61,-185.46"/>
<polygon fill="black" stroke="black" points="130.54,-182.54 120.34,-179.67 126.52,-188.27 130.54,-182.54"/>
</g>
<!-- 4 -->
<g id="node4" class="node">
<title>4</title>
<path fill="#eeaf81" stroke="black" d="M306,-187C306,-187 176,-187 176,-187 170,-187 164,-181 164,-175 164,-175 164,-116 164,-116 164,-110 170,-104 176,-104 176,-104 306,-104 306,-104 312,-104 318,-110 318,-116 318,-116 318,-175 318,-175 318,-181 312,-187 306,-187"/>
<text text-anchor="start" x="172" y="-171.8" font-family="Helvetica,sans-Serif" font-size="14.00">BIOENERGY ≤ 1.406</text>
<text text-anchor="start" x="203.5" y="-156.8" font-family="Helvetica,sans-Serif" font-size="14.00">gini = 0.391</text>
<text text-anchor="start" x="197.5" y="-141.8" font-family="Helvetica,sans-Serif" font-size="14.00">samples = 30</text>
<text text-anchor="start" x="196.5" y="-126.8" font-family="Helvetica,sans-Serif" font-size="14.00">value = [22, 8]</text>
<text text-anchor="start" x="177.5" y="-111.8" font-family="Helvetica,sans-Serif" font-size="14.00">class = Low Renew.</text>
</g>
<!-- 1&#45;&gt;4 -->
<g id="edge3" class="edge">
<title>1&#45;&gt;4</title>
<path fill="none" stroke="black" d="M240.35,-222.91C240.42,-214.65 240.49,-205.86 240.57,-197.3"/>
<polygon fill="black" stroke="black" points="244.07,-197.05 240.65,-187.02 237.07,-196.99 244.07,-197.05"/>
</g>
<!-- 7 -->
<g id="node5" class="node">
<title>7</title>
<path fill="#eb9e66" stroke="black" d="M219.5,-68C219.5,-68 100.5,-68 100.5,-68 94.5,-68 88.5,-62 88.5,-56 88.5,-56 88.5,-12 88.5,-12 88.5,-6 94.5,0 100.5,0 100.5,0 219.5,0 219.5,0 225.5,0 231.5,-6 231.5,-12 231.5,-12 231.5,-56 231.5,-56 231.5,-62 225.5,-68 219.5,-68"/>
<text text-anchor="start" x="122.5" y="-52.8" font-family="Helvetica,sans-Serif" font-size="14.00">gini = 0.302</text>
<text text-anchor="start" x="116.5" y="-37.8" font-family="Helvetica,sans-Serif" font-size="14.00">samples = 27</text>
<text text-anchor="start" x="115.5" y="-22.8" font-family="Helvetica,sans-Serif" font-size="14.00">value = [22, 5]</text>
<text text-anchor="start" x="96.5" y="-7.8" font-family="Helvetica,sans-Serif" font-size="14.00">class = Low Renew.</text>
</g>
<!-- 4&#45;&gt;7 -->
<g id="edge4" class="edge">
<title>4&#45;&gt;7</title>
<path fill="none" stroke="black" d="M210.84,-103.73C204.23,-94.79 197.22,-85.32 190.59,-76.36"/>
<polygon fill="black" stroke="black" points="193.39,-74.26 184.63,-68.3 187.77,-78.42 193.39,-74.26"/>
</g>
<!-- 8 -->
<g id="node6" class="node">
<title>8</title>
<path fill="#399de5" stroke="black" d="M384,-68C384,-68 262,-68 262,-68 256,-68 250,-62 250,-56 250,-56 250,-12 250,-12 250,-6 256,0 262,0 262,0 384,0 384,0 390,0 396,-6 396,-12 396,-12 396,-56 396,-56 396,-62 390,-68 384,-68"/>
<text text-anchor="start" x="294" y="-52.8" font-family="Helvetica,sans-Serif" font-size="14.00">gini = 0.0</text>
<text text-anchor="start" x="283.5" y="-37.8" font-family="Helvetica,sans-Serif" font-size="14.00">samples = 3</text>
<text text-anchor="start" x="282.5" y="-22.8" font-family="Helvetica,sans-Serif" font-size="14.00">value = [0, 3]</text>
<text text-anchor="start" x="258" y="-7.8" font-family="Helvetica,sans-Serif" font-size="14.00">class = High Renew.</text>
</g>
<!-- 4&#45;&gt;8 -->
<g id="edge5" class="edge">
<title>4&#45;&gt;8</title>
<path fill="none" stroke="black" d="M271.53,-103.73C278.23,-94.79 285.32,-85.32 292.03,-76.36"/>
<polygon fill="black" stroke="black" points="294.87,-78.4 298.06,-68.3 289.27,-74.21 294.87,-78.4"/>
</g>
<!-- 5 -->
<g id="node8" class="node">
<title>5</title>
<path fill="#f0b489" stroke="black" d="M468.5,-179.5C468.5,-179.5 349.5,-179.5 349.5,-179.5 343.5,-179.5 337.5,-173.5 337.5,-167.5 337.5,-167.5 337.5,-123.5 337.5,-123.5 337.5,-117.5 343.5,-111.5 349.5,-111.5 349.5,-111.5 468.5,-111.5 468.5,-111.5 474.5,-111.5 480.5,-117.5 480.5,-123.5 480.5,-123.5 480.5,-167.5 480.5,-167.5 480.5,-173.5 474.5,-179.5 468.5,-179.5"/>
<text text-anchor="start" x="375.5" y="-164.3" font-family="Helvetica,sans-Serif" font-size="14.00">gini = 0.41</text>
<text text-anchor="start" x="361.5" y="-149.3" font-family="Helvetica,sans-Serif" font-size="14.00">samples = 184</text>
<text text-anchor="start" x="356" y="-134.3" font-family="Helvetica,sans-Serif" font-size="14.00">value = [131, 53]</text>
<text text-anchor="start" x="345.5" y="-119.3" font-family="Helvetica,sans-Serif" font-size="14.00">class = Low Renew.</text>
</g>
<!-- 2&#45;&gt;5 -->
<g id="edge7" class="edge">
<title>2&#45;&gt;5</title>
<path fill="none" stroke="black" d="M409.65,-222.91C409.56,-212.2 409.46,-200.62 409.37,-189.78"/>
<polygon fill="black" stroke="black" points="412.87,-189.64 409.28,-179.67 405.87,-189.7 412.87,-189.64"/>
</g>
<!-- 6 -->
<g id="node9" class="node">
<title>6</title>
<path fill="#e89152" stroke="black" d="M629.5,-179.5C629.5,-179.5 510.5,-179.5 510.5,-179.5 504.5,-179.5 498.5,-173.5 498.5,-167.5 498.5,-167.5 498.5,-123.5 498.5,-123.5 498.5,-117.5 504.5,-111.5 510.5,-111.5 510.5,-111.5 629.5,-111.5 629.5,-111.5 635.5,-111.5 641.5,-117.5 641.5,-123.5 641.5,-123.5 641.5,-167.5 641.5,-167.5 641.5,-173.5 635.5,-179.5 629.5,-179.5"/>
<text text-anchor="start" x="532.5" y="-164.3" font-family="Helvetica,sans-Serif" font-size="14.00">gini = 0.198</text>
<text text-anchor="start" x="522.5" y="-149.3" font-family="Helvetica,sans-Serif" font-size="14.00">samples = 108</text>
<text text-anchor="start" x="521.5" y="-134.3" font-family="Helvetica,sans-Serif" font-size="14.00">value = [96, 12]</text>
<text text-anchor="start" x="506.5" y="-119.3" font-family="Helvetica,sans-Serif" font-size="14.00">class = Low Renew.</text>
</g>
<!-- 2&#45;&gt;6 -->
<g id="edge8" class="edge">
<title>2&#45;&gt;6</title>
<path fill="none" stroke="black" d="M465.51,-222.91C481.96,-210.88 499.94,-197.73 516.27,-185.79"/>
<polygon fill="black" stroke="black" points="518.64,-188.39 524.64,-179.67 514.51,-182.74 518.64,-188.39"/>
</g>
</g>
</svg>
