<?xml version="1.0" encoding="UTF-8" standalone="no"?>
<!DOCTYPE svg PUBLIC "-//W3C//DTD SVG 1.1//EN"
 "http://www.w3.org/Graphics/SVG/1.1/DTD/svg11.dtd">
<!-- Generated by graphviz version 6.0.1 (20220911.1526)
 -->
<!-- Title: Tree Pages: 1 -->
<svg width="2431pt" height="671pt"
 viewBox="0.00 0.00 2431.00 671.00" xmlns="http://www.w3.org/2000/svg" xmlns:xlink="http://www.w3.org/1999/xlink">
<g id="graph0" class="graph" transform="scale(1 1) rotate(0) translate(4 667)">
<title>Tree</title>
<polygon fill="white" stroke="none" points="-4,4 -4,-667 2427,-667 2427,4 -4,4"/>
<!-- 0 -->
<g id="node1" class="node">
<title>0</title>
<path fill="#f0b78e" stroke="black" d="M1012,-663C1012,-663 893,-663 893,-663 887,-663 881,-657 881,-651 881,-651 881,-592 881,-592 881,-586 887,-580 893,-580 893,-580 1012,-580 1012,-580 1018,-580 1024,-586 1024,-592 1024,-592 1024,-651 1024,-651 1024,-657 1018,-663 1012,-663"/>
<text text-anchor="start" x="907" y="-647.8" font-family="Helvetica,sans-Serif" font-size="14.00">WIND ≤ 0.788</text>
<text text-anchor="start" x="919" y="-632.8" font-family="Helvetica,sans-Serif" font-size="14.00">gini = 0.42</text>
<text text-anchor="start" x="905" y="-617.8" font-family="Helvetica,sans-Serif" font-size="14.00">samples = 394</text>
<text text-anchor="start" x="895.5" y="-602.8" font-family="Helvetica,sans-Serif" font-size="14.00">value = [276, 118]</text>
<text text-anchor="start" x="889" y="-587.8" font-family="Helvetica,sans-Serif" font-size="14.00">class = Low Renew.</text>
</g>
<!-- 1 -->
<g id="node2" class="node">
<title>1</title>
<path fill="#7fbfee" stroke="black" d="M706.5,-544C706.5,-544 584.5,-544 584.5,-544 578.5,-544 572.5,-538 572.5,-532 572.5,-532 572.5,-473 572.5,-473 572.5,-467 578.5,-461 584.5,-461 584.5,-461 706.5,-461 706.5,-461 712.5,-461 718.5,-467 718.5,-473 718.5,-473 718.5,-532 718.5,-532 718.5,-538 712.5,-544 706.5,-544"/>
<text text-anchor="start" x="604" y="-528.8" font-family="Helvetica,sans-Serif" font-size="14.00">CCS ≤ 0.936</text>
<text text-anchor="start" x="608" y="-513.8" font-family="Helvetica,sans-Serif" font-size="14.00">gini = 0.385</text>
<text text-anchor="start" x="602" y="-498.8" font-family="Helvetica,sans-Serif" font-size="14.00">samples = 50</text>
<text text-anchor="start" x="597" y="-483.8" font-family="Helvetica,sans-Serif" font-size="14.00">value = [13, 37]</text>
<text text-anchor="start" x="580.5" y="-468.8" font-family="Helvetica,sans-Serif" font-size="14.00">class = High Renew.</text>
</g>
<!-- 0&#45;&gt;1 -->
<g id="edge1" class="edge">
<title>0&#45;&gt;1</title>
<path fill="none" stroke="black" d="M880.91,-593.22C835.15,-575.78 775.65,-553.1 727.92,-534.91"/>
<polygon fill="black" stroke="black" points="729.13,-531.63 718.54,-531.34 726.64,-538.17 729.13,-531.63"/>
<text text-anchor="middle" x="728.76" y="-550.45" font-family="Helvetica,sans-Serif" font-size="14.00">True</text>
</g>
<!-- 16 -->
<g id="node17" class="node">
<title>16</title>
<path fill="#eda876" stroke="black" d="M1355,-544C1355,-544 1236,-544 1236,-544 1230,-544 1224,-538 1224,-532 1224,-532 1224,-473 1224,-473 1224,-467 1230,-461 1236,-461 1236,-461 1355,-461 1355,-461 1361,-461 1367,-467 1367,-473 1367,-473 1367,-532 1367,-532 1367,-538 1361,-544 1355,-544"/>
<text text-anchor="start" x="1250" y="-528.8" font-family="Helvetica,sans-Serif" font-size="14.00">WIND ≤ 1.291</text>
<text text-anchor="start" x="1262" y="-513.8" font-family="Helvetica,sans-Serif" font-size="14.00">gini = 0.36</text>
<text text-anchor="start" x="1248" y="-498.8" font-family="Helvetica,sans-Serif" font-size="14.00">samples = 344</text>
<text text-anchor="start" x="1242.5" y="-483.8" font-family="Helvetica,sans-Serif" font-size="14.00">value = [263, 81]</text>
<text text-anchor="start" x="1232" y="-468.8" font-family="Helvetica,sans-Serif" font-size="14.00">class = Low Renew.</text>
</g>
<!-- 0&#45;&gt;16 -->
<g id="edge16" class="edge">
<title>0&#45;&gt;16</title>
<path fill="none" stroke="black" d="M1024.4,-595.97C1079.84,-577.06 1156.51,-550.91 1214.18,-531.24"/>
<polygon fill="black" stroke="black" points="1215.65,-534.44 1223.98,-527.89 1213.39,-527.81 1215.65,-534.44"/>
<text text-anchor="middle" x="1212.96" y="-546.63" font-family="Helvetica,sans-Serif" font-size="14.00">False</text>
</g>
<!-- 2 -->
<g id="node3" class="node">
<title>2</title>
<path fill="#eca572" stroke="black" d="M298,-425C298,-425 179,-425 179,-425 173,-425 167,-419 167,-413 167,-413 167,-354 167,-354 167,-348 173,-342 179,-342 179,-342 298,-342 298,-342 304,-342 310,-348 310,-354 310,-354 310,-413 310,-413 310,-419 304,-425 298,-425"/>
<text text-anchor="start" x="178" y="-409.8" font-family="Helvetica,sans-Serif" font-size="14.00">NUCLEAR ≤ 1.038</text>
<text text-anchor="start" x="201" y="-394.8" font-family="Helvetica,sans-Serif" font-size="14.00">gini = 0.346</text>
<text text-anchor="start" x="199" y="-379.8" font-family="Helvetica,sans-Serif" font-size="14.00">samples = 9</text>
<text text-anchor="start" x="198" y="-364.8" font-family="Helvetica,sans-Serif" font-size="14.00">value = [7, 2]</text>
<text text-anchor="start" x="175" y="-349.8" font-family="Helvetica,sans-Serif" font-size="14.00">class = Low Renew.</text>
</g>
<!-- 1&#45;&gt;2 -->
<g id="edge2" class="edge">
<title>1&#45;&gt;2</title>
<path fill="none" stroke="black" d="M572.27,-480.45C501.19,-460.02 393.54,-429.07 319.84,-407.88"/>
<polygon fill="black" stroke="black" points="320.7,-404.49 310.12,-405.09 318.76,-411.22 320.7,-404.49"/>
</g>
<!-- 7 -->
<g id="node8" class="node">
<title>7</title>
<path fill="#5baee9" stroke="black" d="M730.5,-425C730.5,-425 560.5,-425 560.5,-425 554.5,-425 548.5,-419 548.5,-413 548.5,-413 548.5,-354 548.5,-354 548.5,-348 554.5,-342 560.5,-342 560.5,-342 730.5,-342 730.5,-342 736.5,-342 742.5,-348 742.5,-354 742.5,-354 742.5,-413 742.5,-413 742.5,-419 736.5,-425 730.5,-425"/>
<text text-anchor="start" x="556.5" y="-409.8" font-family="Helvetica,sans-Serif" font-size="14.00">ENERGY DEMAND ≤ 1.256</text>
<text text-anchor="start" x="612" y="-394.8" font-family="Helvetica,sans-Serif" font-size="14.00">gini = 0.25</text>
<text text-anchor="start" x="602" y="-379.8" font-family="Helvetica,sans-Serif" font-size="14.00">samples = 41</text>
<text text-anchor="start" x="601" y="-364.8" font-family="Helvetica,sans-Serif" font-size="14.00">value = [6, 35]</text>
<text text-anchor="start" x="580.5" y="-349.8" font-family="Helvetica,sans-Serif" font-size="14.00">class = High Renew.</text>
</g>
<!-- 1&#45;&gt;7 -->
<g id="edge7" class="edge">
<title>1&#45;&gt;7</title>
<path fill="none" stroke="black" d="M645.5,-460.91C645.5,-452.65 645.5,-443.86 645.5,-435.3"/>
<polygon fill="black" stroke="black" points="649,-435.02 645.5,-425.02 642,-435.02 649,-435.02"/>
</g>
<!-- 3 -->
<g id="node4" class="node">
<title>3</title>
<path fill="#e58139" stroke="black" d="M131,-298.5C131,-298.5 12,-298.5 12,-298.5 6,-298.5 0,-292.5 0,-286.5 0,-286.5 0,-242.5 0,-242.5 0,-236.5 6,-230.5 12,-230.5 12,-230.5 131,-230.5 131,-230.5 137,-230.5 143,-236.5 143,-242.5 143,-242.5 143,-286.5 143,-286.5 143,-292.5 137,-298.5 131,-298.5"/>
<text text-anchor="start" x="42.5" y="-283.3" font-family="Helvetica,sans-Serif" font-size="14.00">gini = 0.0</text>
<text text-anchor="start" x="32" y="-268.3" font-family="Helvetica,sans-Serif" font-size="14.00">samples = 6</text>
<text text-anchor="start" x="31" y="-253.3" font-family="Helvetica,sans-Serif" font-size="14.00">value = [6, 0]</text>
<text text-anchor="start" x="8" y="-238.3" font-family="Helvetica,sans-Serif" font-size="14.00">class = Low Renew.</text>
</g>
<!-- 2&#45;&gt;3 -->
<g id="edge3" class="edge">
<title>2&#45;&gt;3</title>
<path fill="none" stroke="black" d="M180.56,-341.91C163.24,-329.77 144.29,-316.49 127.11,-304.46"/>
<polygon fill="black" stroke="black" points="129.04,-301.54 118.84,-298.67 125.02,-307.27 129.04,-301.54"/>
</g>
<!-- 4 -->
<g id="node5" class="node">
<title>4</title>
<path fill="#9ccef2" stroke="black" d="M303.5,-306C303.5,-306 173.5,-306 173.5,-306 167.5,-306 161.5,-300 161.5,-294 161.5,-294 161.5,-235 161.5,-235 161.5,-229 167.5,-223 173.5,-223 173.5,-223 303.5,-223 303.5,-223 309.5,-223 315.5,-229 315.5,-235 315.5,-235 315.5,-294 315.5,-294 315.5,-300 309.5,-306 303.5,-306"/>
<text text-anchor="start" x="169.5" y="-290.8" font-family="Helvetica,sans-Serif" font-size="14.00">BIOENERGY ≤ 1.276</text>
<text text-anchor="start" x="201" y="-275.8" font-family="Helvetica,sans-Serif" font-size="14.00">gini = 0.444</text>
<text text-anchor="start" x="199" y="-260.8" font-family="Helvetica,sans-Serif" font-size="14.00">samples = 3</text>
<text text-anchor="start" x="198" y="-245.8" font-family="Helvetica,sans-Serif" font-size="14.00">value = [1, 2]</text>
<text text-anchor="start" x="173.5" y="-230.8" font-family="Helvetica,sans-Serif" font-size="14.00">class = High Renew.</text>
</g>
<!-- 2&#45;&gt;4 -->
<g id="edge4" class="edge">
<title>2&#45;&gt;4</title>
<path fill="none" stroke="black" d="M238.5,-341.91C238.5,-333.65 238.5,-324.86 238.5,-316.3"/>
<polygon fill="black" stroke="black" points="242,-316.02 238.5,-306.02 235,-316.02 242,-316.02"/>
</g>
<!-- 5 -->
<g id="node6" class="node">
<title>5</title>
<path fill="#399de5" stroke="black" d="M136.5,-179.5C136.5,-179.5 14.5,-179.5 14.5,-179.5 8.5,-179.5 2.5,-173.5 2.5,-167.5 2.5,-167.5 2.5,-123.5 2.5,-123.5 2.5,-117.5 8.5,-111.5 14.5,-111.5 14.5,-111.5 136.5,-111.5 136.5,-111.5 142.5,-111.5 148.5,-117.5 148.5,-123.5 148.5,-123.5 148.5,-167.5 148.5,-167.5 148.5,-173.5 142.5,-179.5 136.5,-179.5"/>
<text text-anchor="start" x="46.5" y="-164.3" font-family="Helvetica,sans-Serif" font-size="14.00">gini = 0.0</text>
<text text-anchor="start" x="36" y="-149.3" font-family="Helvetica,sans-Serif" font-size="14.00">samples = 2</text>
<text text-anchor="start" x="35" y="-134.3" font-family="Helvetica,sans-Serif" font-size="14.00">value = [0, 2]</text>
<text text-anchor="start" x="10.5" y="-119.3" font-family="Helvetica,sans-Serif" font-size="14.00">class = High Renew.</text>
</g>
<!-- 4&#45;&gt;5 -->
<g id="edge5" class="edge">
<title>4&#45;&gt;5</title>
<path fill="none" stroke="black" d="M181.95,-222.91C165.19,-210.88 146.88,-197.73 130.24,-185.79"/>
<polygon fill="black" stroke="black" points="131.87,-182.65 121.71,-179.67 127.79,-188.34 131.87,-182.65"/>
</g>
<!-- 6 -->
<g id="node7" class="node">
<title>6</title>
<path fill="#e58139" stroke="black" d="M298,-179.5C298,-179.5 179,-179.5 179,-179.5 173,-179.5 167,-173.5 167,-167.5 167,-167.5 167,-123.5 167,-123.5 167,-117.5 173,-111.5 179,-111.5 179,-111.5 298,-111.5 298,-111.5 304,-111.5 310,-117.5 310,-123.5 310,-123.5 310,-167.5 310,-167.5 310,-173.5 304,-179.5 298,-179.5"/>
<text text-anchor="start" x="209.5" y="-164.3" font-family="Helvetica,sans-Serif" font-size="14.00">gini = 0.0</text>
<text text-anchor="start" x="199" y="-149.3" font-family="Helvetica,sans-Serif" font-size="14.00">samples = 1</text>
<text text-anchor="start" x="198" y="-134.3" font-family="Helvetica,sans-Serif" font-size="14.00">value = [1, 0]</text>
<text text-anchor="start" x="175" y="-119.3" font-family="Helvetica,sans-Serif" font-size="14.00">class = Low Renew.</text>
</g>
<!-- 4&#45;&gt;6 -->
<g id="edge6" class="edge">
<title>4&#45;&gt;6</title>
<path fill="none" stroke="black" d="M238.5,-222.91C238.5,-212.2 238.5,-200.62 238.5,-189.78"/>
<polygon fill="black" stroke="black" points="242,-189.67 238.5,-179.67 235,-189.67 242,-189.67"/>
</g>
<!-- 8 -->
<g id="node9" class="node">
<title>8</title>
<path fill="#45a3e7" stroke="black" d="M629,-306C629,-306 492,-306 492,-306 486,-306 480,-300 480,-294 480,-294 480,-235 480,-235 480,-229 486,-223 492,-223 492,-223 629,-223 629,-223 635,-223 641,-229 641,-235 641,-235 641,-294 641,-294 641,-300 635,-306 629,-306"/>
<text text-anchor="start" x="488" y="-290.8" font-family="Helvetica,sans-Serif" font-size="14.00">POPULATION ≤ 1.157</text>
<text text-anchor="start" x="523" y="-275.8" font-family="Helvetica,sans-Serif" font-size="14.00">gini = 0.108</text>
<text text-anchor="start" x="517" y="-260.8" font-family="Helvetica,sans-Serif" font-size="14.00">samples = 35</text>
<text text-anchor="start" x="516" y="-245.8" font-family="Helvetica,sans-Serif" font-size="14.00">value = [2, 33]</text>
<text text-anchor="start" x="495.5" y="-230.8" font-family="Helvetica,sans-Serif" font-size="14.00">class = High Renew.</text>
</g>
<!-- 7&#45;&gt;8 -->
<g id="edge8" class="edge">
<title>7&#45;&gt;8</title>
<path fill="none" stroke="black" d="M616.01,-341.91C609.55,-333.01 602.64,-323.51 595.98,-314.33"/>
<polygon fill="black" stroke="black" points="598.65,-312.05 589.94,-306.02 592.98,-316.17 598.65,-312.05"/>
</g>
<!-- 13 -->
<g id="node14" class="node">
<title>13</title>
<path fill="#f2c09c" stroke="black" d="M790,-306C790,-306 671,-306 671,-306 665,-306 659,-300 659,-294 659,-294 659,-235 659,-235 659,-229 665,-223 671,-223 671,-223 790,-223 790,-223 796,-223 802,-229 802,-235 802,-235 802,-294 802,-294 802,-300 796,-306 790,-306"/>
<text text-anchor="start" x="685" y="-290.8" font-family="Helvetica,sans-Serif" font-size="14.00">WIND ≤ 0.726</text>
<text text-anchor="start" x="693" y="-275.8" font-family="Helvetica,sans-Serif" font-size="14.00">gini = 0.444</text>
<text text-anchor="start" x="691" y="-260.8" font-family="Helvetica,sans-Serif" font-size="14.00">samples = 6</text>
<text text-anchor="start" x="690" y="-245.8" font-family="Helvetica,sans-Serif" font-size="14.00">value = [4, 2]</text>
<text text-anchor="start" x="667" y="-230.8" font-family="Helvetica,sans-Serif" font-size="14.00">class = Low Renew.</text>
</g>
<!-- 7&#45;&gt;13 -->
<g id="edge13" class="edge">
<title>7&#45;&gt;13</title>
<path fill="none" stroke="black" d="M674.99,-341.91C681.45,-333.01 688.36,-323.51 695.02,-314.33"/>
<polygon fill="black" stroke="black" points="698.02,-316.17 701.06,-306.02 692.35,-312.05 698.02,-316.17"/>
</g>
<!-- 9 -->
<g id="node10" class="node">
<title>9</title>
<path fill="#3fa0e6" stroke="black" d="M462.5,-187C462.5,-187 340.5,-187 340.5,-187 334.5,-187 328.5,-181 328.5,-175 328.5,-175 328.5,-116 328.5,-116 328.5,-110 334.5,-104 340.5,-104 340.5,-104 462.5,-104 462.5,-104 468.5,-104 474.5,-110 474.5,-116 474.5,-116 474.5,-175 474.5,-175 474.5,-181 468.5,-187 462.5,-187"/>
<text text-anchor="start" x="356" y="-171.8" font-family="Helvetica,sans-Serif" font-size="14.00">WIND ≤ 0.782</text>
<text text-anchor="start" x="364" y="-156.8" font-family="Helvetica,sans-Serif" font-size="14.00">gini = 0.057</text>
<text text-anchor="start" x="358" y="-141.8" font-family="Helvetica,sans-Serif" font-size="14.00">samples = 34</text>
<text text-anchor="start" x="357" y="-126.8" font-family="Helvetica,sans-Serif" font-size="14.00">value = [1, 33]</text>
<text text-anchor="start" x="336.5" y="-111.8" font-family="Helvetica,sans-Serif" font-size="14.00">class = High Renew.</text>
</g>
<!-- 8&#45;&gt;9 -->
<g id="edge9" class="edge">
<title>8&#45;&gt;9</title>
<path fill="none" stroke="black" d="M505.34,-222.91C492.26,-213.29 478.22,-202.95 464.82,-193.09"/>
<polygon fill="black" stroke="black" points="466.7,-190.13 456.57,-187.02 462.55,-195.77 466.7,-190.13"/>
</g>
<!-- 12 -->
<g id="node13" class="node">
<title>12</title>
<path fill="#e58139" stroke="black" d="M624,-179.5C624,-179.5 505,-179.5 505,-179.5 499,-179.5 493,-173.5 493,-167.5 493,-167.5 493,-123.5 493,-123.5 493,-117.5 499,-111.5 505,-111.5 505,-111.5 624,-111.5 624,-111.5 630,-111.5 636,-117.5 636,-123.5 636,-123.5 636,-167.5 636,-167.5 636,-173.5 630,-179.5 624,-179.5"/>
<text text-anchor="start" x="535.5" y="-164.3" font-family="Helvetica,sans-Serif" font-size="14.00">gini = 0.0</text>
<text text-anchor="start" x="525" y="-149.3" font-family="Helvetica,sans-Serif" font-size="14.00">samples = 1</text>
<text text-anchor="start" x="524" y="-134.3" font-family="Helvetica,sans-Serif" font-size="14.00">value = [1, 0]</text>
<text text-anchor="start" x="501" y="-119.3" font-family="Helvetica,sans-Serif" font-size="14.00">class = Low Renew.</text>
</g>
<!-- 8&#45;&gt;12 -->
<g id="edge12" class="edge">
<title>8&#45;&gt;12</title>
<path fill="none" stroke="black" d="M561.89,-222.91C562.25,-212.2 562.65,-200.62 563.02,-189.78"/>
<polygon fill="black" stroke="black" points="566.52,-189.78 563.37,-179.67 559.53,-189.54 566.52,-189.78"/>
</g>
<!-- 10 -->
<g id="node11" class="node">
<title>10</title>
<path fill="#399de5" stroke="black" d="M380.5,-68C380.5,-68 258.5,-68 258.5,-68 252.5,-68 246.5,-62 246.5,-56 246.5,-56 246.5,-12 246.5,-12 246.5,-6 252.5,0 258.5,0 258.5,0 380.5,0 380.5,0 386.5,0 392.5,-6 392.5,-12 392.5,-12 392.5,-56 392.5,-56 392.5,-62 386.5,-68 380.5,-68"/>
<text text-anchor="start" x="290.5" y="-52.8" font-family="Helvetica,sans-Serif" font-size="14.00">gini = 0.0</text>
<text text-anchor="start" x="276" y="-37.8" font-family="Helvetica,sans-Serif" font-size="14.00">samples = 32</text>
<text text-anchor="start" x="275" y="-22.8" font-family="Helvetica,sans-Serif" font-size="14.00">value = [0, 32]</text>
<text text-anchor="start" x="254.5" y="-7.8" font-family="Helvetica,sans-Serif" font-size="14.00">class = High Renew.</text>
</g>
<!-- 9&#45;&gt;10 -->
<g id="edge10" class="edge">
<title>9&#45;&gt;10</title>
<path fill="none" stroke="black" d="M370.97,-103.73C364.27,-94.79 357.18,-85.32 350.47,-76.36"/>
<polygon fill="black" stroke="black" points="353.23,-74.21 344.44,-68.3 347.63,-78.4 353.23,-74.21"/>
</g>
<!-- 11 -->
<g id="node12" class="node">
<title>11</title>
<path fill="#ffffff" stroke="black" d="M542,-68C542,-68 423,-68 423,-68 417,-68 411,-62 411,-56 411,-56 411,-12 411,-12 411,-6 417,0 423,0 423,0 542,0 542,0 548,0 554,-6 554,-12 554,-12 554,-56 554,-56 554,-62 548,-68 542,-68"/>
<text text-anchor="start" x="453.5" y="-52.8" font-family="Helvetica,sans-Serif" font-size="14.00">gini = 0.5</text>
<text text-anchor="start" x="443" y="-37.8" font-family="Helvetica,sans-Serif" font-size="14.00">samples = 2</text>
<text text-anchor="start" x="442" y="-22.8" font-family="Helvetica,sans-Serif" font-size="14.00">value = [1, 1]</text>
<text text-anchor="start" x="419" y="-7.8" font-family="Helvetica,sans-Serif" font-size="14.00">class = Low Renew.</text>
</g>
<!-- 9&#45;&gt;11 -->
<g id="edge11" class="edge">
<title>9&#45;&gt;11</title>
<path fill="none" stroke="black" d="M431.66,-103.73C438.27,-94.79 445.28,-85.32 451.91,-76.36"/>
<polygon fill="black" stroke="black" points="454.73,-78.42 457.87,-68.3 449.11,-74.26 454.73,-78.42"/>
</g>
<!-- 14 -->
<g id="node15" class="node">
<title>14</title>
<path fill="#e58139" stroke="black" d="M785,-179.5C785,-179.5 666,-179.5 666,-179.5 660,-179.5 654,-173.5 654,-167.5 654,-167.5 654,-123.5 654,-123.5 654,-117.5 660,-111.5 666,-111.5 666,-111.5 785,-111.5 785,-111.5 791,-111.5 797,-117.5 797,-123.5 797,-123.5 797,-167.5 797,-167.5 797,-173.5 791,-179.5 785,-179.5"/>
<text text-anchor="start" x="696.5" y="-164.3" font-family="Helvetica,sans-Serif" font-size="14.00">gini = 0.0</text>
<text text-anchor="start" x="686" y="-149.3" font-family="Helvetica,sans-Serif" font-size="14.00">samples = 4</text>
<text text-anchor="start" x="685" y="-134.3" font-family="Helvetica,sans-Serif" font-size="14.00">value = [4, 0]</text>
<text text-anchor="start" x="662" y="-119.3" font-family="Helvetica,sans-Serif" font-size="14.00">class = Low Renew.</text>
</g>
<!-- 13&#45;&gt;14 -->
<g id="edge14" class="edge">
<title>13&#45;&gt;14</title>
<path fill="none" stroke="black" d="M728.77,-222.91C728.31,-212.2 727.81,-200.62 727.35,-189.78"/>
<polygon fill="black" stroke="black" points="730.84,-189.51 726.92,-179.67 723.85,-189.81 730.84,-189.51"/>
</g>
<!-- 15 -->
<g id="node16" class="node">
<title>15</title>
<path fill="#399de5" stroke="black" d="M949.5,-179.5C949.5,-179.5 827.5,-179.5 827.5,-179.5 821.5,-179.5 815.5,-173.5 815.5,-167.5 815.5,-167.5 815.5,-123.5 815.5,-123.5 815.5,-117.5 821.5,-111.5 827.5,-111.5 827.5,-111.5 949.5,-111.5 949.5,-111.5 955.5,-111.5 961.5,-117.5 961.5,-123.5 961.5,-123.5 961.5,-167.5 961.5,-167.5 961.5,-173.5 955.5,-179.5 949.5,-179.5"/>
<text text-anchor="start" x="859.5" y="-164.3" font-family="Helvetica,sans-Serif" font-size="14.00">gini = 0.0</text>
<text text-anchor="start" x="849" y="-149.3" font-family="Helvetica,sans-Serif" font-size="14.00">samples = 2</text>
<text text-anchor="start" x="848" y="-134.3" font-family="Helvetica,sans-Serif" font-size="14.00">value = [0, 2]</text>
<text text-anchor="start" x="823.5" y="-119.3" font-family="Helvetica,sans-Serif" font-size="14.00">class = High Renew.</text>
</g>
<!-- 13&#45;&gt;15 -->
<g id="edge15" class="edge">
<title>13&#45;&gt;15</title>
<path fill="none" stroke="black" d="M785.32,-222.91C801.56,-210.88 819.31,-197.73 835.44,-185.79"/>
<polygon fill="black" stroke="black" points="837.76,-188.43 843.71,-179.67 833.59,-182.81 837.76,-188.43"/>
</g>
<!-- 17 -->
<g id="node18" class="node">
<title>17</title>
<path fill="#f0b890" stroke="black" d="M1355,-425C1355,-425 1236,-425 1236,-425 1230,-425 1224,-419 1224,-413 1224,-413 1224,-354 1224,-354 1224,-348 1230,-342 1236,-342 1236,-342 1355,-342 1355,-342 1361,-342 1367,-348 1367,-354 1367,-354 1367,-413 1367,-413 1367,-419 1361,-425 1355,-425"/>
<text text-anchor="start" x="1235" y="-409.8" font-family="Helvetica,sans-Serif" font-size="14.00">NUCLEAR ≤ 0.662</text>
<text text-anchor="start" x="1258" y="-394.8" font-family="Helvetica,sans-Serif" font-size="14.00">gini = 0.423</text>
<text text-anchor="start" x="1248" y="-379.8" font-family="Helvetica,sans-Serif" font-size="14.00">samples = 240</text>
<text text-anchor="start" x="1242.5" y="-364.8" font-family="Helvetica,sans-Serif" font-size="14.00">value = [167, 73]</text>
<text text-anchor="start" x="1232" y="-349.8" font-family="Helvetica,sans-Serif" font-size="14.00">class = Low Renew.</text>
</g>
<!-- 16&#45;&gt;17 -->
<g id="edge17" class="edge">
<title>16&#45;&gt;17</title>
<path fill="none" stroke="black" d="M1295.5,-460.91C1295.5,-452.65 1295.5,-443.86 1295.5,-435.3"/>
<polygon fill="black" stroke="black" points="1299,-435.02 1295.5,-425.02 1292,-435.02 1299,-435.02"/>
</g>
<!-- 28 -->
<g id="node29" class="node">
<title>28</title>
<path fill="#e78c49" stroke="black" d="M1695,-425C1695,-425 1576,-425 1576,-425 1570,-425 1564,-419 1564,-413 1564,-413 1564,-354 1564,-354 1564,-348 1570,-342 1576,-342 1576,-342 1695,-342 1695,-342 1701,-342 1707,-348 1707,-354 1707,-354 1707,-413 1707,-413 1707,-419 1701,-425 1695,-425"/>
<text text-anchor="start" x="1575" y="-409.8" font-family="Helvetica,sans-Serif" font-size="14.00">NUCLEAR ≤ 0.593</text>
<text text-anchor="start" x="1598" y="-394.8" font-family="Helvetica,sans-Serif" font-size="14.00">gini = 0.142</text>
<text text-anchor="start" x="1588" y="-379.8" font-family="Helvetica,sans-Serif" font-size="14.00">samples = 104</text>
<text text-anchor="start" x="1591" y="-364.8" font-family="Helvetica,sans-Serif" font-size="14.00">value = [96, 8]</text>
<text text-anchor="start" x="1572" y="-349.8" font-family="Helvetica,sans-Serif" font-size="14.00">class = Low Renew.</text>
</g>
<!-- 16&#45;&gt;28 -->
<g id="edge28" class="edge">
<title>16&#45;&gt;28</title>
<path fill="none" stroke="black" d="M1367.19,-476.83C1421.89,-458.01 1497.28,-432.06 1554.22,-412.47"/>
<polygon fill="black" stroke="black" points="1555.59,-415.7 1563.91,-409.14 1553.31,-409.08 1555.59,-415.7"/>
</g>
<!-- 18 -->
<g id="node19" class="node">
<title>18</title>
<path fill="#e68742" stroke="black" d="M1293,-306C1293,-306 1102,-306 1102,-306 1096,-306 1090,-300 1090,-294 1090,-294 1090,-235 1090,-235 1090,-229 1096,-223 1102,-223 1102,-223 1293,-223 1293,-223 1299,-223 1305,-229 1305,-235 1305,-235 1305,-294 1305,-294 1305,-300 1299,-306 1293,-306"/>
<text text-anchor="start" x="1098" y="-290.8" font-family="Helvetica,sans-Serif" font-size="14.00">FOSSIL FUEL COSTS ≤ 0.876</text>
<text text-anchor="start" x="1160" y="-275.8" font-family="Helvetica,sans-Serif" font-size="14.00">gini = 0.083</text>
<text text-anchor="start" x="1154" y="-260.8" font-family="Helvetica,sans-Serif" font-size="14.00">samples = 23</text>
<text text-anchor="start" x="1153" y="-245.8" font-family="Helvetica,sans-Serif" font-size="14.00">value = [22, 1]</text>
<text text-anchor="start" x="1134" y="-230.8" font-family="Helvetica,sans-Serif" font-size="14.00">class = Low Renew.</text>
</g>
<!-- 17&#45;&gt;18 -->
<g id="edge18" class="edge">
<title>17&#45;&gt;18</title>
<path fill="none" stroke="black" d="M1261.5,-341.91C1253.9,-332.83 1245.76,-323.12 1237.93,-313.77"/>
<polygon fill="black" stroke="black" points="1240.54,-311.44 1231.44,-306.02 1235.18,-315.93 1240.54,-311.44"/>
</g>
<!-- 21 -->
<g id="node22" class="node">
<title>21</title>
<path fill="#f2c09b" stroke="black" d="M1454,-306C1454,-306 1335,-306 1335,-306 1329,-306 1323,-300 1323,-294 1323,-294 1323,-235 1323,-235 1323,-229 1329,-223 1335,-223 1335,-223 1454,-223 1454,-223 1460,-223 1466,-229 1466,-235 1466,-235 1466,-294 1466,-294 1466,-300 1460,-306 1454,-306"/>
<text text-anchor="start" x="1343.5" y="-290.8" font-family="Helvetica,sans-Serif" font-size="14.00">SOLAR ≤ 0.798</text>
<text text-anchor="start" x="1357" y="-275.8" font-family="Helvetica,sans-Serif" font-size="14.00">gini = 0.443</text>
<text text-anchor="start" x="1347" y="-260.8" font-family="Helvetica,sans-Serif" font-size="14.00">samples = 217</text>
<text text-anchor="start" x="1341.5" y="-245.8" font-family="Helvetica,sans-Serif" font-size="14.00">value = [145, 72]</text>
<text text-anchor="start" x="1331" y="-230.8" font-family="Helvetica,sans-Serif" font-size="14.00">class = Low Renew.</text>
</g>
<!-- 17&#45;&gt;21 -->
<g id="edge21" class="edge">
<title>17&#45;&gt;21</title>
<path fill="none" stroke="black" d="M1329.85,-341.91C1337.53,-332.83 1345.74,-323.12 1353.66,-313.77"/>
<polygon fill="black" stroke="black" points="1356.43,-315.92 1360.21,-306.02 1351.08,-311.39 1356.43,-315.92"/>
</g>
<!-- 19 -->
<g id="node20" class="node">
<title>19</title>
<path fill="#399de5" stroke="black" d="M1113.5,-179.5C1113.5,-179.5 991.5,-179.5 991.5,-179.5 985.5,-179.5 979.5,-173.5 979.5,-167.5 979.5,-167.5 979.5,-123.5 979.5,-123.5 979.5,-117.5 985.5,-111.5 991.5,-111.5 991.5,-111.5 1113.5,-111.5 1113.5,-111.5 1119.5,-111.5 1125.5,-117.5 1125.5,-123.5 1125.5,-123.5 1125.5,-167.5 1125.5,-167.5 1125.5,-173.5 1119.5,-179.5 1113.5,-179.5"/>
<text text-anchor="start" x="1023.5" y="-164.3" font-family="Helvetica,sans-Serif" font-size="14.00">gini = 0.0</text>
<text text-anchor="start" x="1013" y="-149.3" font-family="Helvetica,sans-Serif" font-size="14.00">samples = 1</text>
<text text-anchor="start" x="1012" y="-134.3" font-family="Helvetica,sans-Serif" font-size="14.00">value = [0, 1]</text>
<text text-anchor="start" x="987.5" y="-119.3" font-family="Helvetica,sans-Serif" font-size="14.00">class = High Renew.</text>
</g>
<!-- 18&#45;&gt;19 -->
<g id="edge19" class="edge">
<title>18&#45;&gt;19</title>
<path fill="none" stroke="black" d="M1147.19,-222.91C1132.42,-210.99 1116.29,-197.98 1101.6,-186.12"/>
<polygon fill="black" stroke="black" points="1103.58,-183.22 1093.6,-179.67 1099.19,-188.67 1103.58,-183.22"/>
</g>
<!-- 20 -->
<g id="node21" class="node">
<title>20</title>
<path fill="#e58139" stroke="black" d="M1275,-179.5C1275,-179.5 1156,-179.5 1156,-179.5 1150,-179.5 1144,-173.5 1144,-167.5 1144,-167.5 1144,-123.5 1144,-123.5 1144,-117.5 1150,-111.5 1156,-111.5 1156,-111.5 1275,-111.5 1275,-111.5 1281,-111.5 1287,-117.5 1287,-123.5 1287,-123.5 1287,-167.5 1287,-167.5 1287,-173.5 1281,-179.5 1275,-179.5"/>
<text text-anchor="start" x="1186.5" y="-164.3" font-family="Helvetica,sans-Serif" font-size="14.00">gini = 0.0</text>
<text text-anchor="start" x="1172" y="-149.3" font-family="Helvetica,sans-Serif" font-size="14.00">samples = 22</text>
<text text-anchor="start" x="1171" y="-134.3" font-family="Helvetica,sans-Serif" font-size="14.00">value = [22, 0]</text>
<text text-anchor="start" x="1152" y="-119.3" font-family="Helvetica,sans-Serif" font-size="14.00">class = Low Renew.</text>
</g>
<!-- 18&#45;&gt;20 -->
<g id="edge20" class="edge">
<title>18&#45;&gt;20</title>
<path fill="none" stroke="black" d="M1203.75,-222.91C1205.39,-212.2 1207.17,-200.62 1208.84,-189.78"/>
<polygon fill="black" stroke="black" points="1212.34,-190.08 1210.4,-179.67 1205.42,-189.02 1212.34,-190.08"/>
</g>
<!-- 22 -->
<g id="node23" class="node">
<title>22</title>
<path fill="#fcf2eb" stroke="black" d="M1436,-187C1436,-187 1317,-187 1317,-187 1311,-187 1305,-181 1305,-175 1305,-175 1305,-116 1305,-116 1305,-110 1311,-104 1317,-104 1317,-104 1436,-104 1436,-104 1442,-104 1448,-110 1448,-116 1448,-116 1448,-175 1448,-175 1448,-181 1442,-187 1436,-187"/>
<text text-anchor="start" x="1325.5" y="-171.8" font-family="Helvetica,sans-Serif" font-size="14.00">SOLAR ≤ 0.767</text>
<text text-anchor="start" x="1339" y="-156.8" font-family="Helvetica,sans-Serif" font-size="14.00">gini = 0.499</text>
<text text-anchor="start" x="1333" y="-141.8" font-family="Helvetica,sans-Serif" font-size="14.00">samples = 57</text>
<text text-anchor="start" x="1328" y="-126.8" font-family="Helvetica,sans-Serif" font-size="14.00">value = [30, 27]</text>
<text text-anchor="start" x="1313" y="-111.8" font-family="Helvetica,sans-Serif" font-size="14.00">class = Low Renew.</text>
</g>
<!-- 21&#45;&gt;22 -->
<g id="edge22" class="edge">
<title>21&#45;&gt;22</title>
<path fill="none" stroke="black" d="M1388.25,-222.91C1386.97,-214.56 1385.6,-205.67 1384.27,-197.02"/>
<polygon fill="black" stroke="black" points="1387.71,-196.37 1382.73,-187.02 1380.8,-197.44 1387.71,-196.37"/>
</g>
<!-- 25 -->
<g id="node26" class="node">
<title>25</title>
<path fill="#efb286" stroke="black" d="M1598,-187C1598,-187 1479,-187 1479,-187 1473,-187 1467,-181 1467,-175 1467,-175 1467,-116 1467,-116 1467,-110 1473,-104 1479,-104 1479,-104 1598,-104 1598,-104 1604,-104 1610,-110 1610,-116 1610,-116 1610,-175 1610,-175 1610,-181 1604,-187 1598,-187"/>
<text text-anchor="start" x="1497" y="-171.8" font-family="Helvetica,sans-Serif" font-size="14.00">CCS ≤ 1.261</text>
<text text-anchor="start" x="1501" y="-156.8" font-family="Helvetica,sans-Serif" font-size="14.00">gini = 0.404</text>
<text text-anchor="start" x="1491" y="-141.8" font-family="Helvetica,sans-Serif" font-size="14.00">samples = 160</text>
<text text-anchor="start" x="1485.5" y="-126.8" font-family="Helvetica,sans-Serif" font-size="14.00">value = [115, 45]</text>
<text text-anchor="start" x="1475" y="-111.8" font-family="Helvetica,sans-Serif" font-size="14.00">class = Low Renew.</text>
</g>
<!-- 21&#45;&gt;25 -->
<g id="edge25" class="edge">
<title>21&#45;&gt;25</title>
<path fill="none" stroke="black" d="M1444.46,-222.91C1456.19,-213.38 1468.78,-203.15 1480.81,-193.37"/>
<polygon fill="black" stroke="black" points="1483.07,-196.04 1488.63,-187.02 1478.66,-190.61 1483.07,-196.04"/>
</g>
<!-- 23 -->
<g id="node24" class="node">
<title>23</title>
<path fill="#f6d5bd" stroke="black" d="M1272,-68C1272,-68 1153,-68 1153,-68 1147,-68 1141,-62 1141,-56 1141,-56 1141,-12 1141,-12 1141,-6 1147,0 1153,0 1153,0 1272,0 1272,0 1278,0 1284,-6 1284,-12 1284,-12 1284,-56 1284,-56 1284,-62 1278,-68 1272,-68"/>
<text text-anchor="start" x="1179" y="-52.8" font-family="Helvetica,sans-Serif" font-size="14.00">gini = 0.48</text>
<text text-anchor="start" x="1169" y="-37.8" font-family="Helvetica,sans-Serif" font-size="14.00">samples = 50</text>
<text text-anchor="start" x="1164" y="-22.8" font-family="Helvetica,sans-Serif" font-size="14.00">value = [30, 20]</text>
<text text-anchor="start" x="1149" y="-7.8" font-family="Helvetica,sans-Serif" font-size="14.00">class = Low Renew.</text>
</g>
<!-- 22&#45;&gt;23 -->
<g id="edge23" class="edge">
<title>22&#45;&gt;23</title>
<path fill="none" stroke="black" d="M1315.43,-103.73C1300.74,-93.92 1285.09,-83.46 1270.54,-73.75"/>
<polygon fill="black" stroke="black" points="1272.37,-70.77 1262.11,-68.13 1268.49,-76.59 1272.37,-70.77"/>
</g>
<!-- 24 -->
<g id="node25" class="node">
<title>24</title>
<path fill="#399de5" stroke="black" d="M1436.5,-68C1436.5,-68 1314.5,-68 1314.5,-68 1308.5,-68 1302.5,-62 1302.5,-56 1302.5,-56 1302.5,-12 1302.5,-12 1302.5,-6 1308.5,0 1314.5,0 1314.5,0 1436.5,0 1436.5,0 1442.5,0 1448.5,-6 1448.5,-12 1448.5,-12 1448.5,-56 1448.5,-56 1448.5,-62 1442.5,-68 1436.5,-68"/>
<text text-anchor="start" x="1346.5" y="-52.8" font-family="Helvetica,sans-Serif" font-size="14.00">gini = 0.0</text>
<text text-anchor="start" x="1336" y="-37.8" font-family="Helvetica,sans-Serif" font-size="14.00">samples = 7</text>
<text text-anchor="start" x="1335" y="-22.8" font-family="Helvetica,sans-Serif" font-size="14.00">value = [0, 7]</text>
<text text-anchor="start" x="1310.5" y="-7.8" font-family="Helvetica,sans-Serif" font-size="14.00">class = High Renew.</text>
</g>
<!-- 22&#45;&gt;24 -->
<g id="edge24" class="edge">
<title>22&#45;&gt;24</title>
<path fill="none" stroke="black" d="M1376.13,-103.73C1376.05,-95.52 1375.97,-86.86 1375.9,-78.56"/>
<polygon fill="black" stroke="black" points="1379.4,-78.27 1375.8,-68.3 1372.4,-78.33 1379.4,-78.27"/>
</g>
<!-- 26 -->
<g id="node27" class="node">
<title>26</title>
<path fill="#eeab7b" stroke="black" d="M1598,-68C1598,-68 1479,-68 1479,-68 1473,-68 1467,-62 1467,-56 1467,-56 1467,-12 1467,-12 1467,-6 1473,0 1479,0 1479,0 1598,0 1598,0 1604,0 1610,-6 1610,-12 1610,-12 1610,-56 1610,-56 1610,-62 1604,-68 1598,-68"/>
<text text-anchor="start" x="1501" y="-52.8" font-family="Helvetica,sans-Serif" font-size="14.00">gini = 0.375</text>
<text text-anchor="start" x="1491" y="-37.8" font-family="Helvetica,sans-Serif" font-size="14.00">samples = 144</text>
<text text-anchor="start" x="1485.5" y="-22.8" font-family="Helvetica,sans-Serif" font-size="14.00">value = [108, 36]</text>
<text text-anchor="start" x="1475" y="-7.8" font-family="Helvetica,sans-Serif" font-size="14.00">class = Low Renew.</text>
</g>
<!-- 25&#45;&gt;26 -->
<g id="edge26" class="edge">
<title>25&#45;&gt;26</title>
<path fill="none" stroke="black" d="M1538.5,-103.73C1538.5,-95.52 1538.5,-86.86 1538.5,-78.56"/>
<polygon fill="black" stroke="black" points="1542,-78.3 1538.5,-68.3 1535,-78.3 1542,-78.3"/>
</g>
<!-- 27 -->
<g id="node28" class="node">
<title>27</title>
<path fill="#d3e9f9" stroke="black" d="M1762.5,-68C1762.5,-68 1640.5,-68 1640.5,-68 1634.5,-68 1628.5,-62 1628.5,-56 1628.5,-56 1628.5,-12 1628.5,-12 1628.5,-6 1634.5,0 1640.5,0 1640.5,0 1762.5,0 1762.5,0 1768.5,0 1774.5,-6 1774.5,-12 1774.5,-12 1774.5,-56 1774.5,-56 1774.5,-62 1768.5,-68 1762.5,-68"/>
<text text-anchor="start" x="1664" y="-52.8" font-family="Helvetica,sans-Serif" font-size="14.00">gini = 0.492</text>
<text text-anchor="start" x="1658" y="-37.8" font-family="Helvetica,sans-Serif" font-size="14.00">samples = 16</text>
<text text-anchor="start" x="1661" y="-22.8" font-family="Helvetica,sans-Serif" font-size="14.00">value = [7, 9]</text>
<text text-anchor="start" x="1636.5" y="-7.8" font-family="Helvetica,sans-Serif" font-size="14.00">class = High Renew.</text>
</g>
<!-- 25&#45;&gt;27 -->
<g id="edge27" class="edge">
<title>25&#45;&gt;27</title>
<path fill="none" stroke="black" d="M1599.2,-103.73C1613.8,-93.92 1629.36,-83.46 1643.82,-73.75"/>
<polygon fill="black" stroke="black" points="1645.84,-76.61 1652.19,-68.13 1641.94,-70.8 1645.84,-76.61"/>
</g>
<!-- 29 -->
<g id="node30" class="node">
<title>29</title>
<path fill="#399de5" stroke="black" d="M1696.5,-298.5C1696.5,-298.5 1574.5,-298.5 1574.5,-298.5 1568.5,-298.5 1562.5,-292.5 1562.5,-286.5 1562.5,-286.5 1562.5,-242.5 1562.5,-242.5 1562.5,-236.5 1568.5,-230.5 1574.5,-230.5 1574.5,-230.5 1696.5,-230.5 1696.5,-230.5 1702.5,-230.5 1708.5,-236.5 1708.5,-242.5 1708.5,-242.5 1708.5,-286.5 1708.5,-286.5 1708.5,-292.5 1702.5,-298.5 1696.5,-298.5"/>
<text text-anchor="start" x="1606.5" y="-283.3" font-family="Helvetica,sans-Serif" font-size="14.00">gini = 0.0</text>
<text text-anchor="start" x="1596" y="-268.3" font-family="Helvetica,sans-Serif" font-size="14.00">samples = 1</text>
<text text-anchor="start" x="1595" y="-253.3" font-family="Helvetica,sans-Serif" font-size="14.00">value = [0, 1]</text>
<text text-anchor="start" x="1570.5" y="-238.3" font-family="Helvetica,sans-Serif" font-size="14.00">class = High Renew.</text>
</g>
<!-- 28&#45;&gt;29 -->
<g id="edge29" class="edge">
<title>28&#45;&gt;29</title>
<path fill="none" stroke="black" d="M1635.5,-341.91C1635.5,-331.2 1635.5,-319.62 1635.5,-308.78"/>
<polygon fill="black" stroke="black" points="1639,-308.67 1635.5,-298.67 1632,-308.67 1639,-308.67"/>
</g>
<!-- 30 -->
<g id="node31" class="node">
<title>30</title>
<path fill="#e78a47" stroke="black" d="M2010.5,-306C2010.5,-306 1880.5,-306 1880.5,-306 1874.5,-306 1868.5,-300 1868.5,-294 1868.5,-294 1868.5,-235 1868.5,-235 1868.5,-229 1874.5,-223 1880.5,-223 1880.5,-223 2010.5,-223 2010.5,-223 2016.5,-223 2022.5,-229 2022.5,-235 2022.5,-235 2022.5,-294 2022.5,-294 2022.5,-300 2016.5,-306 2010.5,-306"/>
<text text-anchor="start" x="1876.5" y="-290.8" font-family="Helvetica,sans-Serif" font-size="14.00">BIOENERGY ≤ 0.737</text>
<text text-anchor="start" x="1908" y="-275.8" font-family="Helvetica,sans-Serif" font-size="14.00">gini = 0.127</text>
<text text-anchor="start" x="1898" y="-260.8" font-family="Helvetica,sans-Serif" font-size="14.00">samples = 103</text>
<text text-anchor="start" x="1901" y="-245.8" font-family="Helvetica,sans-Serif" font-size="14.00">value = [96, 7]</text>
<text text-anchor="start" x="1882" y="-230.8" font-family="Helvetica,sans-Serif" font-size="14.00">class = Low Renew.</text>
</g>
<!-- 28&#45;&gt;30 -->
<g id="edge30" class="edge">
<title>28&#45;&gt;30</title>
<path fill="none" stroke="black" d="M1707.01,-355.51C1752.27,-338.43 1811.07,-316.24 1858.96,-298.16"/>
<polygon fill="black" stroke="black" points="1860.26,-301.41 1868.38,-294.61 1857.79,-294.86 1860.26,-301.41"/>
</g>
<!-- 31 -->
<g id="node32" class="node">
<title>31</title>
<path fill="#f6d5bd" stroke="black" d="M2005,-187C2005,-187 1886,-187 1886,-187 1880,-187 1874,-181 1874,-175 1874,-175 1874,-116 1874,-116 1874,-110 1880,-104 1886,-104 1886,-104 2005,-104 2005,-104 2011,-104 2017,-110 2017,-116 2017,-116 2017,-175 2017,-175 2017,-181 2011,-187 2005,-187"/>
<text text-anchor="start" x="1904" y="-171.8" font-family="Helvetica,sans-Serif" font-size="14.00">CCS ≤ 1.056</text>
<text text-anchor="start" x="1912" y="-156.8" font-family="Helvetica,sans-Serif" font-size="14.00">gini = 0.48</text>
<text text-anchor="start" x="1906" y="-141.8" font-family="Helvetica,sans-Serif" font-size="14.00">samples = 5</text>
<text text-anchor="start" x="1905" y="-126.8" font-family="Helvetica,sans-Serif" font-size="14.00">value = [3, 2]</text>
<text text-anchor="start" x="1882" y="-111.8" font-family="Helvetica,sans-Serif" font-size="14.00">class = Low Renew.</text>
</g>
<!-- 30&#45;&gt;31 -->
<g id="edge31" class="edge">
<title>30&#45;&gt;31</title>
<path fill="none" stroke="black" d="M1945.5,-222.91C1945.5,-214.65 1945.5,-205.86 1945.5,-197.3"/>
<polygon fill="black" stroke="black" points="1949,-197.02 1945.5,-187.02 1942,-197.02 1949,-197.02"/>
</g>
<!-- 34 -->
<g id="node35" class="node">
<title>34</title>
<path fill="#e68844" stroke="black" d="M2250,-187C2250,-187 2131,-187 2131,-187 2125,-187 2119,-181 2119,-175 2119,-175 2119,-116 2119,-116 2119,-110 2125,-104 2131,-104 2131,-104 2250,-104 2250,-104 2256,-104 2262,-110 2262,-116 2262,-116 2262,-175 2262,-175 2262,-181 2256,-187 2250,-187"/>
<text text-anchor="start" x="2148.5" y="-171.8" font-family="Helvetica,sans-Serif" font-size="14.00">GDP ≤ 1.208</text>
<text text-anchor="start" x="2153" y="-156.8" font-family="Helvetica,sans-Serif" font-size="14.00">gini = 0.097</text>
<text text-anchor="start" x="2147" y="-141.8" font-family="Helvetica,sans-Serif" font-size="14.00">samples = 98</text>
<text text-anchor="start" x="2146" y="-126.8" font-family="Helvetica,sans-Serif" font-size="14.00">value = [93, 5]</text>
<text text-anchor="start" x="2127" y="-111.8" font-family="Helvetica,sans-Serif" font-size="14.00">class = Low Renew.</text>
</g>
<!-- 30&#45;&gt;34 -->
<g id="edge34" class="edge">
<title>30&#45;&gt;34</title>
<path fill="none" stroke="black" d="M2022.68,-226.64C2050.28,-213.46 2081.45,-198.58 2109.37,-185.24"/>
<polygon fill="black" stroke="black" points="2111.19,-188.25 2118.71,-180.79 2108.17,-181.94 2111.19,-188.25"/>
</g>
<!-- 32 -->
<g id="node33" class="node">
<title>32</title>
<path fill="#e58139" stroke="black" d="M1924,-68C1924,-68 1805,-68 1805,-68 1799,-68 1793,-62 1793,-56 1793,-56 1793,-12 1793,-12 1793,-6 1799,0 1805,0 1805,0 1924,0 1924,0 1930,0 1936,-6 1936,-12 1936,-12 1936,-56 1936,-56 1936,-62 1930,-68 1924,-68"/>
<text text-anchor="start" x="1835.5" y="-52.8" font-family="Helvetica,sans-Serif" font-size="14.00">gini = 0.0</text>
<text text-anchor="start" x="1825" y="-37.8" font-family="Helvetica,sans-Serif" font-size="14.00">samples = 3</text>
<text text-anchor="start" x="1824" y="-22.8" font-family="Helvetica,sans-Serif" font-size="14.00">value = [3, 0]</text>
<text text-anchor="start" x="1801" y="-7.8" font-family="Helvetica,sans-Serif" font-size="14.00">class = Low Renew.</text>
</g>
<!-- 31&#45;&gt;32 -->
<g id="edge32" class="edge">
<title>31&#45;&gt;32</title>
<path fill="none" stroke="black" d="M1915.34,-103.73C1908.73,-94.79 1901.72,-85.32 1895.09,-76.36"/>
<polygon fill="black" stroke="black" points="1897.89,-74.26 1889.13,-68.3 1892.27,-78.42 1897.89,-74.26"/>
</g>
<!-- 33 -->
<g id="node34" class="node">
<title>33</title>
<path fill="#399de5" stroke="black" d="M2088.5,-68C2088.5,-68 1966.5,-68 1966.5,-68 1960.5,-68 1954.5,-62 1954.5,-56 1954.5,-56 1954.5,-12 1954.5,-12 1954.5,-6 1960.5,0 1966.5,0 1966.5,0 2088.5,0 2088.5,0 2094.5,0 2100.5,-6 2100.5,-12 2100.5,-12 2100.5,-56 2100.5,-56 2100.5,-62 2094.5,-68 2088.5,-68"/>
<text text-anchor="start" x="1998.5" y="-52.8" font-family="Helvetica,sans-Serif" font-size="14.00">gini = 0.0</text>
<text text-anchor="start" x="1988" y="-37.8" font-family="Helvetica,sans-Serif" font-size="14.00">samples = 2</text>
<text text-anchor="start" x="1987" y="-22.8" font-family="Helvetica,sans-Serif" font-size="14.00">value = [0, 2]</text>
<text text-anchor="start" x="1962.5" y="-7.8" font-family="Helvetica,sans-Serif" font-size="14.00">class = High Renew.</text>
</g>
<!-- 31&#45;&gt;33 -->
<g id="edge33" class="edge">
<title>31&#45;&gt;33</title>
<path fill="none" stroke="black" d="M1976.03,-103.73C1982.73,-94.79 1989.82,-85.32 1996.53,-76.36"/>
<polygon fill="black" stroke="black" points="1999.37,-78.4 2002.56,-68.3 1993.77,-74.21 1999.37,-78.4"/>
</g>
<!-- 35 -->
<g id="node36" class="node">
<title>35</title>
<path fill="#e68642" stroke="black" d="M2250,-68C2250,-68 2131,-68 2131,-68 2125,-68 2119,-62 2119,-56 2119,-56 2119,-12 2119,-12 2119,-6 2125,0 2131,0 2131,0 2250,0 2250,0 2256,0 2262,-6 2262,-12 2262,-12 2262,-56 2262,-56 2262,-62 2256,-68 2250,-68"/>
<text text-anchor="start" x="2157" y="-52.8" font-family="Helvetica,sans-Serif" font-size="14.00">gini = 0.08</text>
<text text-anchor="start" x="2147" y="-37.8" font-family="Helvetica,sans-Serif" font-size="14.00">samples = 96</text>
<text text-anchor="start" x="2146" y="-22.8" font-family="Helvetica,sans-Serif" font-size="14.00">value = [92, 4]</text>
<text text-anchor="start" x="2127" y="-7.8" font-family="Helvetica,sans-Serif" font-size="14.00">class = Low Renew.</text>
</g>
<!-- 34&#45;&gt;35 -->
<g id="edge35" class="edge">
<title>34&#45;&gt;35</title>
<path fill="none" stroke="black" d="M2190.5,-103.73C2190.5,-95.52 2190.5,-86.86 2190.5,-78.56"/>
<polygon fill="black" stroke="black" points="2194,-78.3 2190.5,-68.3 2187,-78.3 2194,-78.3"/>
</g>
<!-- 36 -->
<g id="node37" class="node">
<title>36</title>
<path fill="#ffffff" stroke="black" d="M2411,-68C2411,-68 2292,-68 2292,-68 2286,-68 2280,-62 2280,-56 2280,-56 2280,-12 2280,-12 2280,-6 2286,0 2292,0 2292,0 2411,0 2411,0 2417,0 2423,-6 2423,-12 2423,-12 2423,-56 2423,-56 2423,-62 2417,-68 2411,-68"/>
<text text-anchor="start" x="2322.5" y="-52.8" font-family="Helvetica,sans-Serif" font-size="14.00">gini = 0.5</text>
<text text-anchor="start" x="2312" y="-37.8" font-family="Helvetica,sans-Serif" font-size="14.00">samples = 2</text>
<text text-anchor="start" x="2311" y="-22.8" font-family="Helvetica,sans-Serif" font-size="14.00">value = [1, 1]</text>
<text text-anchor="start" x="2288" y="-7.8" font-family="Helvetica,sans-Serif" font-size="14.00">class = Low Renew.</text>
</g>
<!-- 34&#45;&gt;36 -->
<g id="edge36" class="edge">
<title>34&#45;&gt;36</title>
<path fill="none" stroke="black" d="M2250.45,-103.73C2264.87,-93.92 2280.24,-83.46 2294.53,-73.75"/>
<polygon fill="black" stroke="black" points="2296.49,-76.64 2302.8,-68.13 2292.56,-70.85 2296.49,-76.64"/>
</g>
</g>
</svg>
