<?xml version="1.0" encoding="UTF-8" standalone="no"?>
<!DOCTYPE svg PUBLIC "-//W3C//DTD SVG 1.1//EN"
 "http://www.w3.org/Graphics/SVG/1.1/DTD/svg11.dtd">
<!-- Generated by graphviz version 6.0.1 (20220911.1526)
 -->
<!-- Title: Tree Pages: 1 -->
<svg width="644pt" height="433pt"
 viewBox="0.00 0.00 643.50 433.00" xmlns="http://www.w3.org/2000/svg" xmlns:xlink="http://www.w3.org/1999/xlink">
<g id="graph0" class="graph" transform="scale(1 1) rotate(0) translate(4 429)">
<title>Tree</title>
<polygon fill="white" stroke="none" points="-4,4 -4,-429 639.5,-429 639.5,4 -4,4"/>
<!-- 0 -->
<g id="node1" class="node">
<title>0</title>
<path fill="#f0b78e" stroke="black" d="M378.5,-425C378.5,-425 259.5,-425 259.5,-425 253.5,-425 247.5,-419 247.5,-413 247.5,-413 247.5,-354 247.5,-354 247.5,-348 253.5,-342 259.5,-342 259.5,-342 378.5,-342 378.5,-342 384.5,-342 390.5,-348 390.5,-354 390.5,-354 390.5,-413 390.5,-413 390.5,-419 384.5,-425 378.5,-425"/>
<text text-anchor="start" x="263" y="-409.8" font-family="Helvetica,sans-Serif" font-size="14.00">WindGas ≤ 0.789</text>
<text text-anchor="start" x="285.5" y="-394.8" font-family="Helvetica,sans-Serif" font-size="14.00">gini = 0.42</text>
<text text-anchor="start" x="271.5" y="-379.8" font-family="Helvetica,sans-Serif" font-size="14.00">samples = 394</text>
<text text-anchor="start" x="262" y="-364.8" font-family="Helvetica,sans-Serif" font-size="14.00">value = [276, 118]</text>
<text text-anchor="start" x="255.5" y="-349.8" font-family="Helvetica,sans-Serif" font-size="14.00">class = Low Renew.</text>
</g>
<!-- 1 -->
<g id="node2" class="node">
<title>1</title>
<path fill="#6fb8ec" stroke="black" d="M298,-306C298,-306 176,-306 176,-306 170,-306 164,-300 164,-294 164,-294 164,-235 164,-235 164,-229 170,-223 176,-223 176,-223 298,-223 298,-223 304,-223 310,-229 310,-235 310,-235 310,-294 310,-294 310,-300 304,-306 298,-306"/>
<text text-anchor="start" x="200.5" y="-290.8" font-family="Helvetica,sans-Serif" font-size="14.00">Bio ≤ 0.769</text>
<text text-anchor="start" x="199.5" y="-275.8" font-family="Helvetica,sans-Serif" font-size="14.00">gini = 0.337</text>
<text text-anchor="start" x="189.5" y="-260.8" font-family="Helvetica,sans-Serif" font-size="14.00">samples = 107</text>
<text text-anchor="start" x="188.5" y="-245.8" font-family="Helvetica,sans-Serif" font-size="14.00">value = [23, 84]</text>
<text text-anchor="start" x="172" y="-230.8" font-family="Helvetica,sans-Serif" font-size="14.00">class = High Renew.</text>
</g>
<!-- 0&#45;&gt;1 -->
<g id="edge1" class="edge">
<title>0&#45;&gt;1</title>
<path fill="none" stroke="black" d="M290.55,-341.91C284.32,-333.01 277.66,-323.51 271.22,-314.33"/>
<polygon fill="black" stroke="black" points="274,-312.2 265.4,-306.02 268.27,-316.22 274,-312.2"/>
<text text-anchor="middle" x="261.07" y="-326.94" font-family="Helvetica,sans-Serif" font-size="14.00">True</text>
</g>
<!-- 2 -->
<g id="node5" class="node">
<title>2</title>
<path fill="#e89254" stroke="black" d="M460.5,-306C460.5,-306 341.5,-306 341.5,-306 335.5,-306 329.5,-300 329.5,-294 329.5,-294 329.5,-235 329.5,-235 329.5,-229 335.5,-223 341.5,-223 341.5,-223 460.5,-223 460.5,-223 466.5,-223 472.5,-229 472.5,-235 472.5,-235 472.5,-294 472.5,-294 472.5,-300 466.5,-306 460.5,-306"/>
<text text-anchor="start" x="348" y="-290.8" font-family="Helvetica,sans-Serif" font-size="14.00">WindBio ≤ 0.543</text>
<text text-anchor="start" x="363.5" y="-275.8" font-family="Helvetica,sans-Serif" font-size="14.00">gini = 0.209</text>
<text text-anchor="start" x="353.5" y="-260.8" font-family="Helvetica,sans-Serif" font-size="14.00">samples = 287</text>
<text text-anchor="start" x="348" y="-245.8" font-family="Helvetica,sans-Serif" font-size="14.00">value = [253, 34]</text>
<text text-anchor="start" x="337.5" y="-230.8" font-family="Helvetica,sans-Serif" font-size="14.00">class = Low Renew.</text>
</g>
<!-- 0&#45;&gt;2 -->
<g id="edge4" class="edge">
<title>0&#45;&gt;2</title>
<path fill="none" stroke="black" d="M347.45,-341.91C353.68,-333.01 360.34,-323.51 366.78,-314.33"/>
<polygon fill="black" stroke="black" points="369.73,-316.22 372.6,-306.02 364,-312.2 369.73,-316.22"/>
<text text-anchor="middle" x="376.93" y="-326.94" font-family="Helvetica,sans-Serif" font-size="14.00">False</text>
</g>
<!-- 7 -->
<g id="node3" class="node">
<title>7</title>
<path fill="#e5f2fc" stroke="black" d="M134,-179.5C134,-179.5 12,-179.5 12,-179.5 6,-179.5 0,-173.5 0,-167.5 0,-167.5 0,-123.5 0,-123.5 0,-117.5 6,-111.5 12,-111.5 12,-111.5 134,-111.5 134,-111.5 140,-111.5 146,-117.5 146,-123.5 146,-123.5 146,-167.5 146,-167.5 146,-173.5 140,-179.5 134,-179.5"/>
<text text-anchor="start" x="35.5" y="-164.3" font-family="Helvetica,sans-Serif" font-size="14.00">gini = 0.497</text>
<text text-anchor="start" x="29.5" y="-149.3" font-family="Helvetica,sans-Serif" font-size="14.00">samples = 28</text>
<text text-anchor="start" x="24.5" y="-134.3" font-family="Helvetica,sans-Serif" font-size="14.00">value = [13, 15]</text>
<text text-anchor="start" x="8" y="-119.3" font-family="Helvetica,sans-Serif" font-size="14.00">class = High Renew.</text>
</g>
<!-- 1&#45;&gt;7 -->
<g id="edge2" class="edge">
<title>1&#45;&gt;7</title>
<path fill="none" stroke="black" d="M180.1,-222.91C163.24,-210.88 144.82,-197.73 128.07,-185.79"/>
<polygon fill="black" stroke="black" points="129.66,-182.63 119.49,-179.67 125.6,-188.32 129.66,-182.63"/>
</g>
<!-- 8 -->
<g id="node4" class="node">
<title>8</title>
<path fill="#56abe9" stroke="black" d="M298,-179.5C298,-179.5 176,-179.5 176,-179.5 170,-179.5 164,-173.5 164,-167.5 164,-167.5 164,-123.5 164,-123.5 164,-117.5 170,-111.5 176,-111.5 176,-111.5 298,-111.5 298,-111.5 304,-111.5 310,-117.5 310,-123.5 310,-123.5 310,-167.5 310,-167.5 310,-173.5 304,-179.5 298,-179.5"/>
<text text-anchor="start" x="199.5" y="-164.3" font-family="Helvetica,sans-Serif" font-size="14.00">gini = 0.221</text>
<text text-anchor="start" x="193.5" y="-149.3" font-family="Helvetica,sans-Serif" font-size="14.00">samples = 79</text>
<text text-anchor="start" x="188.5" y="-134.3" font-family="Helvetica,sans-Serif" font-size="14.00">value = [10, 69]</text>
<text text-anchor="start" x="172" y="-119.3" font-family="Helvetica,sans-Serif" font-size="14.00">class = High Renew.</text>
</g>
<!-- 1&#45;&gt;8 -->
<g id="edge3" class="edge">
<title>1&#45;&gt;8</title>
<path fill="none" stroke="black" d="M237,-222.91C237,-212.2 237,-200.62 237,-189.78"/>
<polygon fill="black" stroke="black" points="240.5,-189.67 237,-179.67 233.5,-189.67 240.5,-189.67"/>
</g>
<!-- 3 -->
<g id="node6" class="node">
<title>3</title>
<path fill="#91c9f1" stroke="black" d="M462,-187C462,-187 340,-187 340,-187 334,-187 328,-181 328,-175 328,-175 328,-116 328,-116 328,-110 334,-104 340,-104 340,-104 462,-104 462,-104 468,-104 474,-110 474,-116 474,-116 474,-175 474,-175 474,-181 468,-187 462,-187"/>
<text text-anchor="start" x="364.5" y="-171.8" font-family="Helvetica,sans-Serif" font-size="14.00">Bio ≤ 0.771</text>
<text text-anchor="start" x="363.5" y="-156.8" font-family="Helvetica,sans-Serif" font-size="14.00">gini = 0.426</text>
<text text-anchor="start" x="357.5" y="-141.8" font-family="Helvetica,sans-Serif" font-size="14.00">samples = 39</text>
<text text-anchor="start" x="352.5" y="-126.8" font-family="Helvetica,sans-Serif" font-size="14.00">value = [12, 27]</text>
<text text-anchor="start" x="336" y="-111.8" font-family="Helvetica,sans-Serif" font-size="14.00">class = High Renew.</text>
</g>
<!-- 2&#45;&gt;3 -->
<g id="edge5" class="edge">
<title>2&#45;&gt;3</title>
<path fill="none" stroke="black" d="M401,-222.91C401,-214.65 401,-205.86 401,-197.3"/>
<polygon fill="black" stroke="black" points="404.5,-197.02 401,-187.02 397.5,-197.02 404.5,-197.02"/>
</g>
<!-- 4 -->
<g id="node9" class="node">
<title>4</title>
<path fill="#e6853f" stroke="black" d="M623.5,-179.5C623.5,-179.5 504.5,-179.5 504.5,-179.5 498.5,-179.5 492.5,-173.5 492.5,-167.5 492.5,-167.5 492.5,-123.5 492.5,-123.5 492.5,-117.5 498.5,-111.5 504.5,-111.5 504.5,-111.5 623.5,-111.5 623.5,-111.5 629.5,-111.5 635.5,-117.5 635.5,-123.5 635.5,-123.5 635.5,-167.5 635.5,-167.5 635.5,-173.5 629.5,-179.5 623.5,-179.5"/>
<text text-anchor="start" x="526.5" y="-164.3" font-family="Helvetica,sans-Serif" font-size="14.00">gini = 0.055</text>
<text text-anchor="start" x="516.5" y="-149.3" font-family="Helvetica,sans-Serif" font-size="14.00">samples = 248</text>
<text text-anchor="start" x="515.5" y="-134.3" font-family="Helvetica,sans-Serif" font-size="14.00">value = [241, 7]</text>
<text text-anchor="start" x="500.5" y="-119.3" font-family="Helvetica,sans-Serif" font-size="14.00">class = Low Renew.</text>
</g>
<!-- 2&#45;&gt;4 -->
<g id="edge8" class="edge">
<title>2&#45;&gt;4</title>
<path fill="none" stroke="black" d="M457.55,-222.91C474.31,-210.88 492.62,-197.73 509.26,-185.79"/>
<polygon fill="black" stroke="black" points="511.71,-188.34 517.79,-179.67 507.63,-182.65 511.71,-188.34"/>
</g>
<!-- 5 -->
<g id="node7" class="node">
<title>5</title>
<path fill="#eca572" stroke="black" d="M378.5,-68C378.5,-68 259.5,-68 259.5,-68 253.5,-68 247.5,-62 247.5,-56 247.5,-56 247.5,-12 247.5,-12 247.5,-6 253.5,0 259.5,0 259.5,0 378.5,0 378.5,0 384.5,0 390.5,-6 390.5,-12 390.5,-12 390.5,-56 390.5,-56 390.5,-62 384.5,-68 378.5,-68"/>
<text text-anchor="start" x="281.5" y="-52.8" font-family="Helvetica,sans-Serif" font-size="14.00">gini = 0.346</text>
<text text-anchor="start" x="279.5" y="-37.8" font-family="Helvetica,sans-Serif" font-size="14.00">samples = 9</text>
<text text-anchor="start" x="278.5" y="-22.8" font-family="Helvetica,sans-Serif" font-size="14.00">value = [7, 2]</text>
<text text-anchor="start" x="255.5" y="-7.8" font-family="Helvetica,sans-Serif" font-size="14.00">class = Low Renew.</text>
</g>
<!-- 3&#45;&gt;5 -->
<g id="edge6" class="edge">
<title>3&#45;&gt;5</title>
<path fill="none" stroke="black" d="M370.47,-103.73C363.77,-94.79 356.68,-85.32 349.97,-76.36"/>
<polygon fill="black" stroke="black" points="352.73,-74.21 343.94,-68.3 347.13,-78.4 352.73,-74.21"/>
</g>
<!-- 6 -->
<g id="node8" class="node">
<title>6</title>
<path fill="#61b1ea" stroke="black" d="M543,-68C543,-68 421,-68 421,-68 415,-68 409,-62 409,-56 409,-56 409,-12 409,-12 409,-6 415,0 421,0 421,0 543,0 543,0 549,0 555,-6 555,-12 555,-12 555,-56 555,-56 555,-62 549,-68 543,-68"/>
<text text-anchor="start" x="444.5" y="-52.8" font-family="Helvetica,sans-Serif" font-size="14.00">gini = 0.278</text>
<text text-anchor="start" x="438.5" y="-37.8" font-family="Helvetica,sans-Serif" font-size="14.00">samples = 30</text>
<text text-anchor="start" x="437.5" y="-22.8" font-family="Helvetica,sans-Serif" font-size="14.00">value = [5, 25]</text>
<text text-anchor="start" x="417" y="-7.8" font-family="Helvetica,sans-Serif" font-size="14.00">class = High Renew.</text>
</g>
<!-- 3&#45;&gt;6 -->
<g id="edge7" class="edge">
<title>3&#45;&gt;6</title>
<path fill="none" stroke="black" d="M431.16,-103.73C437.77,-94.79 444.78,-85.32 451.41,-76.36"/>
<polygon fill="black" stroke="black" points="454.23,-78.42 457.37,-68.3 448.61,-74.26 454.23,-78.42"/>
</g>
</g>
</svg>
