<?xml version="1.0" encoding="utf-8" standalone="no"?>
<!DOCTYPE svg PUBLIC "-//W3C//DTD SVG 1.1//EN"
  "http://www.w3.org/Graphics/SVG/1.1/DTD/svg11.dtd">
<svg xmlns:xlink="http://www.w3.org/1999/xlink" width="460.8pt" height="345.6pt" viewBox="0 0 460.8 345.6" xmlns="http://www.w3.org/2000/svg" version="1.1">
 <metadata>
  <rdf:RDF xmlns:dc="http://purl.org/dc/elements/1.1/" xmlns:cc="http://creativecommons.org/ns#" xmlns:rdf="http://www.w3.org/1999/02/22-rdf-syntax-ns#">
   <cc:Work>
    <dc:type rdf:resource="http://purl.org/dc/dcmitype/StillImage"/>
    <dc:date>2022-12-06T23:02:07.851752</dc:date>
    <dc:format>image/svg+xml</dc:format>
    <dc:creator>
     <cc:Agent>
      <dc:title>Matplotlib v3.5.2, https://matplotlib.org/</dc:title>
     </cc:Agent>
    </dc:creator>
   </cc:Work>
  </rdf:RDF>
 </metadata>
 <defs>
  <style type="text/css">*{stroke-linejoin: round; stroke-linecap: butt}</style>
 </defs>
 <g id="figure_1">
  <g id="patch_1">
   <path d="M 0 345.6 
L 460.8 345.6 
L 460.8 0 
L 0 0 
z
" style="fill: #ffffff"/>
  </g>
  <g id="axes_1">
   <g id="patch_2">
    <path d="M 73.832727 307.584 
L 106.298182 307.584 
L 106.298182 54.144 
L 73.832727 54.144 
z
" clip-path="url(#p26ea8868c0)" style="fill: #1f77b4; fill-opacity: 0.75; stroke: #000000; stroke-linejoin: miter"/>
   </g>
   <g id="patch_3">
    <path d="M 106.298182 307.584 
L 138.763636 307.584 
L 138.763636 58.837333 
L 106.298182 58.837333 
z
" clip-path="url(#p26ea8868c0)" style="fill: #1f77b4; fill-opacity: 0.75; stroke: #000000; stroke-linejoin: miter"/>
   </g>
   <g id="patch_4">
    <path d="M 138.763636 307.584 
L 171.229091 307.584 
L 171.229091 54.144 
L 138.763636 54.144 
z
" clip-path="url(#p26ea8868c0)" style="fill: #1f77b4; fill-opacity: 0.75; stroke: #000000; stroke-linejoin: miter"/>
   </g>
   <g id="patch_5">
    <path d="M 171.229091 307.584 
L 203.694545 307.584 
L 203.694545 82.304 
L 171.229091 82.304 
z
" clip-path="url(#p26ea8868c0)" style="fill: #1f77b4; fill-opacity: 0.75; stroke: #000000; stroke-linejoin: miter"/>
   </g>
   <g id="patch_6">
    <path d="M 203.694545 307.584 
L 236.16 307.584 
L 236.16 162.090667 
L 203.694545 162.090667 
z
" clip-path="url(#p26ea8868c0)" style="fill: #1f77b4; fill-opacity: 0.75; stroke: #000000; stroke-linejoin: miter"/>
   </g>
   <g id="patch_7">
    <path d="M 236.16 307.584 
L 268.625455 307.584 
L 268.625455 157.397333 
L 236.16 157.397333 
z
" clip-path="url(#p26ea8868c0)" style="fill: #1f77b4; fill-opacity: 0.75; stroke: #000000; stroke-linejoin: miter"/>
   </g>
   <g id="patch_8">
    <path d="M 268.625455 307.584 
L 301.090909 307.584 
L 301.090909 157.397333 
L 268.625455 157.397333 
z
" clip-path="url(#p26ea8868c0)" style="fill: #1f77b4; fill-opacity: 0.75; stroke: #000000; stroke-linejoin: miter"/>
   </g>
   <g id="patch_9">
    <path d="M 301.090909 307.584 
L 333.556364 307.584 
L 333.556364 162.090667 
L 301.090909 162.090667 
z
" clip-path="url(#p26ea8868c0)" style="fill: #1f77b4; fill-opacity: 0.75; stroke: #000000; stroke-linejoin: miter"/>
   </g>
   <g id="patch_10">
    <path d="M 333.556364 307.584 
L 366.021818 307.584 
L 366.021818 152.704 
L 333.556364 152.704 
z
" clip-path="url(#p26ea8868c0)" style="fill: #1f77b4; fill-opacity: 0.75; stroke: #000000; stroke-linejoin: miter"/>
   </g>
   <g id="patch_11">
    <path d="M 366.021818 307.584 
L 398.487273 307.584 
L 398.487273 157.397333 
L 366.021818 157.397333 
z
" clip-path="url(#p26ea8868c0)" style="fill: #1f77b4; fill-opacity: 0.75; stroke: #000000; stroke-linejoin: miter"/>
   </g>
  </g>
 </g>
 <defs>
  <clipPath id="p26ea8868c0">
   <rect x="57.6" y="41.472" width="357.12" height="266.112"/>
  </clipPath>
 </defs>
</svg>
