<?xml version="1.0" encoding="utf-8" standalone="no"?>
<!DOCTYPE svg PUBLIC "-//W3C//DTD SVG 1.1//EN"
  "http://www.w3.org/Graphics/SVG/1.1/DTD/svg11.dtd">
<svg xmlns:xlink="http://www.w3.org/1999/xlink" width="460.8pt" height="345.6pt" viewBox="0 0 460.8 345.6" xmlns="http://www.w3.org/2000/svg" version="1.1">
 <metadata>
  <rdf:RDF xmlns:dc="http://purl.org/dc/elements/1.1/" xmlns:cc="http://creativecommons.org/ns#" xmlns:rdf="http://www.w3.org/1999/02/22-rdf-syntax-ns#">
   <cc:Work>
    <dc:type rdf:resource="http://purl.org/dc/dcmitype/StillImage"/>
    <dc:date>2022-12-06T23:02:08.533408</dc:date>
    <dc:format>image/svg+xml</dc:format>
    <dc:creator>
     <cc:Agent>
      <dc:title>Matplotlib v3.5.2, https://matplotlib.org/</dc:title>
     </cc:Agent>
    </dc:creator>
   </cc:Work>
  </rdf:RDF>
 </metadata>
 <defs>
  <style type="text/css">*{stroke-linejoin: round; stroke-linecap: butt}</style>
 </defs>
 <g id="figure_1">
  <g id="patch_1">
   <path d="M 0 345.6 
L 460.8 345.6 
L 460.8 0 
L 0 0 
z
" style="fill: #ffffff"/>
  </g>
  <g id="axes_1">
   <g id="patch_2">
    <path d="M 73.832727 307.584 
L 92.930053 307.584 
L 92.930053 290.688 
L 73.832727 290.688 
z
" clip-path="url(#p67e7a73a17)" style="fill: #1f77b4; fill-opacity: 0.75; stroke: #000000; stroke-linejoin: miter"/>
   </g>
   <g id="patch_3">
    <path d="M 92.930053 307.584 
L 112.02738 307.584 
L 112.02738 256.896 
L 92.930053 256.896 
z
" clip-path="url(#p67e7a73a17)" style="fill: #1f77b4; fill-opacity: 0.75; stroke: #000000; stroke-linejoin: miter"/>
   </g>
   <g id="patch_4">
    <path d="M 112.02738 307.584 
L 131.124706 307.584 
L 131.124706 189.312 
L 112.02738 189.312 
z
" clip-path="url(#p67e7a73a17)" style="fill: #1f77b4; fill-opacity: 0.75; stroke: #000000; stroke-linejoin: miter"/>
   </g>
   <g id="patch_5">
    <path d="M 131.124706 307.584 
L 150.222032 307.584 
L 150.222032 117.504 
L 131.124706 117.504 
z
" clip-path="url(#p67e7a73a17)" style="fill: #1f77b4; fill-opacity: 0.75; stroke: #000000; stroke-linejoin: miter"/>
   </g>
   <g id="patch_6">
    <path d="M 150.222032 307.584 
L 169.319358 307.584 
L 169.319358 79.488 
L 150.222032 79.488 
z
" clip-path="url(#p67e7a73a17)" style="fill: #1f77b4; fill-opacity: 0.75; stroke: #000000; stroke-linejoin: miter"/>
   </g>
   <g id="patch_7">
    <path d="M 169.319358 307.584 
L 188.416684 307.584 
L 188.416684 54.144 
L 169.319358 54.144 
z
" clip-path="url(#p67e7a73a17)" style="fill: #1f77b4; fill-opacity: 0.75; stroke: #000000; stroke-linejoin: miter"/>
   </g>
   <g id="patch_8">
    <path d="M 188.416684 307.584 
L 207.514011 307.584 
L 207.514011 79.488 
L 188.416684 79.488 
z
" clip-path="url(#p67e7a73a17)" style="fill: #1f77b4; fill-opacity: 0.75; stroke: #000000; stroke-linejoin: miter"/>
   </g>
   <g id="patch_9">
    <path d="M 207.514011 307.584 
L 226.611337 307.584 
L 226.611337 113.28 
L 207.514011 113.28 
z
" clip-path="url(#p67e7a73a17)" style="fill: #1f77b4; fill-opacity: 0.75; stroke: #000000; stroke-linejoin: miter"/>
   </g>
   <g id="patch_10">
    <path d="M 226.611337 307.584 
L 245.708663 307.584 
L 245.708663 168.192 
L 226.611337 168.192 
z
" clip-path="url(#p67e7a73a17)" style="fill: #1f77b4; fill-opacity: 0.75; stroke: #000000; stroke-linejoin: miter"/>
   </g>
   <g id="patch_11">
    <path d="M 245.708663 307.584 
L 264.805989 307.584 
L 264.805989 201.984 
L 245.708663 201.984 
z
" clip-path="url(#p67e7a73a17)" style="fill: #1f77b4; fill-opacity: 0.75; stroke: #000000; stroke-linejoin: miter"/>
   </g>
   <g id="patch_12">
    <path d="M 264.805989 307.584 
L 283.903316 307.584 
L 283.903316 240 
L 264.805989 240 
z
" clip-path="url(#p67e7a73a17)" style="fill: #1f77b4; fill-opacity: 0.75; stroke: #000000; stroke-linejoin: miter"/>
   </g>
   <g id="patch_13">
    <path d="M 283.903316 307.584 
L 303.000642 307.584 
L 303.000642 269.568 
L 283.903316 269.568 
z
" clip-path="url(#p67e7a73a17)" style="fill: #1f77b4; fill-opacity: 0.75; stroke: #000000; stroke-linejoin: miter"/>
   </g>
   <g id="patch_14">
    <path d="M 303.000642 307.584 
L 322.097968 307.584 
L 322.097968 282.24 
L 303.000642 282.24 
z
" clip-path="url(#p67e7a73a17)" style="fill: #1f77b4; fill-opacity: 0.75; stroke: #000000; stroke-linejoin: miter"/>
   </g>
   <g id="patch_15">
    <path d="M 322.097968 307.584 
L 341.195294 307.584 
L 341.195294 290.688 
L 322.097968 290.688 
z
" clip-path="url(#p67e7a73a17)" style="fill: #1f77b4; fill-opacity: 0.75; stroke: #000000; stroke-linejoin: miter"/>
   </g>
   <g id="patch_16">
    <path d="M 341.195294 307.584 
L 360.29262 307.584 
L 360.29262 299.136 
L 341.195294 299.136 
z
" clip-path="url(#p67e7a73a17)" style="fill: #1f77b4; fill-opacity: 0.75; stroke: #000000; stroke-linejoin: miter"/>
   </g>
   <g id="patch_17">
    <path d="M 360.29262 307.584 
L 379.389947 307.584 
L 379.389947 307.584 
L 360.29262 307.584 
z
" clip-path="url(#p67e7a73a17)" style="fill: #1f77b4; fill-opacity: 0.75; stroke: #000000; stroke-linejoin: miter"/>
   </g>
   <g id="patch_18">
    <path d="M 379.389947 307.584 
L 398.487273 307.584 
L 398.487273 299.136 
L 379.389947 299.136 
z
" clip-path="url(#p67e7a73a17)" style="fill: #1f77b4; fill-opacity: 0.75; stroke: #000000; stroke-linejoin: miter"/>
   </g>
  </g>
 </g>
 <defs>
  <clipPath id="p67e7a73a17">
   <rect x="57.6" y="41.472" width="357.12" height="266.112"/>
  </clipPath>
 </defs>
</svg>
