<?xml version="1.0" encoding="UTF-8" standalone="no"?>
<!DOCTYPE svg PUBLIC "-//W3C//DTD SVG 1.1//EN"
 "http://www.w3.org/Graphics/SVG/1.1/DTD/svg11.dtd">
<!-- Generated by graphviz version 6.0.2 (20221011.1828)
 -->
<!-- Title: Tree Pages: 1 -->
<svg width="923pt" height="671pt"
 viewBox="0.00 0.00 922.50 671.00" xmlns="http://www.w3.org/2000/svg" xmlns:xlink="http://www.w3.org/1999/xlink">
<g id="graph0" class="graph" transform="scale(1 1) rotate(0) translate(4 667)">
<title>Tree</title>
<polygon fill="white" stroke="none" points="-4,4 -4,-667 918.5,-667 918.5,4 -4,4"/>
<!-- 0 -->
<g id="node1" class="node">
<title>0</title>
<path fill="#f0b78e" stroke="black" d="M724.5,-663C724.5,-663 551.5,-663 551.5,-663 545.5,-663 539.5,-657 539.5,-651 539.5,-651 539.5,-592 539.5,-592 539.5,-586 545.5,-580 551.5,-580 551.5,-580 724.5,-580 724.5,-580 730.5,-580 736.5,-586 736.5,-592 736.5,-592 736.5,-651 736.5,-651 736.5,-657 730.5,-663 724.5,-663"/>
<text text-anchor="start" x="547.5" y="-647.8" font-family="Helvetica,sans-Serif" font-size="14.00">China Nuclear Share ≤ 0.135</text>
<text text-anchor="start" x="604.5" y="-632.8" font-family="Helvetica,sans-Serif" font-size="14.00">gini = 0.42</text>
<text text-anchor="start" x="590.5" y="-617.8" font-family="Helvetica,sans-Serif" font-size="14.00">samples = 394</text>
<text text-anchor="start" x="581" y="-602.8" font-family="Helvetica,sans-Serif" font-size="14.00">value = [276, 118]</text>
<text text-anchor="start" x="574.5" y="-587.8" font-family="Helvetica,sans-Serif" font-size="14.00">class = Low Renew.</text>
</g>
<!-- 1 -->
<g id="node2" class="node">
<title>1</title>
<path fill="#d0e8f9" stroke="black" d="M634.5,-544C634.5,-544 445.5,-544 445.5,-544 439.5,-544 433.5,-538 433.5,-532 433.5,-532 433.5,-473 433.5,-473 433.5,-467 439.5,-461 445.5,-461 445.5,-461 634.5,-461 634.5,-461 640.5,-461 646.5,-467 646.5,-473 646.5,-473 646.5,-532 646.5,-532 646.5,-538 640.5,-544 634.5,-544"/>
<text text-anchor="start" x="441.5" y="-528.8" font-family="Helvetica,sans-Serif" font-size="14.00">China Coal CCS Share ≤ 0.032</text>
<text text-anchor="start" x="502.5" y="-513.8" font-family="Helvetica,sans-Serif" font-size="14.00">gini = 0.491</text>
<text text-anchor="start" x="492.5" y="-498.8" font-family="Helvetica,sans-Serif" font-size="14.00">samples = 208</text>
<text text-anchor="start" x="487" y="-483.8" font-family="Helvetica,sans-Serif" font-size="14.00">value = [90, 118]</text>
<text text-anchor="start" x="475" y="-468.8" font-family="Helvetica,sans-Serif" font-size="14.00">class = High Renew.</text>
</g>
<!-- 0&#45;&gt;1 -->
<g id="edge1" class="edge">
<title>0&#45;&gt;1</title>
<path fill="none" stroke="black" d="M604,-579.91C596.4,-570.83 588.26,-561.12 580.43,-551.77"/>
<polygon fill="black" stroke="black" points="583.04,-549.44 573.94,-544.02 577.68,-553.93 583.04,-549.44"/>
<text text-anchor="middle" x="571.74" y="-565.22" font-family="Helvetica,sans-Serif" font-size="14.00">True</text>
</g>
<!-- 16 -->
<g id="node17" class="node">
<title>16</title>
<path fill="#e58139" stroke="black" d="M795.5,-536.5C795.5,-536.5 676.5,-536.5 676.5,-536.5 670.5,-536.5 664.5,-530.5 664.5,-524.5 664.5,-524.5 664.5,-480.5 664.5,-480.5 664.5,-474.5 670.5,-468.5 676.5,-468.5 676.5,-468.5 795.5,-468.5 795.5,-468.5 801.5,-468.5 807.5,-474.5 807.5,-480.5 807.5,-480.5 807.5,-524.5 807.5,-524.5 807.5,-530.5 801.5,-536.5 795.5,-536.5"/>
<text text-anchor="start" x="707" y="-521.3" font-family="Helvetica,sans-Serif" font-size="14.00">gini = 0.0</text>
<text text-anchor="start" x="688.5" y="-506.3" font-family="Helvetica,sans-Serif" font-size="14.00">samples = 186</text>
<text text-anchor="start" x="687.5" y="-491.3" font-family="Helvetica,sans-Serif" font-size="14.00">value = [186, 0]</text>
<text text-anchor="start" x="672.5" y="-476.3" font-family="Helvetica,sans-Serif" font-size="14.00">class = Low Renew.</text>
</g>
<!-- 0&#45;&gt;16 -->
<g id="edge16" class="edge">
<title>0&#45;&gt;16</title>
<path fill="none" stroke="black" d="M672,-579.91C681.61,-568.43 692.08,-555.94 701.71,-544.44"/>
<polygon fill="black" stroke="black" points="704.48,-546.58 708.22,-536.67 699.11,-542.09 704.48,-546.58"/>
<text text-anchor="middle" x="710.42" y="-557.87" font-family="Helvetica,sans-Serif" font-size="14.00">False</text>
</g>
<!-- 2 -->
<g id="node3" class="node">
<title>2</title>
<path fill="#67b4eb" stroke="black" d="M526,-425C526,-425 310,-425 310,-425 304,-425 298,-419 298,-413 298,-413 298,-354 298,-354 298,-348 304,-342 310,-342 310,-342 526,-342 526,-342 532,-342 538,-348 538,-354 538,-354 538,-413 538,-413 538,-419 532,-425 526,-425"/>
<text text-anchor="start" x="306" y="-409.8" font-family="Helvetica,sans-Serif" font-size="14.00">China Total Elec (TWh) ≤ 8506.958</text>
<text text-anchor="start" x="380.5" y="-394.8" font-family="Helvetica,sans-Serif" font-size="14.00">gini = 0.305</text>
<text text-anchor="start" x="370.5" y="-379.8" font-family="Helvetica,sans-Serif" font-size="14.00">samples = 144</text>
<text text-anchor="start" x="365" y="-364.8" font-family="Helvetica,sans-Serif" font-size="14.00">value = [27, 117]</text>
<text text-anchor="start" x="353" y="-349.8" font-family="Helvetica,sans-Serif" font-size="14.00">class = High Renew.</text>
</g>
<!-- 1&#45;&gt;2 -->
<g id="edge2" class="edge">
<title>1&#45;&gt;2</title>
<path fill="none" stroke="black" d="M497.67,-460.91C488.02,-451.65 477.68,-441.73 467.75,-432.21"/>
<polygon fill="black" stroke="black" points="469.89,-429.42 460.25,-425.02 465.05,-434.47 469.89,-429.42"/>
</g>
<!-- 11 -->
<g id="node12" class="node">
<title>11</title>
<path fill="#e5833c" stroke="black" d="M757.5,-425C757.5,-425 568.5,-425 568.5,-425 562.5,-425 556.5,-419 556.5,-413 556.5,-413 556.5,-354 556.5,-354 556.5,-348 562.5,-342 568.5,-342 568.5,-342 757.5,-342 757.5,-342 763.5,-342 769.5,-348 769.5,-354 769.5,-354 769.5,-413 769.5,-413 769.5,-419 763.5,-425 757.5,-425"/>
<text text-anchor="start" x="564.5" y="-409.8" font-family="Helvetica,sans-Serif" font-size="14.00">China Coal CCS Share ≤ 0.057</text>
<text text-anchor="start" x="625.5" y="-394.8" font-family="Helvetica,sans-Serif" font-size="14.00">gini = 0.031</text>
<text text-anchor="start" x="619.5" y="-379.8" font-family="Helvetica,sans-Serif" font-size="14.00">samples = 64</text>
<text text-anchor="start" x="618.5" y="-364.8" font-family="Helvetica,sans-Serif" font-size="14.00">value = [63, 1]</text>
<text text-anchor="start" x="599.5" y="-349.8" font-family="Helvetica,sans-Serif" font-size="14.00">class = Low Renew.</text>
</g>
<!-- 1&#45;&gt;11 -->
<g id="edge11" class="edge">
<title>1&#45;&gt;11</title>
<path fill="none" stroke="black" d="M582.67,-460.91C592.5,-451.56 603.04,-441.54 613.14,-431.93"/>
<polygon fill="black" stroke="black" points="615.57,-434.45 620.4,-425.02 610.74,-429.38 615.57,-434.45"/>
</g>
<!-- 3 -->
<g id="node4" class="node">
<title>3</title>
<path fill="#e58139" stroke="black" d="M294.5,-298.5C294.5,-298.5 175.5,-298.5 175.5,-298.5 169.5,-298.5 163.5,-292.5 163.5,-286.5 163.5,-286.5 163.5,-242.5 163.5,-242.5 163.5,-236.5 169.5,-230.5 175.5,-230.5 175.5,-230.5 294.5,-230.5 294.5,-230.5 300.5,-230.5 306.5,-236.5 306.5,-242.5 306.5,-242.5 306.5,-286.5 306.5,-286.5 306.5,-292.5 300.5,-298.5 294.5,-298.5"/>
<text text-anchor="start" x="206" y="-283.3" font-family="Helvetica,sans-Serif" font-size="14.00">gini = 0.0</text>
<text text-anchor="start" x="191.5" y="-268.3" font-family="Helvetica,sans-Serif" font-size="14.00">samples = 25</text>
<text text-anchor="start" x="190.5" y="-253.3" font-family="Helvetica,sans-Serif" font-size="14.00">value = [25, 0]</text>
<text text-anchor="start" x="171.5" y="-238.3" font-family="Helvetica,sans-Serif" font-size="14.00">class = Low Renew.</text>
</g>
<!-- 2&#45;&gt;3 -->
<g id="edge3" class="edge">
<title>2&#45;&gt;3</title>
<path fill="none" stroke="black" d="M354.51,-341.91C335.35,-329.66 314.38,-316.25 295.43,-304.13"/>
<polygon fill="black" stroke="black" points="297.19,-301.1 286.88,-298.67 293.42,-307 297.19,-301.1"/>
</g>
<!-- 4 -->
<g id="node5" class="node">
<title>4</title>
<path fill="#3c9fe5" stroke="black" d="M525.5,-306C525.5,-306 336.5,-306 336.5,-306 330.5,-306 324.5,-300 324.5,-294 324.5,-294 324.5,-235 324.5,-235 324.5,-229 330.5,-223 336.5,-223 336.5,-223 525.5,-223 525.5,-223 531.5,-223 537.5,-229 537.5,-235 537.5,-235 537.5,-294 537.5,-294 537.5,-300 531.5,-306 525.5,-306"/>
<text text-anchor="start" x="332.5" y="-290.8" font-family="Helvetica,sans-Serif" font-size="14.00">China Coal CCS Share ≤ 0.014</text>
<text text-anchor="start" x="393.5" y="-275.8" font-family="Helvetica,sans-Serif" font-size="14.00">gini = 0.033</text>
<text text-anchor="start" x="383.5" y="-260.8" font-family="Helvetica,sans-Serif" font-size="14.00">samples = 119</text>
<text text-anchor="start" x="382.5" y="-245.8" font-family="Helvetica,sans-Serif" font-size="14.00">value = [2, 117]</text>
<text text-anchor="start" x="366" y="-230.8" font-family="Helvetica,sans-Serif" font-size="14.00">class = High Renew.</text>
</g>
<!-- 2&#45;&gt;4 -->
<g id="edge4" class="edge">
<title>2&#45;&gt;4</title>
<path fill="none" stroke="black" d="M422.51,-341.91C423.44,-333.56 424.43,-324.67 425.39,-316.02"/>
<polygon fill="black" stroke="black" points="428.87,-316.35 426.5,-306.02 421.91,-315.57 428.87,-316.35"/>
</g>
<!-- 5 -->
<g id="node6" class="node">
<title>5</title>
<path fill="#3b9ee5" stroke="black" d="M310.5,-187C310.5,-187 137.5,-187 137.5,-187 131.5,-187 125.5,-181 125.5,-175 125.5,-175 125.5,-116 125.5,-116 125.5,-110 131.5,-104 137.5,-104 137.5,-104 310.5,-104 310.5,-104 316.5,-104 322.5,-110 322.5,-116 322.5,-116 322.5,-175 322.5,-175 322.5,-181 316.5,-187 310.5,-187"/>
<text text-anchor="start" x="133.5" y="-171.8" font-family="Helvetica,sans-Serif" font-size="14.00">China Nuclear Share ≤ 0.115</text>
<text text-anchor="start" x="186.5" y="-156.8" font-family="Helvetica,sans-Serif" font-size="14.00">gini = 0.017</text>
<text text-anchor="start" x="176.5" y="-141.8" font-family="Helvetica,sans-Serif" font-size="14.00">samples = 115</text>
<text text-anchor="start" x="175.5" y="-126.8" font-family="Helvetica,sans-Serif" font-size="14.00">value = [1, 114]</text>
<text text-anchor="start" x="159" y="-111.8" font-family="Helvetica,sans-Serif" font-size="14.00">class = High Renew.</text>
</g>
<!-- 4&#45;&gt;5 -->
<g id="edge5" class="edge">
<title>4&#45;&gt;5</title>
<path fill="none" stroke="black" d="M359.18,-222.91C341.52,-212.92 322.5,-202.17 304.46,-191.98"/>
<polygon fill="black" stroke="black" points="306.12,-188.89 295.69,-187.02 302.67,-194.99 306.12,-188.89"/>
</g>
<!-- 8 -->
<g id="node9" class="node">
<title>8</title>
<path fill="#7bbeee" stroke="black" d="M525.5,-187C525.5,-187 352.5,-187 352.5,-187 346.5,-187 340.5,-181 340.5,-175 340.5,-175 340.5,-116 340.5,-116 340.5,-110 346.5,-104 352.5,-104 352.5,-104 525.5,-104 525.5,-104 531.5,-104 537.5,-110 537.5,-116 537.5,-116 537.5,-175 537.5,-175 537.5,-181 531.5,-187 525.5,-187"/>
<text text-anchor="start" x="348.5" y="-171.8" font-family="Helvetica,sans-Serif" font-size="14.00">China Nuclear Share ≤ 0.116</text>
<text text-anchor="start" x="401.5" y="-156.8" font-family="Helvetica,sans-Serif" font-size="14.00">gini = 0.375</text>
<text text-anchor="start" x="399.5" y="-141.8" font-family="Helvetica,sans-Serif" font-size="14.00">samples = 4</text>
<text text-anchor="start" x="398.5" y="-126.8" font-family="Helvetica,sans-Serif" font-size="14.00">value = [1, 3]</text>
<text text-anchor="start" x="374" y="-111.8" font-family="Helvetica,sans-Serif" font-size="14.00">class = High Renew.</text>
</g>
<!-- 4&#45;&gt;8 -->
<g id="edge8" class="edge">
<title>4&#45;&gt;8</title>
<path fill="none" stroke="black" d="M433.78,-222.91C434.35,-214.56 434.95,-205.67 435.55,-197.02"/>
<polygon fill="black" stroke="black" points="439.04,-197.24 436.23,-187.02 432.06,-196.76 439.04,-197.24"/>
</g>
<!-- 6 -->
<g id="node7" class="node">
<title>6</title>
<path fill="#4da7e8" stroke="black" d="M134,-68C134,-68 12,-68 12,-68 6,-68 0,-62 0,-56 0,-56 0,-12 0,-12 0,-6 6,0 12,0 12,0 134,0 134,0 140,0 146,-6 146,-12 146,-12 146,-56 146,-56 146,-62 140,-68 134,-68"/>
<text text-anchor="start" x="35.5" y="-52.8" font-family="Helvetica,sans-Serif" font-size="14.00">gini = 0.165</text>
<text text-anchor="start" x="29.5" y="-37.8" font-family="Helvetica,sans-Serif" font-size="14.00">samples = 11</text>
<text text-anchor="start" x="28.5" y="-22.8" font-family="Helvetica,sans-Serif" font-size="14.00">value = [1, 10]</text>
<text text-anchor="start" x="8" y="-7.8" font-family="Helvetica,sans-Serif" font-size="14.00">class = High Renew.</text>
</g>
<!-- 5&#45;&gt;6 -->
<g id="edge6" class="edge">
<title>5&#45;&gt;6</title>
<path fill="none" stroke="black" d="M167.77,-103.73C154.44,-94.06 140.25,-83.77 127.02,-74.17"/>
<polygon fill="black" stroke="black" points="129.07,-71.34 118.92,-68.3 124.96,-77 129.07,-71.34"/>
</g>
<!-- 7 -->
<g id="node8" class="node">
<title>7</title>
<path fill="#399de5" stroke="black" d="M298,-68C298,-68 176,-68 176,-68 170,-68 164,-62 164,-56 164,-56 164,-12 164,-12 164,-6 170,0 176,0 176,0 298,0 298,0 304,0 310,-6 310,-12 310,-12 310,-56 310,-56 310,-62 304,-68 298,-68"/>
<text text-anchor="start" x="208" y="-52.8" font-family="Helvetica,sans-Serif" font-size="14.00">gini = 0.0</text>
<text text-anchor="start" x="189.5" y="-37.8" font-family="Helvetica,sans-Serif" font-size="14.00">samples = 104</text>
<text text-anchor="start" x="188.5" y="-22.8" font-family="Helvetica,sans-Serif" font-size="14.00">value = [0, 104]</text>
<text text-anchor="start" x="172" y="-7.8" font-family="Helvetica,sans-Serif" font-size="14.00">class = High Renew.</text>
</g>
<!-- 5&#45;&gt;7 -->
<g id="edge7" class="edge">
<title>5&#45;&gt;7</title>
<path fill="none" stroke="black" d="M228.84,-103.73C229.83,-95.43 230.87,-86.67 231.86,-78.28"/>
<polygon fill="black" stroke="black" points="235.34,-78.64 233.05,-68.3 228.39,-77.82 235.34,-78.64"/>
</g>
<!-- 9 -->
<g id="node10" class="node">
<title>9</title>
<path fill="#e58139" stroke="black" d="M485.5,-68C485.5,-68 366.5,-68 366.5,-68 360.5,-68 354.5,-62 354.5,-56 354.5,-56 354.5,-12 354.5,-12 354.5,-6 360.5,0 366.5,0 366.5,0 485.5,0 485.5,0 491.5,0 497.5,-6 497.5,-12 497.5,-12 497.5,-56 497.5,-56 497.5,-62 491.5,-68 485.5,-68"/>
<text text-anchor="start" x="397" y="-52.8" font-family="Helvetica,sans-Serif" font-size="14.00">gini = 0.0</text>
<text text-anchor="start" x="386.5" y="-37.8" font-family="Helvetica,sans-Serif" font-size="14.00">samples = 1</text>
<text text-anchor="start" x="385.5" y="-22.8" font-family="Helvetica,sans-Serif" font-size="14.00">value = [1, 0]</text>
<text text-anchor="start" x="362.5" y="-7.8" font-family="Helvetica,sans-Serif" font-size="14.00">class = Low Renew.</text>
</g>
<!-- 8&#45;&gt;9 -->
<g id="edge9" class="edge">
<title>8&#45;&gt;9</title>
<path fill="none" stroke="black" d="M434.16,-103.73C433.17,-95.43 432.13,-86.67 431.14,-78.28"/>
<polygon fill="black" stroke="black" points="434.61,-77.82 429.95,-68.3 427.66,-78.64 434.61,-77.82"/>
</g>
<!-- 10 -->
<g id="node11" class="node">
<title>10</title>
<path fill="#399de5" stroke="black" d="M650,-68C650,-68 528,-68 528,-68 522,-68 516,-62 516,-56 516,-56 516,-12 516,-12 516,-6 522,0 528,0 528,0 650,0 650,0 656,0 662,-6 662,-12 662,-12 662,-56 662,-56 662,-62 656,-68 650,-68"/>
<text text-anchor="start" x="560" y="-52.8" font-family="Helvetica,sans-Serif" font-size="14.00">gini = 0.0</text>
<text text-anchor="start" x="549.5" y="-37.8" font-family="Helvetica,sans-Serif" font-size="14.00">samples = 3</text>
<text text-anchor="start" x="548.5" y="-22.8" font-family="Helvetica,sans-Serif" font-size="14.00">value = [0, 3]</text>
<text text-anchor="start" x="524" y="-7.8" font-family="Helvetica,sans-Serif" font-size="14.00">class = High Renew.</text>
</g>
<!-- 8&#45;&gt;10 -->
<g id="edge10" class="edge">
<title>8&#45;&gt;10</title>
<path fill="none" stroke="black" d="M494.85,-103.73C507.97,-94.15 521.93,-83.96 534.97,-74.44"/>
<polygon fill="black" stroke="black" points="537.37,-77.02 543.38,-68.3 533.24,-71.37 537.37,-77.02"/>
</g>
<!-- 12 -->
<g id="node13" class="node">
<title>12</title>
<path fill="#eca06a" stroke="black" d="M741,-306C741,-306 577,-306 577,-306 571,-306 565,-300 565,-294 565,-294 565,-235 565,-235 565,-229 571,-223 577,-223 577,-223 741,-223 741,-223 747,-223 753,-229 753,-235 753,-235 753,-294 753,-294 753,-300 747,-306 741,-306"/>
<text text-anchor="start" x="573" y="-290.8" font-family="Helvetica,sans-Serif" font-size="14.00">China GDP Growth ≤ 0.042</text>
<text text-anchor="start" x="625.5" y="-275.8" font-family="Helvetica,sans-Serif" font-size="14.00">gini = 0.32</text>
<text text-anchor="start" x="619.5" y="-260.8" font-family="Helvetica,sans-Serif" font-size="14.00">samples = 5</text>
<text text-anchor="start" x="618.5" y="-245.8" font-family="Helvetica,sans-Serif" font-size="14.00">value = [4, 1]</text>
<text text-anchor="start" x="595.5" y="-230.8" font-family="Helvetica,sans-Serif" font-size="14.00">class = Low Renew.</text>
</g>
<!-- 11&#45;&gt;12 -->
<g id="edge12" class="edge">
<title>11&#45;&gt;12</title>
<path fill="none" stroke="black" d="M661.61,-341.91C661.33,-333.56 661.02,-324.67 660.73,-316.02"/>
<polygon fill="black" stroke="black" points="664.23,-315.9 660.39,-306.02 657.23,-316.13 664.23,-315.9"/>
</g>
<!-- 15 -->
<g id="node16" class="node">
<title>15</title>
<path fill="#e58139" stroke="black" d="M902.5,-298.5C902.5,-298.5 783.5,-298.5 783.5,-298.5 777.5,-298.5 771.5,-292.5 771.5,-286.5 771.5,-286.5 771.5,-242.5 771.5,-242.5 771.5,-236.5 777.5,-230.5 783.5,-230.5 783.5,-230.5 902.5,-230.5 902.5,-230.5 908.5,-230.5 914.5,-236.5 914.5,-242.5 914.5,-242.5 914.5,-286.5 914.5,-286.5 914.5,-292.5 908.5,-298.5 902.5,-298.5"/>
<text text-anchor="start" x="814" y="-283.3" font-family="Helvetica,sans-Serif" font-size="14.00">gini = 0.0</text>
<text text-anchor="start" x="799.5" y="-268.3" font-family="Helvetica,sans-Serif" font-size="14.00">samples = 59</text>
<text text-anchor="start" x="798.5" y="-253.3" font-family="Helvetica,sans-Serif" font-size="14.00">value = [59, 0]</text>
<text text-anchor="start" x="779.5" y="-238.3" font-family="Helvetica,sans-Serif" font-size="14.00">class = Low Renew.</text>
</g>
<!-- 11&#45;&gt;15 -->
<g id="edge15" class="edge">
<title>11&#45;&gt;15</title>
<path fill="none" stroke="black" d="M725.45,-341.91C744.29,-329.66 764.92,-316.25 783.56,-304.13"/>
<polygon fill="black" stroke="black" points="785.5,-307.05 791.97,-298.67 781.68,-301.18 785.5,-307.05"/>
</g>
<!-- 13 -->
<g id="node14" class="node">
<title>13</title>
<path fill="#e58139" stroke="black" d="M714.5,-179.5C714.5,-179.5 595.5,-179.5 595.5,-179.5 589.5,-179.5 583.5,-173.5 583.5,-167.5 583.5,-167.5 583.5,-123.5 583.5,-123.5 583.5,-117.5 589.5,-111.5 595.5,-111.5 595.5,-111.5 714.5,-111.5 714.5,-111.5 720.5,-111.5 726.5,-117.5 726.5,-123.5 726.5,-123.5 726.5,-167.5 726.5,-167.5 726.5,-173.5 720.5,-179.5 714.5,-179.5"/>
<text text-anchor="start" x="626" y="-164.3" font-family="Helvetica,sans-Serif" font-size="14.00">gini = 0.0</text>
<text text-anchor="start" x="615.5" y="-149.3" font-family="Helvetica,sans-Serif" font-size="14.00">samples = 4</text>
<text text-anchor="start" x="614.5" y="-134.3" font-family="Helvetica,sans-Serif" font-size="14.00">value = [4, 0]</text>
<text text-anchor="start" x="591.5" y="-119.3" font-family="Helvetica,sans-Serif" font-size="14.00">class = Low Renew.</text>
</g>
<!-- 12&#45;&gt;13 -->
<g id="edge13" class="edge">
<title>12&#45;&gt;13</title>
<path fill="none" stroke="black" d="M657.61,-222.91C657.25,-212.2 656.85,-200.62 656.48,-189.78"/>
<polygon fill="black" stroke="black" points="659.97,-189.54 656.13,-179.67 652.98,-189.78 659.97,-189.54"/>
</g>
<!-- 14 -->
<g id="node15" class="node">
<title>14</title>
<path fill="#399de5" stroke="black" d="M879,-179.5C879,-179.5 757,-179.5 757,-179.5 751,-179.5 745,-173.5 745,-167.5 745,-167.5 745,-123.5 745,-123.5 745,-117.5 751,-111.5 757,-111.5 757,-111.5 879,-111.5 879,-111.5 885,-111.5 891,-117.5 891,-123.5 891,-123.5 891,-167.5 891,-167.5 891,-173.5 885,-179.5 879,-179.5"/>
<text text-anchor="start" x="789" y="-164.3" font-family="Helvetica,sans-Serif" font-size="14.00">gini = 0.0</text>
<text text-anchor="start" x="778.5" y="-149.3" font-family="Helvetica,sans-Serif" font-size="14.00">samples = 1</text>
<text text-anchor="start" x="777.5" y="-134.3" font-family="Helvetica,sans-Serif" font-size="14.00">value = [0, 1]</text>
<text text-anchor="start" x="753" y="-119.3" font-family="Helvetica,sans-Serif" font-size="14.00">class = High Renew.</text>
</g>
<!-- 12&#45;&gt;14 -->
<g id="edge14" class="edge">
<title>12&#45;&gt;14</title>
<path fill="none" stroke="black" d="M714.16,-222.91C730.51,-210.88 748.37,-197.73 764.6,-185.79"/>
<polygon fill="black" stroke="black" points="766.95,-188.41 772.93,-179.67 762.8,-182.77 766.95,-188.41"/>
</g>
</g>
</svg>
