<?xml version="1.0" encoding="UTF-8" standalone="no"?>
<!DOCTYPE svg PUBLIC "-//W3C//DTD SVG 1.1//EN"
 "http://www.w3.org/Graphics/SVG/1.1/DTD/svg11.dtd">
<!-- Generated by graphviz version 6.0.2 (20221011.1828)
 -->
<!-- Title: Tree Pages: 1 -->
<svg width="1798pt" height="671pt"
 viewBox="0.00 0.00 1797.50 671.00" xmlns="http://www.w3.org/2000/svg" xmlns:xlink="http://www.w3.org/1999/xlink">
<g id="graph0" class="graph" transform="scale(1 1) rotate(0) translate(4 667)">
<title>Tree</title>
<polygon fill="white" stroke="none" points="-4,4 -4,-667 1793.5,-667 1793.5,4 -4,4"/>
<!-- 0 -->
<g id="node1" class="node">
<title>0</title>
<path fill="#f0b78e" stroke="black" d="M877.5,-663C877.5,-663 555.5,-663 555.5,-663 549.5,-663 543.5,-657 543.5,-651 543.5,-651 543.5,-592 543.5,-592 543.5,-586 549.5,-580 555.5,-580 555.5,-580 877.5,-580 877.5,-580 883.5,-580 889.5,-586 889.5,-592 889.5,-592 889.5,-651 889.5,-651 889.5,-657 883.5,-663 877.5,-663"/>
<text text-anchor="start" x="551.5" y="-647.8" font-family="Helvetica,sans-Serif" font-size="14.00">China Energy&#45;Intensive Output (billion $) ≤ 1751.408</text>
<text text-anchor="start" x="683" y="-632.8" font-family="Helvetica,sans-Serif" font-size="14.00">gini = 0.42</text>
<text text-anchor="start" x="669" y="-617.8" font-family="Helvetica,sans-Serif" font-size="14.00">samples = 400</text>
<text text-anchor="start" x="659.5" y="-602.8" font-family="Helvetica,sans-Serif" font-size="14.00">value = [280, 120]</text>
<text text-anchor="start" x="653" y="-587.8" font-family="Helvetica,sans-Serif" font-size="14.00">class = Low Renew.</text>
</g>
<!-- 1 -->
<g id="node2" class="node">
<title>1</title>
<path fill="#e78c4a" stroke="black" d="M629,-544C629,-544 440,-544 440,-544 434,-544 428,-538 428,-532 428,-532 428,-473 428,-473 428,-467 434,-461 440,-461 440,-461 629,-461 629,-461 635,-461 641,-467 641,-473 641,-473 641,-532 641,-532 641,-538 635,-544 629,-544"/>
<text text-anchor="start" x="436" y="-528.8" font-family="Helvetica,sans-Serif" font-size="14.00">China Coal Use (EJ) ≤ 109.044</text>
<text text-anchor="start" x="497" y="-513.8" font-family="Helvetica,sans-Serif" font-size="14.00">gini = 0.147</text>
<text text-anchor="start" x="487" y="-498.8" font-family="Helvetica,sans-Serif" font-size="14.00">samples = 275</text>
<text text-anchor="start" x="481.5" y="-483.8" font-family="Helvetica,sans-Serif" font-size="14.00">value = [253, 22]</text>
<text text-anchor="start" x="471" y="-468.8" font-family="Helvetica,sans-Serif" font-size="14.00">class = Low Renew.</text>
</g>
<!-- 0&#45;&gt;1 -->
<g id="edge1" class="edge">
<title>0&#45;&gt;1</title>
<path fill="none" stroke="black" d="M653.36,-579.91C638.11,-570.11 621.71,-559.56 606.11,-549.53"/>
<polygon fill="black" stroke="black" points="607.84,-546.48 597.53,-544.02 604.05,-552.37 607.84,-546.48"/>
<text text-anchor="middle" x="602.84" y="-564.75" font-family="Helvetica,sans-Serif" font-size="14.00">True</text>
</g>
<!-- 14 -->
<g id="node15" class="node">
<title>14</title>
<path fill="#70b8ec" stroke="black" d="M989,-544C989,-544 808,-544 808,-544 802,-544 796,-538 796,-532 796,-532 796,-473 796,-473 796,-467 802,-461 808,-461 808,-461 989,-461 989,-461 995,-461 1001,-467 1001,-473 1001,-473 1001,-532 1001,-532 1001,-538 995,-544 989,-544"/>
<text text-anchor="start" x="804" y="-528.8" font-family="Helvetica,sans-Serif" font-size="14.00">China Coal Use (EJ) ≤ 80.827</text>
<text text-anchor="start" x="861" y="-513.8" font-family="Helvetica,sans-Serif" font-size="14.00">gini = 0.339</text>
<text text-anchor="start" x="851" y="-498.8" font-family="Helvetica,sans-Serif" font-size="14.00">samples = 125</text>
<text text-anchor="start" x="850" y="-483.8" font-family="Helvetica,sans-Serif" font-size="14.00">value = [27, 98]</text>
<text text-anchor="start" x="833.5" y="-468.8" font-family="Helvetica,sans-Serif" font-size="14.00">class = High Renew.</text>
</g>
<!-- 0&#45;&gt;14 -->
<g id="edge14" class="edge">
<title>0&#45;&gt;14</title>
<path fill="none" stroke="black" d="M779.64,-579.91C794.89,-570.11 811.29,-559.56 826.89,-549.53"/>
<polygon fill="black" stroke="black" points="828.95,-552.37 835.47,-544.02 825.16,-546.48 828.95,-552.37"/>
<text text-anchor="middle" x="830.16" y="-564.75" font-family="Helvetica,sans-Serif" font-size="14.00">False</text>
</g>
<!-- 2 -->
<g id="node3" class="node">
<title>2</title>
<path fill="#e5823a" stroke="black" d="M331.5,-425C331.5,-425 167.5,-425 167.5,-425 161.5,-425 155.5,-419 155.5,-413 155.5,-413 155.5,-354 155.5,-354 155.5,-348 161.5,-342 167.5,-342 167.5,-342 331.5,-342 331.5,-342 337.5,-342 343.5,-348 343.5,-354 343.5,-354 343.5,-413 343.5,-413 343.5,-419 337.5,-425 331.5,-425"/>
<text text-anchor="start" x="163.5" y="-409.8" font-family="Helvetica,sans-Serif" font-size="14.00">China GDP Growth ≤ 0.043</text>
<text text-anchor="start" x="212" y="-394.8" font-family="Helvetica,sans-Serif" font-size="14.00">gini = 0.008</text>
<text text-anchor="start" x="202" y="-379.8" font-family="Helvetica,sans-Serif" font-size="14.00">samples = 240</text>
<text text-anchor="start" x="201" y="-364.8" font-family="Helvetica,sans-Serif" font-size="14.00">value = [239, 1]</text>
<text text-anchor="start" x="186" y="-349.8" font-family="Helvetica,sans-Serif" font-size="14.00">class = Low Renew.</text>
</g>
<!-- 1&#45;&gt;2 -->
<g id="edge2" class="edge">
<title>1&#45;&gt;2</title>
<path fill="none" stroke="black" d="M435.62,-460.91C409.01,-449.99 380.16,-438.14 353.3,-427.11"/>
<polygon fill="black" stroke="black" points="354.47,-423.81 343.89,-423.25 351.81,-430.28 354.47,-423.81"/>
</g>
<!-- 7 -->
<g id="node8" class="node">
<title>7</title>
<path fill="#bddef6" stroke="black" d="M695.5,-425C695.5,-425 373.5,-425 373.5,-425 367.5,-425 361.5,-419 361.5,-413 361.5,-413 361.5,-354 361.5,-354 361.5,-348 367.5,-342 373.5,-342 373.5,-342 695.5,-342 695.5,-342 701.5,-342 707.5,-348 707.5,-354 707.5,-354 707.5,-413 707.5,-413 707.5,-419 701.5,-425 695.5,-425"/>
<text text-anchor="start" x="369.5" y="-409.8" font-family="Helvetica,sans-Serif" font-size="14.00">China Energy&#45;Intensive Output (billion $) ≤ 1394.915</text>
<text text-anchor="start" x="501" y="-394.8" font-family="Helvetica,sans-Serif" font-size="14.00">gini = 0.48</text>
<text text-anchor="start" x="491" y="-379.8" font-family="Helvetica,sans-Serif" font-size="14.00">samples = 35</text>
<text text-anchor="start" x="486" y="-364.8" font-family="Helvetica,sans-Serif" font-size="14.00">value = [14, 21]</text>
<text text-anchor="start" x="469.5" y="-349.8" font-family="Helvetica,sans-Serif" font-size="14.00">class = High Renew.</text>
</g>
<!-- 1&#45;&gt;7 -->
<g id="edge7" class="edge">
<title>1&#45;&gt;7</title>
<path fill="none" stroke="black" d="M534.5,-460.91C534.5,-452.65 534.5,-443.86 534.5,-435.3"/>
<polygon fill="black" stroke="black" points="538,-435.02 534.5,-425.02 531,-435.02 538,-435.02"/>
</g>
<!-- 3 -->
<g id="node4" class="node">
<title>3</title>
<path fill="#e58139" stroke="black" d="M131,-298.5C131,-298.5 12,-298.5 12,-298.5 6,-298.5 0,-292.5 0,-286.5 0,-286.5 0,-242.5 0,-242.5 0,-236.5 6,-230.5 12,-230.5 12,-230.5 131,-230.5 131,-230.5 137,-230.5 143,-236.5 143,-242.5 143,-242.5 143,-286.5 143,-286.5 143,-292.5 137,-298.5 131,-298.5"/>
<text text-anchor="start" x="42.5" y="-283.3" font-family="Helvetica,sans-Serif" font-size="14.00">gini = 0.0</text>
<text text-anchor="start" x="24" y="-268.3" font-family="Helvetica,sans-Serif" font-size="14.00">samples = 235</text>
<text text-anchor="start" x="23" y="-253.3" font-family="Helvetica,sans-Serif" font-size="14.00">value = [235, 0]</text>
<text text-anchor="start" x="8" y="-238.3" font-family="Helvetica,sans-Serif" font-size="14.00">class = Low Renew.</text>
</g>
<!-- 2&#45;&gt;3 -->
<g id="edge3" class="edge">
<title>2&#45;&gt;3</title>
<path fill="none" stroke="black" d="M187.74,-341.91C169.28,-329.77 149.08,-316.49 130.78,-304.46"/>
<polygon fill="black" stroke="black" points="132.24,-301.23 121.96,-298.67 128.39,-307.08 132.24,-301.23"/>
</g>
<!-- 4 -->
<g id="node5" class="node">
<title>4</title>
<path fill="#eca06a" stroke="black" d="M337.5,-306C337.5,-306 173.5,-306 173.5,-306 167.5,-306 161.5,-300 161.5,-294 161.5,-294 161.5,-235 161.5,-235 161.5,-229 167.5,-223 173.5,-223 173.5,-223 337.5,-223 337.5,-223 343.5,-223 349.5,-229 349.5,-235 349.5,-235 349.5,-294 349.5,-294 349.5,-300 343.5,-306 337.5,-306"/>
<text text-anchor="start" x="169.5" y="-290.8" font-family="Helvetica,sans-Serif" font-size="14.00">China GDP Growth ≤ 0.043</text>
<text text-anchor="start" x="222" y="-275.8" font-family="Helvetica,sans-Serif" font-size="14.00">gini = 0.32</text>
<text text-anchor="start" x="216" y="-260.8" font-family="Helvetica,sans-Serif" font-size="14.00">samples = 5</text>
<text text-anchor="start" x="215" y="-245.8" font-family="Helvetica,sans-Serif" font-size="14.00">value = [4, 1]</text>
<text text-anchor="start" x="192" y="-230.8" font-family="Helvetica,sans-Serif" font-size="14.00">class = Low Renew.</text>
</g>
<!-- 2&#45;&gt;4 -->
<g id="edge4" class="edge">
<title>2&#45;&gt;4</title>
<path fill="none" stroke="black" d="M251.58,-341.91C252.01,-333.56 252.47,-324.67 252.91,-316.02"/>
<polygon fill="black" stroke="black" points="256.41,-316.19 253.42,-306.02 249.41,-315.83 256.41,-316.19"/>
</g>
<!-- 5 -->
<g id="node6" class="node">
<title>5</title>
<path fill="#399de5" stroke="black" d="M155.5,-179.5C155.5,-179.5 33.5,-179.5 33.5,-179.5 27.5,-179.5 21.5,-173.5 21.5,-167.5 21.5,-167.5 21.5,-123.5 21.5,-123.5 21.5,-117.5 27.5,-111.5 33.5,-111.5 33.5,-111.5 155.5,-111.5 155.5,-111.5 161.5,-111.5 167.5,-117.5 167.5,-123.5 167.5,-123.5 167.5,-167.5 167.5,-167.5 167.5,-173.5 161.5,-179.5 155.5,-179.5"/>
<text text-anchor="start" x="65.5" y="-164.3" font-family="Helvetica,sans-Serif" font-size="14.00">gini = 0.0</text>
<text text-anchor="start" x="55" y="-149.3" font-family="Helvetica,sans-Serif" font-size="14.00">samples = 1</text>
<text text-anchor="start" x="54" y="-134.3" font-family="Helvetica,sans-Serif" font-size="14.00">value = [0, 1]</text>
<text text-anchor="start" x="29.5" y="-119.3" font-family="Helvetica,sans-Serif" font-size="14.00">class = High Renew.</text>
</g>
<!-- 4&#45;&gt;5 -->
<g id="edge5" class="edge">
<title>4&#45;&gt;5</title>
<path fill="none" stroke="black" d="M199.64,-222.91C183.09,-210.88 165,-197.73 148.57,-185.79"/>
<polygon fill="black" stroke="black" points="150.29,-182.71 140.14,-179.67 146.17,-188.38 150.29,-182.71"/>
</g>
<!-- 6 -->
<g id="node7" class="node">
<title>6</title>
<path fill="#e58139" stroke="black" d="M317,-179.5C317,-179.5 198,-179.5 198,-179.5 192,-179.5 186,-173.5 186,-167.5 186,-167.5 186,-123.5 186,-123.5 186,-117.5 192,-111.5 198,-111.5 198,-111.5 317,-111.5 317,-111.5 323,-111.5 329,-117.5 329,-123.5 329,-123.5 329,-167.5 329,-167.5 329,-173.5 323,-179.5 317,-179.5"/>
<text text-anchor="start" x="228.5" y="-164.3" font-family="Helvetica,sans-Serif" font-size="14.00">gini = 0.0</text>
<text text-anchor="start" x="218" y="-149.3" font-family="Helvetica,sans-Serif" font-size="14.00">samples = 4</text>
<text text-anchor="start" x="217" y="-134.3" font-family="Helvetica,sans-Serif" font-size="14.00">value = [4, 0]</text>
<text text-anchor="start" x="194" y="-119.3" font-family="Helvetica,sans-Serif" font-size="14.00">class = Low Renew.</text>
</g>
<!-- 4&#45;&gt;6 -->
<g id="edge6" class="edge">
<title>4&#45;&gt;6</title>
<path fill="none" stroke="black" d="M256.19,-222.91C256.38,-212.2 256.57,-200.62 256.76,-189.78"/>
<polygon fill="black" stroke="black" points="260.26,-189.73 256.93,-179.67 253.26,-189.61 260.26,-189.73"/>
</g>
<!-- 8 -->
<g id="node9" class="node">
<title>8</title>
<path fill="#e58139" stroke="black" d="M509,-298.5C509,-298.5 390,-298.5 390,-298.5 384,-298.5 378,-292.5 378,-286.5 378,-286.5 378,-242.5 378,-242.5 378,-236.5 384,-230.5 390,-230.5 390,-230.5 509,-230.5 509,-230.5 515,-230.5 521,-236.5 521,-242.5 521,-242.5 521,-286.5 521,-286.5 521,-292.5 515,-298.5 509,-298.5"/>
<text text-anchor="start" x="420.5" y="-283.3" font-family="Helvetica,sans-Serif" font-size="14.00">gini = 0.0</text>
<text text-anchor="start" x="410" y="-268.3" font-family="Helvetica,sans-Serif" font-size="14.00">samples = 9</text>
<text text-anchor="start" x="409" y="-253.3" font-family="Helvetica,sans-Serif" font-size="14.00">value = [9, 0]</text>
<text text-anchor="start" x="386" y="-238.3" font-family="Helvetica,sans-Serif" font-size="14.00">class = Low Renew.</text>
</g>
<!-- 7&#45;&gt;8 -->
<g id="edge8" class="edge">
<title>7&#45;&gt;8</title>
<path fill="none" stroke="black" d="M505.01,-341.91C496.75,-330.54 487.77,-318.18 479.49,-306.77"/>
<polygon fill="black" stroke="black" points="482.3,-304.7 473.6,-298.67 476.64,-308.81 482.3,-304.7"/>
</g>
<!-- 9 -->
<g id="node10" class="node">
<title>9</title>
<path fill="#68b4eb" stroke="black" d="M734,-306C734,-306 551,-306 551,-306 545,-306 539,-300 539,-294 539,-294 539,-235 539,-235 539,-229 545,-223 551,-223 551,-223 734,-223 734,-223 740,-223 746,-229 746,-235 746,-235 746,-294 746,-294 746,-300 740,-306 734,-306"/>
<text text-anchor="start" x="547" y="-290.8" font-family="Helvetica,sans-Serif" font-size="14.00">China Population Growth ≤ 0.0</text>
<text text-anchor="start" x="605" y="-275.8" font-family="Helvetica,sans-Serif" font-size="14.00">gini = 0.311</text>
<text text-anchor="start" x="599" y="-260.8" font-family="Helvetica,sans-Serif" font-size="14.00">samples = 26</text>
<text text-anchor="start" x="598" y="-245.8" font-family="Helvetica,sans-Serif" font-size="14.00">value = [5, 21]</text>
<text text-anchor="start" x="577.5" y="-230.8" font-family="Helvetica,sans-Serif" font-size="14.00">class = High Renew.</text>
</g>
<!-- 7&#45;&gt;9 -->
<g id="edge9" class="edge">
<title>7&#45;&gt;9</title>
<path fill="none" stroke="black" d="M571.97,-341.91C580.43,-332.74 589.49,-322.93 598.2,-313.49"/>
<polygon fill="black" stroke="black" points="600.89,-315.74 605.1,-306.02 595.74,-310.99 600.89,-315.74"/>
</g>
<!-- 10 -->
<g id="node11" class="node">
<title>10</title>
<path fill="#42a2e6" stroke="black" d="M667,-187C667,-187 404,-187 404,-187 398,-187 392,-181 392,-175 392,-175 392,-116 392,-116 392,-110 398,-104 404,-104 404,-104 667,-104 667,-104 673,-104 679,-110 679,-116 679,-116 679,-175 679,-175 679,-181 673,-187 667,-187"/>
<text text-anchor="start" x="400" y="-171.8" font-family="Helvetica,sans-Serif" font-size="14.00">China Total Primary Energy (EJ) ≤ 320.926</text>
<text text-anchor="start" x="498" y="-156.8" font-family="Helvetica,sans-Serif" font-size="14.00">gini = 0.087</text>
<text text-anchor="start" x="492" y="-141.8" font-family="Helvetica,sans-Serif" font-size="14.00">samples = 22</text>
<text text-anchor="start" x="491" y="-126.8" font-family="Helvetica,sans-Serif" font-size="14.00">value = [1, 21]</text>
<text text-anchor="start" x="470.5" y="-111.8" font-family="Helvetica,sans-Serif" font-size="14.00">class = High Renew.</text>
</g>
<!-- 9&#45;&gt;10 -->
<g id="edge10" class="edge">
<title>9&#45;&gt;10</title>
<path fill="none" stroke="black" d="M605.38,-222.91C596.99,-213.74 588.02,-203.93 579.39,-194.49"/>
<polygon fill="black" stroke="black" points="581.89,-192.04 572.56,-187.02 576.72,-196.76 581.89,-192.04"/>
</g>
<!-- 13 -->
<g id="node14" class="node">
<title>13</title>
<path fill="#e58139" stroke="black" d="M828,-179.5C828,-179.5 709,-179.5 709,-179.5 703,-179.5 697,-173.5 697,-167.5 697,-167.5 697,-123.5 697,-123.5 697,-117.5 703,-111.5 709,-111.5 709,-111.5 828,-111.5 828,-111.5 834,-111.5 840,-117.5 840,-123.5 840,-123.5 840,-167.5 840,-167.5 840,-173.5 834,-179.5 828,-179.5"/>
<text text-anchor="start" x="739.5" y="-164.3" font-family="Helvetica,sans-Serif" font-size="14.00">gini = 0.0</text>
<text text-anchor="start" x="729" y="-149.3" font-family="Helvetica,sans-Serif" font-size="14.00">samples = 4</text>
<text text-anchor="start" x="728" y="-134.3" font-family="Helvetica,sans-Serif" font-size="14.00">value = [4, 0]</text>
<text text-anchor="start" x="705" y="-119.3" font-family="Helvetica,sans-Serif" font-size="14.00">class = Low Renew.</text>
</g>
<!-- 9&#45;&gt;13 -->
<g id="edge13" class="edge">
<title>9&#45;&gt;13</title>
<path fill="none" stroke="black" d="M686.22,-222.91C698.81,-211.21 712.55,-198.46 725.12,-186.78"/>
<polygon fill="black" stroke="black" points="727.84,-189.04 732.78,-179.67 723.07,-183.91 727.84,-189.04"/>
</g>
<!-- 11 -->
<g id="node12" class="node">
<title>11</title>
<path fill="#e58139" stroke="black" d="M513,-68C513,-68 394,-68 394,-68 388,-68 382,-62 382,-56 382,-56 382,-12 382,-12 382,-6 388,0 394,0 394,0 513,0 513,0 519,0 525,-6 525,-12 525,-12 525,-56 525,-56 525,-62 519,-68 513,-68"/>
<text text-anchor="start" x="424.5" y="-52.8" font-family="Helvetica,sans-Serif" font-size="14.00">gini = 0.0</text>
<text text-anchor="start" x="414" y="-37.8" font-family="Helvetica,sans-Serif" font-size="14.00">samples = 1</text>
<text text-anchor="start" x="413" y="-22.8" font-family="Helvetica,sans-Serif" font-size="14.00">value = [1, 0]</text>
<text text-anchor="start" x="390" y="-7.8" font-family="Helvetica,sans-Serif" font-size="14.00">class = Low Renew.</text>
</g>
<!-- 10&#45;&gt;11 -->
<g id="edge11" class="edge">
<title>10&#45;&gt;11</title>
<path fill="none" stroke="black" d="M504.97,-103.73C498.27,-94.79 491.18,-85.32 484.47,-76.36"/>
<polygon fill="black" stroke="black" points="487.23,-74.21 478.44,-68.3 481.63,-78.4 487.23,-74.21"/>
</g>
<!-- 12 -->
<g id="node13" class="node">
<title>12</title>
<path fill="#399de5" stroke="black" d="M677.5,-68C677.5,-68 555.5,-68 555.5,-68 549.5,-68 543.5,-62 543.5,-56 543.5,-56 543.5,-12 543.5,-12 543.5,-6 549.5,0 555.5,0 555.5,0 677.5,0 677.5,0 683.5,0 689.5,-6 689.5,-12 689.5,-12 689.5,-56 689.5,-56 689.5,-62 683.5,-68 677.5,-68"/>
<text text-anchor="start" x="587.5" y="-52.8" font-family="Helvetica,sans-Serif" font-size="14.00">gini = 0.0</text>
<text text-anchor="start" x="573" y="-37.8" font-family="Helvetica,sans-Serif" font-size="14.00">samples = 21</text>
<text text-anchor="start" x="572" y="-22.8" font-family="Helvetica,sans-Serif" font-size="14.00">value = [0, 21]</text>
<text text-anchor="start" x="551.5" y="-7.8" font-family="Helvetica,sans-Serif" font-size="14.00">class = High Renew.</text>
</g>
<!-- 10&#45;&gt;12 -->
<g id="edge12" class="edge">
<title>10&#45;&gt;12</title>
<path fill="none" stroke="black" d="M565.66,-103.73C572.27,-94.79 579.28,-85.32 585.91,-76.36"/>
<polygon fill="black" stroke="black" points="588.73,-78.42 591.87,-68.3 583.11,-74.26 588.73,-78.42"/>
</g>
<!-- 15 -->
<g id="node16" class="node">
<title>15</title>
<path fill="#ea995e" stroke="black" d="M1059.5,-425C1059.5,-425 737.5,-425 737.5,-425 731.5,-425 725.5,-419 725.5,-413 725.5,-413 725.5,-354 725.5,-354 725.5,-348 731.5,-342 737.5,-342 737.5,-342 1059.5,-342 1059.5,-342 1065.5,-342 1071.5,-348 1071.5,-354 1071.5,-354 1071.5,-413 1071.5,-413 1071.5,-419 1065.5,-425 1059.5,-425"/>
<text text-anchor="start" x="733.5" y="-409.8" font-family="Helvetica,sans-Serif" font-size="14.00">China Energy&#45;Intensive Output (billion $) ≤ 2211.193</text>
<text text-anchor="start" x="861" y="-394.8" font-family="Helvetica,sans-Serif" font-size="14.00">gini = 0.266</text>
<text text-anchor="start" x="855" y="-379.8" font-family="Helvetica,sans-Serif" font-size="14.00">samples = 19</text>
<text text-anchor="start" x="854" y="-364.8" font-family="Helvetica,sans-Serif" font-size="14.00">value = [16, 3]</text>
<text text-anchor="start" x="835" y="-349.8" font-family="Helvetica,sans-Serif" font-size="14.00">class = Low Renew.</text>
</g>
<!-- 14&#45;&gt;15 -->
<g id="edge15" class="edge">
<title>14&#45;&gt;15</title>
<path fill="none" stroke="black" d="M898.5,-460.91C898.5,-452.65 898.5,-443.86 898.5,-435.3"/>
<polygon fill="black" stroke="black" points="902,-435.02 898.5,-425.02 895,-435.02 902,-435.02"/>
</g>
<!-- 18 -->
<g id="node19" class="node">
<title>18</title>
<path fill="#50a8e8" stroke="black" d="M1355.5,-425C1355.5,-425 1101.5,-425 1101.5,-425 1095.5,-425 1089.5,-419 1089.5,-413 1089.5,-413 1089.5,-354 1089.5,-354 1089.5,-348 1095.5,-342 1101.5,-342 1101.5,-342 1355.5,-342 1355.5,-342 1361.5,-342 1367.5,-348 1367.5,-354 1367.5,-354 1367.5,-413 1367.5,-413 1367.5,-419 1361.5,-425 1355.5,-425"/>
<text text-anchor="start" x="1097.5" y="-409.8" font-family="Helvetica,sans-Serif" font-size="14.00">China Total Primary Energy (EJ) ≤ 350.59</text>
<text text-anchor="start" x="1191" y="-394.8" font-family="Helvetica,sans-Serif" font-size="14.00">gini = 0.186</text>
<text text-anchor="start" x="1181" y="-379.8" font-family="Helvetica,sans-Serif" font-size="14.00">samples = 106</text>
<text text-anchor="start" x="1180" y="-364.8" font-family="Helvetica,sans-Serif" font-size="14.00">value = [11, 95]</text>
<text text-anchor="start" x="1163.5" y="-349.8" font-family="Helvetica,sans-Serif" font-size="14.00">class = High Renew.</text>
</g>
<!-- 14&#45;&gt;18 -->
<g id="edge18" class="edge">
<title>14&#45;&gt;18</title>
<path fill="none" stroke="black" d="M1001.11,-465.12C1033.88,-453.5 1070.5,-440.52 1104.62,-428.42"/>
<polygon fill="black" stroke="black" points="1105.92,-431.67 1114.17,-425.03 1103.58,-425.08 1105.92,-431.67"/>
</g>
<!-- 16 -->
<g id="node17" class="node">
<title>16</title>
<path fill="#e58139" stroke="black" d="M903,-298.5C903,-298.5 784,-298.5 784,-298.5 778,-298.5 772,-292.5 772,-286.5 772,-286.5 772,-242.5 772,-242.5 772,-236.5 778,-230.5 784,-230.5 784,-230.5 903,-230.5 903,-230.5 909,-230.5 915,-236.5 915,-242.5 915,-242.5 915,-286.5 915,-286.5 915,-292.5 909,-298.5 903,-298.5"/>
<text text-anchor="start" x="814.5" y="-283.3" font-family="Helvetica,sans-Serif" font-size="14.00">gini = 0.0</text>
<text text-anchor="start" x="800" y="-268.3" font-family="Helvetica,sans-Serif" font-size="14.00">samples = 16</text>
<text text-anchor="start" x="799" y="-253.3" font-family="Helvetica,sans-Serif" font-size="14.00">value = [16, 0]</text>
<text text-anchor="start" x="780" y="-238.3" font-family="Helvetica,sans-Serif" font-size="14.00">class = Low Renew.</text>
</g>
<!-- 15&#45;&gt;16 -->
<g id="edge16" class="edge">
<title>15&#45;&gt;16</title>
<path fill="none" stroke="black" d="M879.42,-341.91C874.23,-330.87 868.6,-318.9 863.37,-307.77"/>
<polygon fill="black" stroke="black" points="866.51,-306.23 859.09,-298.67 860.18,-309.21 866.51,-306.23"/>
</g>
<!-- 17 -->
<g id="node18" class="node">
<title>17</title>
<path fill="#399de5" stroke="black" d="M1067.5,-298.5C1067.5,-298.5 945.5,-298.5 945.5,-298.5 939.5,-298.5 933.5,-292.5 933.5,-286.5 933.5,-286.5 933.5,-242.5 933.5,-242.5 933.5,-236.5 939.5,-230.5 945.5,-230.5 945.5,-230.5 1067.5,-230.5 1067.5,-230.5 1073.5,-230.5 1079.5,-236.5 1079.5,-242.5 1079.5,-242.5 1079.5,-286.5 1079.5,-286.5 1079.5,-292.5 1073.5,-298.5 1067.5,-298.5"/>
<text text-anchor="start" x="977.5" y="-283.3" font-family="Helvetica,sans-Serif" font-size="14.00">gini = 0.0</text>
<text text-anchor="start" x="967" y="-268.3" font-family="Helvetica,sans-Serif" font-size="14.00">samples = 3</text>
<text text-anchor="start" x="966" y="-253.3" font-family="Helvetica,sans-Serif" font-size="14.00">value = [0, 3]</text>
<text text-anchor="start" x="941.5" y="-238.3" font-family="Helvetica,sans-Serif" font-size="14.00">class = High Renew.</text>
</g>
<!-- 15&#45;&gt;17 -->
<g id="edge17" class="edge">
<title>15&#45;&gt;17</title>
<path fill="none" stroke="black" d="M935.97,-341.91C946.67,-330.32 958.32,-317.7 969.01,-306.11"/>
<polygon fill="black" stroke="black" points="971.67,-308.39 975.88,-298.67 966.53,-303.64 971.67,-308.39"/>
</g>
<!-- 19 -->
<g id="node20" class="node">
<title>19</title>
<path fill="#ffffff" stroke="black" d="M1320,-306C1320,-306 1131,-306 1131,-306 1125,-306 1119,-300 1119,-294 1119,-294 1119,-235 1119,-235 1119,-229 1125,-223 1131,-223 1131,-223 1320,-223 1320,-223 1326,-223 1332,-229 1332,-235 1332,-235 1332,-294 1332,-294 1332,-300 1326,-306 1320,-306"/>
<text text-anchor="start" x="1127" y="-290.8" font-family="Helvetica,sans-Serif" font-size="14.00">China Coal Use (EJ) ≤ 101.856</text>
<text text-anchor="start" x="1196.5" y="-275.8" font-family="Helvetica,sans-Serif" font-size="14.00">gini = 0.5</text>
<text text-anchor="start" x="1182" y="-260.8" font-family="Helvetica,sans-Serif" font-size="14.00">samples = 16</text>
<text text-anchor="start" x="1185" y="-245.8" font-family="Helvetica,sans-Serif" font-size="14.00">value = [8, 8]</text>
<text text-anchor="start" x="1162" y="-230.8" font-family="Helvetica,sans-Serif" font-size="14.00">class = Low Renew.</text>
</g>
<!-- 18&#45;&gt;19 -->
<g id="edge19" class="edge">
<title>18&#45;&gt;19</title>
<path fill="none" stroke="black" d="M1227.46,-341.91C1227.25,-333.56 1227.02,-324.67 1226.8,-316.02"/>
<polygon fill="black" stroke="black" points="1230.29,-315.93 1226.54,-306.02 1223.3,-316.11 1230.29,-315.93"/>
</g>
<!-- 24 -->
<g id="node25" class="node">
<title>24</title>
<path fill="#40a0e6" stroke="black" d="M1684.5,-306C1684.5,-306 1362.5,-306 1362.5,-306 1356.5,-306 1350.5,-300 1350.5,-294 1350.5,-294 1350.5,-235 1350.5,-235 1350.5,-229 1356.5,-223 1362.5,-223 1362.5,-223 1684.5,-223 1684.5,-223 1690.5,-223 1696.5,-229 1696.5,-235 1696.5,-235 1696.5,-294 1696.5,-294 1696.5,-300 1690.5,-306 1684.5,-306"/>
<text text-anchor="start" x="1358.5" y="-290.8" font-family="Helvetica,sans-Serif" font-size="14.00">China Energy&#45;Intensive Output (billion $) ≤ 1913.124</text>
<text text-anchor="start" x="1486" y="-275.8" font-family="Helvetica,sans-Serif" font-size="14.00">gini = 0.064</text>
<text text-anchor="start" x="1480" y="-260.8" font-family="Helvetica,sans-Serif" font-size="14.00">samples = 90</text>
<text text-anchor="start" x="1479" y="-245.8" font-family="Helvetica,sans-Serif" font-size="14.00">value = [3, 87]</text>
<text text-anchor="start" x="1458.5" y="-230.8" font-family="Helvetica,sans-Serif" font-size="14.00">class = High Renew.</text>
</g>
<!-- 18&#45;&gt;24 -->
<g id="edge24" class="edge">
<title>18&#45;&gt;24</title>
<path fill="none" stroke="black" d="M1330.85,-341.91C1357.05,-331.52 1385.35,-320.29 1411.99,-309.73"/>
<polygon fill="black" stroke="black" points="1413.33,-312.96 1421.33,-306.02 1410.75,-306.45 1413.33,-312.96"/>
</g>
<!-- 20 -->
<g id="node21" class="node">
<title>20</title>
<path fill="#e89152" stroke="black" d="M1214.5,-187C1214.5,-187 892.5,-187 892.5,-187 886.5,-187 880.5,-181 880.5,-175 880.5,-175 880.5,-116 880.5,-116 880.5,-110 886.5,-104 892.5,-104 892.5,-104 1214.5,-104 1214.5,-104 1220.5,-104 1226.5,-110 1226.5,-116 1226.5,-116 1226.5,-175 1226.5,-175 1226.5,-181 1220.5,-187 1214.5,-187"/>
<text text-anchor="start" x="888.5" y="-171.8" font-family="Helvetica,sans-Serif" font-size="14.00">China Energy&#45;Intensive Output (billion $) ≤ 1889.456</text>
<text text-anchor="start" x="1016" y="-156.8" font-family="Helvetica,sans-Serif" font-size="14.00">gini = 0.198</text>
<text text-anchor="start" x="1014" y="-141.8" font-family="Helvetica,sans-Serif" font-size="14.00">samples = 9</text>
<text text-anchor="start" x="1013" y="-126.8" font-family="Helvetica,sans-Serif" font-size="14.00">value = [8, 1]</text>
<text text-anchor="start" x="990" y="-111.8" font-family="Helvetica,sans-Serif" font-size="14.00">class = Low Renew.</text>
</g>
<!-- 19&#45;&gt;20 -->
<g id="edge20" class="edge">
<title>19&#45;&gt;20</title>
<path fill="none" stroke="black" d="M1165.83,-222.91C1151.55,-213.2 1136.2,-202.76 1121.58,-192.81"/>
<polygon fill="black" stroke="black" points="1123.31,-189.75 1113.07,-187.02 1119.37,-195.54 1123.31,-189.75"/>
</g>
<!-- 23 -->
<g id="node24" class="node">
<title>23</title>
<path fill="#399de5" stroke="black" d="M1378.5,-179.5C1378.5,-179.5 1256.5,-179.5 1256.5,-179.5 1250.5,-179.5 1244.5,-173.5 1244.5,-167.5 1244.5,-167.5 1244.5,-123.5 1244.5,-123.5 1244.5,-117.5 1250.5,-111.5 1256.5,-111.5 1256.5,-111.5 1378.5,-111.5 1378.5,-111.5 1384.5,-111.5 1390.5,-117.5 1390.5,-123.5 1390.5,-123.5 1390.5,-167.5 1390.5,-167.5 1390.5,-173.5 1384.5,-179.5 1378.5,-179.5"/>
<text text-anchor="start" x="1288.5" y="-164.3" font-family="Helvetica,sans-Serif" font-size="14.00">gini = 0.0</text>
<text text-anchor="start" x="1278" y="-149.3" font-family="Helvetica,sans-Serif" font-size="14.00">samples = 7</text>
<text text-anchor="start" x="1277" y="-134.3" font-family="Helvetica,sans-Serif" font-size="14.00">value = [0, 7]</text>
<text text-anchor="start" x="1252.5" y="-119.3" font-family="Helvetica,sans-Serif" font-size="14.00">class = High Renew.</text>
</g>
<!-- 19&#45;&gt;23 -->
<g id="edge23" class="edge">
<title>19&#45;&gt;23</title>
<path fill="none" stroke="black" d="M1257.42,-222.91C1266.36,-211.54 1276.08,-199.18 1285.05,-187.77"/>
<polygon fill="black" stroke="black" points="1287.99,-189.69 1291.42,-179.67 1282.49,-185.36 1287.99,-189.69"/>
</g>
<!-- 21 -->
<g id="node22" class="node">
<title>21</title>
<path fill="#e58139" stroke="black" d="M1032,-68C1032,-68 913,-68 913,-68 907,-68 901,-62 901,-56 901,-56 901,-12 901,-12 901,-6 907,0 913,0 913,0 1032,0 1032,0 1038,0 1044,-6 1044,-12 1044,-12 1044,-56 1044,-56 1044,-62 1038,-68 1032,-68"/>
<text text-anchor="start" x="943.5" y="-52.8" font-family="Helvetica,sans-Serif" font-size="14.00">gini = 0.0</text>
<text text-anchor="start" x="933" y="-37.8" font-family="Helvetica,sans-Serif" font-size="14.00">samples = 7</text>
<text text-anchor="start" x="932" y="-22.8" font-family="Helvetica,sans-Serif" font-size="14.00">value = [7, 0]</text>
<text text-anchor="start" x="909" y="-7.8" font-family="Helvetica,sans-Serif" font-size="14.00">class = Low Renew.</text>
</g>
<!-- 20&#45;&gt;21 -->
<g id="edge21" class="edge">
<title>20&#45;&gt;21</title>
<path fill="none" stroke="black" d="M1023.34,-103.73C1016.73,-94.79 1009.72,-85.32 1003.09,-76.36"/>
<polygon fill="black" stroke="black" points="1005.89,-74.26 997.13,-68.3 1000.27,-78.42 1005.89,-74.26"/>
</g>
<!-- 22 -->
<g id="node23" class="node">
<title>22</title>
<path fill="#ffffff" stroke="black" d="M1193,-68C1193,-68 1074,-68 1074,-68 1068,-68 1062,-62 1062,-56 1062,-56 1062,-12 1062,-12 1062,-6 1068,0 1074,0 1074,0 1193,0 1193,0 1199,0 1205,-6 1205,-12 1205,-12 1205,-56 1205,-56 1205,-62 1199,-68 1193,-68"/>
<text text-anchor="start" x="1104.5" y="-52.8" font-family="Helvetica,sans-Serif" font-size="14.00">gini = 0.5</text>
<text text-anchor="start" x="1094" y="-37.8" font-family="Helvetica,sans-Serif" font-size="14.00">samples = 2</text>
<text text-anchor="start" x="1093" y="-22.8" font-family="Helvetica,sans-Serif" font-size="14.00">value = [1, 1]</text>
<text text-anchor="start" x="1070" y="-7.8" font-family="Helvetica,sans-Serif" font-size="14.00">class = Low Renew.</text>
</g>
<!-- 20&#45;&gt;22 -->
<g id="edge22" class="edge">
<title>20&#45;&gt;22</title>
<path fill="none" stroke="black" d="M1083.29,-103.73C1089.75,-94.88 1096.6,-85.51 1103.09,-76.63"/>
<polygon fill="black" stroke="black" points="1106.1,-78.44 1109.17,-68.3 1100.45,-74.31 1106.1,-78.44"/>
</g>
<!-- 25 -->
<g id="node26" class="node">
<title>25</title>
<path fill="#67b4eb" stroke="black" d="M1613,-187C1613,-187 1432,-187 1432,-187 1426,-187 1420,-181 1420,-175 1420,-175 1420,-116 1420,-116 1420,-110 1426,-104 1432,-104 1432,-104 1613,-104 1613,-104 1619,-104 1625,-110 1625,-116 1625,-116 1625,-175 1625,-175 1625,-181 1619,-187 1613,-187"/>
<text text-anchor="start" x="1428" y="-171.8" font-family="Helvetica,sans-Serif" font-size="14.00">China Coal Use (EJ) ≤ 95.539</text>
<text text-anchor="start" x="1485" y="-156.8" font-family="Helvetica,sans-Serif" font-size="14.00">gini = 0.305</text>
<text text-anchor="start" x="1479" y="-141.8" font-family="Helvetica,sans-Serif" font-size="14.00">samples = 16</text>
<text text-anchor="start" x="1478" y="-126.8" font-family="Helvetica,sans-Serif" font-size="14.00">value = [3, 13]</text>
<text text-anchor="start" x="1457.5" y="-111.8" font-family="Helvetica,sans-Serif" font-size="14.00">class = High Renew.</text>
</g>
<!-- 24&#45;&gt;25 -->
<g id="edge25" class="edge">
<title>24&#45;&gt;25</title>
<path fill="none" stroke="black" d="M1523.15,-222.91C1523.08,-214.65 1523.01,-205.86 1522.93,-197.3"/>
<polygon fill="black" stroke="black" points="1526.43,-196.99 1522.85,-187.02 1519.43,-197.05 1526.43,-196.99"/>
</g>
<!-- 28 -->
<g id="node29" class="node">
<title>28</title>
<path fill="#399de5" stroke="black" d="M1777.5,-179.5C1777.5,-179.5 1655.5,-179.5 1655.5,-179.5 1649.5,-179.5 1643.5,-173.5 1643.5,-167.5 1643.5,-167.5 1643.5,-123.5 1643.5,-123.5 1643.5,-117.5 1649.5,-111.5 1655.5,-111.5 1655.5,-111.5 1777.5,-111.5 1777.5,-111.5 1783.5,-111.5 1789.5,-117.5 1789.5,-123.5 1789.5,-123.5 1789.5,-167.5 1789.5,-167.5 1789.5,-173.5 1783.5,-179.5 1777.5,-179.5"/>
<text text-anchor="start" x="1687.5" y="-164.3" font-family="Helvetica,sans-Serif" font-size="14.00">gini = 0.0</text>
<text text-anchor="start" x="1673" y="-149.3" font-family="Helvetica,sans-Serif" font-size="14.00">samples = 74</text>
<text text-anchor="start" x="1672" y="-134.3" font-family="Helvetica,sans-Serif" font-size="14.00">value = [0, 74]</text>
<text text-anchor="start" x="1651.5" y="-119.3" font-family="Helvetica,sans-Serif" font-size="14.00">class = High Renew.</text>
</g>
<!-- 24&#45;&gt;28 -->
<g id="edge28" class="edge">
<title>24&#45;&gt;28</title>
<path fill="none" stroke="black" d="M1590.46,-222.91C1610.76,-210.6 1632.98,-197.13 1653.04,-184.97"/>
<polygon fill="black" stroke="black" points="1655.05,-187.84 1661.79,-179.67 1651.42,-181.86 1655.05,-187.84"/>
</g>
<!-- 26 -->
<g id="node27" class="node">
<title>26</title>
<path fill="#e58139" stroke="black" d="M1500,-68C1500,-68 1381,-68 1381,-68 1375,-68 1369,-62 1369,-56 1369,-56 1369,-12 1369,-12 1369,-6 1375,0 1381,0 1381,0 1500,0 1500,0 1506,0 1512,-6 1512,-12 1512,-12 1512,-56 1512,-56 1512,-62 1506,-68 1500,-68"/>
<text text-anchor="start" x="1411.5" y="-52.8" font-family="Helvetica,sans-Serif" font-size="14.00">gini = 0.0</text>
<text text-anchor="start" x="1401" y="-37.8" font-family="Helvetica,sans-Serif" font-size="14.00">samples = 3</text>
<text text-anchor="start" x="1400" y="-22.8" font-family="Helvetica,sans-Serif" font-size="14.00">value = [3, 0]</text>
<text text-anchor="start" x="1377" y="-7.8" font-family="Helvetica,sans-Serif" font-size="14.00">class = Low Renew.</text>
</g>
<!-- 25&#45;&gt;26 -->
<g id="edge26" class="edge">
<title>25&#45;&gt;26</title>
<path fill="none" stroke="black" d="M1491.97,-103.73C1485.27,-94.79 1478.18,-85.32 1471.47,-76.36"/>
<polygon fill="black" stroke="black" points="1474.23,-74.21 1465.44,-68.3 1468.63,-78.4 1474.23,-74.21"/>
</g>
<!-- 27 -->
<g id="node28" class="node">
<title>27</title>
<path fill="#399de5" stroke="black" d="M1664.5,-68C1664.5,-68 1542.5,-68 1542.5,-68 1536.5,-68 1530.5,-62 1530.5,-56 1530.5,-56 1530.5,-12 1530.5,-12 1530.5,-6 1536.5,0 1542.5,0 1542.5,0 1664.5,0 1664.5,0 1670.5,0 1676.5,-6 1676.5,-12 1676.5,-12 1676.5,-56 1676.5,-56 1676.5,-62 1670.5,-68 1664.5,-68"/>
<text text-anchor="start" x="1574.5" y="-52.8" font-family="Helvetica,sans-Serif" font-size="14.00">gini = 0.0</text>
<text text-anchor="start" x="1560" y="-37.8" font-family="Helvetica,sans-Serif" font-size="14.00">samples = 13</text>
<text text-anchor="start" x="1559" y="-22.8" font-family="Helvetica,sans-Serif" font-size="14.00">value = [0, 13]</text>
<text text-anchor="start" x="1538.5" y="-7.8" font-family="Helvetica,sans-Serif" font-size="14.00">class = High Renew.</text>
</g>
<!-- 25&#45;&gt;27 -->
<g id="edge27" class="edge">
<title>25&#45;&gt;27</title>
<path fill="none" stroke="black" d="M1552.66,-103.73C1559.27,-94.79 1566.28,-85.32 1572.91,-76.36"/>
<polygon fill="black" stroke="black" points="1575.73,-78.42 1578.87,-68.3 1570.11,-74.26 1575.73,-78.42"/>
</g>
</g>
</svg>
