<?xml version="1.0" encoding="utf-8" standalone="no"?>
<!DOCTYPE svg PUBLIC "-//W3C//DTD SVG 1.1//EN"
  "http://www.w3.org/Graphics/SVG/1.1/DTD/svg11.dtd">
<svg xmlns:xlink="http://www.w3.org/1999/xlink" width="460.8pt" height="345.6pt" viewBox="0 0 460.8 345.6" xmlns="http://www.w3.org/2000/svg" version="1.1">
 <metadata>
  <rdf:RDF xmlns:dc="http://purl.org/dc/elements/1.1/" xmlns:cc="http://creativecommons.org/ns#" xmlns:rdf="http://www.w3.org/1999/02/22-rdf-syntax-ns#">
   <cc:Work>
    <dc:type rdf:resource="http://purl.org/dc/dcmitype/StillImage"/>
    <dc:date>2023-07-03T19:20:11.128465</dc:date>
    <dc:format>image/svg+xml</dc:format>
    <dc:creator>
     <cc:Agent>
      <dc:title>Matplotlib v3.5.2, https://matplotlib.org/</dc:title>
     </cc:Agent>
    </dc:creator>
   </cc:Work>
  </rdf:RDF>
 </metadata>
 <defs>
  <style type="text/css">*{stroke-linejoin: round; stroke-linecap: butt}</style>
 </defs>
 <g id="figure_1">
  <g id="patch_1">
   <path d="M 0 345.6 
L 460.8 345.6 
L 460.8 0 
L 0 0 
z
" style="fill: #ffffff"/>
  </g>
  <g id="axes_1">
   <g id="patch_2">
    <path d="M 73.832727 307.584 
L 91.869091 307.584 
L 91.869091 302.976 
L 73.832727 302.976 
z
" clip-path="url(#pc804614679)" style="fill: #1f77b4; fill-opacity: 0.75; stroke: #000000; stroke-linejoin: miter"/>
   </g>
   <g id="patch_3">
    <path d="M 91.869091 307.584 
L 109.905455 307.584 
L 109.905455 307.584 
L 91.869091 307.584 
z
" clip-path="url(#pc804614679)" style="fill: #1f77b4; fill-opacity: 0.75; stroke: #000000; stroke-linejoin: miter"/>
   </g>
   <g id="patch_4">
    <path d="M 109.905455 307.584 
L 127.941818 307.584 
L 127.941818 302.976 
L 109.905455 302.976 
z
" clip-path="url(#pc804614679)" style="fill: #1f77b4; fill-opacity: 0.75; stroke: #000000; stroke-linejoin: miter"/>
   </g>
   <g id="patch_5">
    <path d="M 127.941818 307.584 
L 145.978182 307.584 
L 145.978182 289.152 
L 127.941818 289.152 
z
" clip-path="url(#pc804614679)" style="fill: #1f77b4; fill-opacity: 0.75; stroke: #000000; stroke-linejoin: miter"/>
   </g>
   <g id="patch_6">
    <path d="M 145.978182 307.584 
L 164.014545 307.584 
L 164.014545 270.72 
L 145.978182 270.72 
z
" clip-path="url(#pc804614679)" style="fill: #1f77b4; fill-opacity: 0.75; stroke: #000000; stroke-linejoin: miter"/>
   </g>
   <g id="patch_7">
    <path d="M 164.014545 307.584 
L 182.050909 307.584 
L 182.050909 238.464 
L 164.014545 238.464 
z
" clip-path="url(#pc804614679)" style="fill: #1f77b4; fill-opacity: 0.75; stroke: #000000; stroke-linejoin: miter"/>
   </g>
   <g id="patch_8">
    <path d="M 182.050909 307.584 
L 200.087273 307.584 
L 200.087273 187.776 
L 182.050909 187.776 
z
" clip-path="url(#pc804614679)" style="fill: #1f77b4; fill-opacity: 0.75; stroke: #000000; stroke-linejoin: miter"/>
   </g>
   <g id="patch_9">
    <path d="M 200.087273 307.584 
L 218.123636 307.584 
L 218.123636 141.696 
L 200.087273 141.696 
z
" clip-path="url(#pc804614679)" style="fill: #1f77b4; fill-opacity: 0.75; stroke: #000000; stroke-linejoin: miter"/>
   </g>
   <g id="patch_10">
    <path d="M 218.123636 307.584 
L 236.16 307.584 
L 236.16 86.4 
L 218.123636 86.4 
z
" clip-path="url(#pc804614679)" style="fill: #1f77b4; fill-opacity: 0.75; stroke: #000000; stroke-linejoin: miter"/>
   </g>
   <g id="patch_11">
    <path d="M 236.16 307.584 
L 254.196364 307.584 
L 254.196364 54.144 
L 236.16 54.144 
z
" clip-path="url(#pc804614679)" style="fill: #1f77b4; fill-opacity: 0.75; stroke: #000000; stroke-linejoin: miter"/>
   </g>
   <g id="patch_12">
    <path d="M 254.196364 307.584 
L 272.232727 307.584 
L 272.232727 67.968 
L 254.196364 67.968 
z
" clip-path="url(#pc804614679)" style="fill: #1f77b4; fill-opacity: 0.75; stroke: #000000; stroke-linejoin: miter"/>
   </g>
   <g id="patch_13">
    <path d="M 272.232727 307.584 
L 290.269091 307.584 
L 290.269091 81.792 
L 272.232727 81.792 
z
" clip-path="url(#pc804614679)" style="fill: #1f77b4; fill-opacity: 0.75; stroke: #000000; stroke-linejoin: miter"/>
   </g>
   <g id="patch_14">
    <path d="M 290.269091 307.584 
L 308.305455 307.584 
L 308.305455 127.872 
L 290.269091 127.872 
z
" clip-path="url(#pc804614679)" style="fill: #1f77b4; fill-opacity: 0.75; stroke: #000000; stroke-linejoin: miter"/>
   </g>
   <g id="patch_15">
    <path d="M 308.305455 307.584 
L 326.341818 307.584 
L 326.341818 183.168 
L 308.305455 183.168 
z
" clip-path="url(#pc804614679)" style="fill: #1f77b4; fill-opacity: 0.75; stroke: #000000; stroke-linejoin: miter"/>
   </g>
   <g id="patch_16">
    <path d="M 326.341818 307.584 
L 344.378182 307.584 
L 344.378182 229.248 
L 326.341818 229.248 
z
" clip-path="url(#pc804614679)" style="fill: #1f77b4; fill-opacity: 0.75; stroke: #000000; stroke-linejoin: miter"/>
   </g>
   <g id="patch_17">
    <path d="M 344.378182 307.584 
L 362.414545 307.584 
L 362.414545 266.112 
L 344.378182 266.112 
z
" clip-path="url(#pc804614679)" style="fill: #1f77b4; fill-opacity: 0.75; stroke: #000000; stroke-linejoin: miter"/>
   </g>
   <g id="patch_18">
    <path d="M 362.414545 307.584 
L 380.450909 307.584 
L 380.450909 289.152 
L 362.414545 289.152 
z
" clip-path="url(#pc804614679)" style="fill: #1f77b4; fill-opacity: 0.75; stroke: #000000; stroke-linejoin: miter"/>
   </g>
   <g id="patch_19">
    <path d="M 380.450909 307.584 
L 398.487273 307.584 
L 398.487273 293.76 
L 380.450909 293.76 
z
" clip-path="url(#pc804614679)" style="fill: #1f77b4; fill-opacity: 0.75; stroke: #000000; stroke-linejoin: miter"/>
   </g>
  </g>
 </g>
 <defs>
  <clipPath id="pc804614679">
   <rect x="57.6" y="41.472" width="357.12" height="266.112"/>
  </clipPath>
 </defs>
</svg>
