<?xml version="1.0" encoding="utf-8"?>
<!-- Generator: Adobe Illustrator 26.2.1, SVG Export Plug-In . SVG Version: 6.00 Build 0)  -->
<svg version="1.1" id="Layer_1" xmlns="http://www.w3.org/2000/svg" xmlns:xlink="http://www.w3.org/1999/xlink" x="0px" y="0px"
	 viewBox="0 0 1200 500" style="enable-background:new 0 0 1200 500;" xml:space="preserve">
<style type="text/css">
	.st0{fill:#FFFFFF;}
	.st1{fill-opacity:0;}
	.st2{fill:url(#SVGID_1_);}
	.st3{fill:#2A3F5F;}
	.st4{font-family:'LatinoURW-Reg';}
	.st5{font-size:12px;}
	.st6{font-size:14px;}
	.st7{fill:none;}
	.st8{fill:none;stroke:#000000;stroke-opacity:0.25;}
	.st9{font-size:10px;}
	.st10{fill:#FFFF00;fill-opacity:0;}
	.st11{fill:none;stroke:#FFFFFF;stroke-width:5;stroke-dasharray:0,360;}
	.st12{fill:none;stroke:#FF00FF;stroke-width:3;stroke-dasharray:0,360;}
	.st13{opacity:0.5;}
	.st14{clip-path:url(#SVGID_00000104707416468764506570000016529996725081668024_);fill:#1F77B4;fill-opacity:0.75;stroke:#000000;}
	.st15{clip-path:url(#SVGID_00000132807481332403946660000005906718901154180007_);fill:#1F77B4;fill-opacity:0.75;stroke:#000000;}
	.st16{clip-path:url(#SVGID_00000043445218509928755560000013608061305874603678_);fill:#1F77B4;fill-opacity:0.75;stroke:#000000;}
	.st17{clip-path:url(#SVGID_00000169530492828063412790000017613074327059253672_);fill:#1F77B4;fill-opacity:0.75;stroke:#000000;}
	.st18{clip-path:url(#SVGID_00000061468401722055352060000015351036952047918235_);fill:#1F77B4;fill-opacity:0.75;stroke:#000000;}
	.st19{clip-path:url(#SVGID_00000038400799503005023570000012239299930020028052_);fill:#1F77B4;fill-opacity:0.75;stroke:#000000;}
	.st20{clip-path:url(#SVGID_00000000916676402655299760000015078077799464083354_);fill:#1F77B4;fill-opacity:0.75;stroke:#000000;}
	.st21{clip-path:url(#SVGID_00000128455001367946307030000013172367272934202556_);fill:#1F77B4;fill-opacity:0.75;stroke:#000000;}
	.st22{clip-path:url(#SVGID_00000166645648345077752960000004904493899603394737_);fill:#1F77B4;fill-opacity:0.75;stroke:#000000;}
	.st23{clip-path:url(#SVGID_00000155844104265055562310000015591421907984565910_);fill:#1F77B4;fill-opacity:0.75;stroke:#000000;}
	.st24{clip-path:url(#SVGID_00000016067344868146850110000005500195002510488765_);fill:#1F77B4;fill-opacity:0.75;stroke:#000000;}
	.st25{clip-path:url(#SVGID_00000026123095320082642950000012025783138227647891_);fill:#1F77B4;fill-opacity:0.75;stroke:#000000;}
	.st26{clip-path:url(#SVGID_00000096781637423791557400000014332781878313900198_);fill:#1F77B4;fill-opacity:0.75;stroke:#000000;}
	.st27{clip-path:url(#SVGID_00000112612763368748643020000006509748679534962330_);fill:#1F77B4;fill-opacity:0.75;stroke:#000000;}
	.st28{clip-path:url(#SVGID_00000018924543121079056860000007864138105621889723_);fill:#1F77B4;fill-opacity:0.75;stroke:#000000;}
	.st29{clip-path:url(#SVGID_00000029746836900191716580000015576882344867834559_);fill:#1F77B4;fill-opacity:0.75;stroke:#000000;}
	.st30{clip-path:url(#SVGID_00000119098012547236703970000010321723783345594240_);fill:#1F77B4;fill-opacity:0.75;stroke:#000000;}
	.st31{clip-path:url(#SVGID_00000098909439844835646800000009135681008697257399_);fill:#1F77B4;fill-opacity:0.75;stroke:#000000;}
	.st32{clip-path:url(#SVGID_00000160148193249721408020000011229817484473883541_);fill:#1F77B4;fill-opacity:0.75;stroke:#000000;}
	.st33{clip-path:url(#SVGID_00000068661926215803051350000017805144984699302811_);fill:#1F77B4;fill-opacity:0.75;stroke:#000000;}
	.st34{clip-path:url(#SVGID_00000069392175778743465660000000786545931524044693_);fill:#1F77B4;fill-opacity:0.75;stroke:#000000;}
	.st35{clip-path:url(#SVGID_00000121990008883366860640000005010873791137412530_);fill:#1F77B4;fill-opacity:0.75;stroke:#000000;}
	.st36{clip-path:url(#SVGID_00000030463684611338126590000007098408522664361641_);fill:#1F77B4;fill-opacity:0.75;stroke:#000000;}
	.st37{clip-path:url(#SVGID_00000181053957080684377040000013044617201136491392_);fill:#1F77B4;fill-opacity:0.75;stroke:#000000;}
	.st38{clip-path:url(#SVGID_00000037667234050472305640000005612575011831356303_);fill:#1F77B4;fill-opacity:0.75;stroke:#000000;}
	.st39{clip-path:url(#SVGID_00000156578443589772336130000011436307793546059904_);fill:#1F77B4;fill-opacity:0.75;stroke:#000000;}
	.st40{clip-path:url(#SVGID_00000133500269438706578300000013000213681064723617_);fill:#1F77B4;fill-opacity:0.75;stroke:#000000;}
</style>
<rect class="st0" width="1200" height="500"/>
<g>
	<g>
		
			<image style="overflow:visible;enable-background:new    ;" width="2400" height="1000" xlink:href="A1EEE39.png"  transform="matrix(0.5 0 0 0.5 0 0)">
		</image>
		
			<image style="overflow:visible;enable-background:new    ;" width="2400" height="1000" xlink:href="A1EEE3B.png"  transform="matrix(0.5 0 0 0.5 0 0)">
		</image>
	</g>
	<g>
		<g transform="translate(80,60)">
			<rect x="914" y="130" class="st1" width="194" height="100"/>
			<g transform="translate(0,162)">
				
					<linearGradient id="SVGID_1_" gradientUnits="userSpaceOnUse" x1="204.7" y1="421.5" x2="204.7" y2="422.5" gradientTransform="matrix(30 0 0 -58 -5202 24505)">
					<stop  offset="0" style="stop-color:#785EF0"/>
					<stop  offset="0.5" style="stop-color:#785EF0"/>
					<stop  offset="0.5" style="stop-color:#FFB000"/>
					<stop  offset="1" style="stop-color:#FFB000"/>
				</linearGradient>
				<rect x="924" class="st2" width="30" height="58"/>
			</g>
			<g transform="translate(0,162)">
			</g>
			<g transform="translate(0,-60)">
				<g>
					<text transform="matrix(1 0 0 1 956.9 269.7)" class="st3 st4 st5">&lt; 70th Percentile Share</text>
				</g>
				<g>
					<text transform="matrix(1 0 0 1 956.9 240.7)" class="st3 st4 st5">&gt; 70th Percentile Share</text>
				</g>
			</g>
			<g transform="translate(-80,-60)">
				<g transform="">
					<text transform="matrix(1 0 0 1 1003.92 213.5)" class="st3 st4 st6">Share</text>
				</g>
			</g>
			<rect x="924" y="162" class="st7" width="30" height="58"/>
		</g>
	</g>
	<g transform="">
		<g transform="translate(80,60)">
			<g transform="">
				<g>
					<g>
						<g transform="translate(0,341.8149683210394)">
							<line class="st8" x1="0" y1="0" x2="-4" y2="0"/>
							<text transform="matrix(1 0 0 1 -23.3525 3.2)" class="st3 st4 st9">0.6</text>
						</g>
						<g transform="translate(0,283.4964320944784)">
							<line class="st8" x1="0" y1="0" x2="-4" y2="0"/>
							<text transform="matrix(1 0 0 1 -23.3525 3.2)" class="st3 st4 st9">0.8</text>
						</g>
						<g transform="translate(0,225.17789586791736)">
							<line class="st8" x1="0" y1="0" x2="-4" y2="0"/>
							<text transform="matrix(1 0 0 1 -13.3574 3.2)" class="st3 st4 st9">1</text>
						</g>
						<g transform="translate(0,166.85935964135635)">
							<line class="st8" x1="0" y1="0" x2="-4" y2="0"/>
							<text transform="matrix(1 0 0 1 -23.3525 3.2)" class="st3 st4 st9">1.2</text>
						</g>
						<g transform="translate(0,108.54082341479534)">
							<line class="st8" x1="0" y1="0" x2="-4" y2="0"/>
							<text transform="matrix(1 0 0 1 -23.3525 3.2)" class="st3 st4 st9">1.4</text>
						</g>
						<g transform="translate(0,50.22228718823429)">
							<line class="st8" x1="0" y1="0" x2="-4" y2="0"/>
							<text transform="matrix(1 0 0 1 -23.3525 3.2)" class="st3 st4 st9">1.6</text>
						</g>
						<path class="st8" d="M-2,2h2v356h-2"/>
					</g>
					<g>
						<text transform="matrix(1 0 0 1 -22.0801 -28)" class="st3 st4 st9">WindGas</text>
					</g>
					<g>
						<g transform="translate(0,-10)">
							<text transform="matrix(1 0 0 1 -17.7124 0)" class="st3 st4 st9">1.7654</text>
						</g>
						<g transform="translate(0,370)">
							<text transform="matrix(1 0 0 1 -17.7124 7.5)" class="st3 st4 st9">0.5445</text>
						</g>
					</g>
					<g>
						<rect x="-5" y="2" class="st10" width="10" height="358"/>
						<line class="st11" x1="0" y1="360" x2="0" y2="0"/>
						<line class="st12" x1="0" y1="360" x2="0" y2="0"/>
					</g>
				</g>
			</g>
			<g transform="translate(224,0)">
				<g>
					<g>
						<g transform="translate(0,354.35643215547367)">
							<line class="st8" x1="0" y1="0" x2="-4" y2="0"/>
							<text transform="matrix(1 0 0 1 -23.3525 3.2)" class="st3 st4 st9">0.4</text>
						</g>
						<g transform="translate(0,316.78594852324403)">
							<line class="st8" x1="0" y1="0" x2="-4" y2="0"/>
							<text transform="matrix(1 0 0 1 -23.3525 3.2)" class="st3 st4 st9">0.6</text>
						</g>
						<g transform="translate(0,279.2154648910144)">
							<line class="st8" x1="0" y1="0" x2="-4" y2="0"/>
							<text transform="matrix(1 0 0 1 -23.3525 3.2)" class="st3 st4 st9">0.8</text>
						</g>
						<g transform="translate(0,241.64498125878475)">
							<line class="st8" x1="0" y1="0" x2="-4" y2="0"/>
							<text transform="matrix(1 0 0 1 -13.3574 3.2)" class="st3 st4 st9">1</text>
						</g>
						<g transform="translate(0,204.07449762655514)">
							<line class="st8" x1="0" y1="0" x2="-4" y2="0"/>
							<text transform="matrix(1 0 0 1 -23.3525 3.2)" class="st3 st4 st9">1.2</text>
						</g>
						<g transform="translate(0,166.5040139943255)">
							<line class="st8" x1="0" y1="0" x2="-4" y2="0"/>
							<text transform="matrix(1 0 0 1 -23.3525 3.2)" class="st3 st4 st9">1.4</text>
						</g>
						<g transform="translate(0,128.93353036209584)">
							<line class="st8" x1="0" y1="0" x2="-4" y2="0"/>
							<text transform="matrix(1 0 0 1 -23.3525 3.2)" class="st3 st4 st9">1.6</text>
						</g>
						<g transform="translate(0,91.36304672986623)">
							<line class="st8" x1="0" y1="0" x2="-4" y2="0"/>
							<text transform="matrix(1 0 0 1 -23.3525 3.2)" class="st3 st4 st9">1.8</text>
						</g>
						<g transform="translate(0,53.792563097636595)">
							<line class="st8" x1="0" y1="0" x2="-4" y2="0"/>
							<text transform="matrix(1 0 0 1 -13.3574 3.2)" class="st3 st4 st9">2</text>
						</g>
						<g transform="translate(0,16.222079465406924)">
							<line class="st8" x1="0" y1="0" x2="-4" y2="0"/>
							<text transform="matrix(1 0 0 1 -23.3525 3.2)" class="st3 st4 st9">2.2</text>
						</g>
						<path class="st8" d="M-2,2h2v356h-2"/>
					</g>
					<g>
						<text transform="matrix(1 0 0 1 -20.4297 -28)" class="st3 st4 st9">WindBio</text>
					</g>
					<g>
						<g transform="translate(0,-10)">
							<text transform="matrix(1 0 0 1 -17.7124 0)" class="st3 st4 st9">2.2757</text>
						</g>
						<g transform="translate(0,370)">
							<text transform="matrix(1 0 0 1 -17.7124 7.5)" class="st3 st4 st9">0.3806</text>
						</g>
					</g>
					<g>
						<rect x="-5" y="2" class="st10" width="10" height="358"/>
						<line class="st11" x1="0" y1="360" x2="0" y2="0"/>
						<line class="st12" x1="0" y1="360" x2="0" y2="0"/>
					</g>
				</g>
			</g>
			<g transform="translate(448,0)">
				<g>
					<g>
						<g transform="translate(0,332.08604962986715)">
							<line class="st8" x1="0" y1="0" x2="-4" y2="0"/>
							<text transform="matrix(1 0 0 1 -23.3525 3.2)" class="st3 st4 st9">0.7</text>
						</g>
						<g transform="translate(0,285.457238903736)">
							<line class="st8" x1="0" y1="0" x2="-4" y2="0"/>
							<text transform="matrix(1 0 0 1 -23.3525 3.2)" class="st3 st4 st9">0.8</text>
						</g>
						<g transform="translate(0,238.82842817760485)">
							<line class="st8" x1="0" y1="0" x2="-4" y2="0"/>
							<text transform="matrix(1 0 0 1 -23.3525 3.2)" class="st3 st4 st9">0.9</text>
						</g>
						<g transform="translate(0,192.1996174514737)">
							<line class="st8" x1="0" y1="0" x2="-4" y2="0"/>
							<text transform="matrix(1 0 0 1 -13.3574 3.2)" class="st3 st4 st9">1</text>
						</g>
						<g transform="translate(0,145.57080672534246)">
							<line class="st8" x1="0" y1="0" x2="-4" y2="0"/>
							<text transform="matrix(1 0 0 1 -23.3525 3.2)" class="st3 st4 st9">1.1</text>
						</g>
						<g transform="translate(0,98.94199599921139)">
							<line class="st8" x1="0" y1="0" x2="-4" y2="0"/>
							<text transform="matrix(1 0 0 1 -23.3525 3.2)" class="st3 st4 st9">1.2</text>
						</g>
						<g transform="translate(0,52.31318527308017)">
							<line class="st8" x1="0" y1="0" x2="-4" y2="0"/>
							<text transform="matrix(1 0 0 1 -23.3525 3.2)" class="st3 st4 st9">1.3</text>
						</g>
						<g transform="translate(0,5.6843745469490825)">
							<line class="st8" x1="0" y1="0" x2="-4" y2="0"/>
							<text transform="matrix(1 0 0 1 -23.3525 3.2)" class="st3 st4 st9">1.4</text>
						</g>
						<path class="st8" d="M-2,2h2v356h-2"/>
					</g>
					<g>
						<text transform="matrix(1 0 0 1 -6.5063 -28)" class="st3 st4 st9">PC</text>
					</g>
					<g>
						<g transform="translate(0,-10)">
							<text transform="matrix(1 0 0 1 -17.7124 0)" class="st3 st4 st9">1.4079</text>
						</g>
						<g transform="translate(0,370)">
							<text transform="matrix(1 0 0 1 -20.8911 7.5)" class="st3 st4 st9">0.64443</text>
						</g>
					</g>
					<g>
						<rect x="-5" y="2" class="st10" width="10" height="358"/>
						<line class="st11" x1="0" y1="360" x2="0" y2="0"/>
						<line class="st12" x1="0" y1="360" x2="0" y2="0"/>
					</g>
				</g>
			</g>
			<g transform="translate(672,0)">
				<g>
					<g>
						<g transform="translate(0,343.34175676513354)">
							<line class="st8" x1="0" y1="0" x2="-4" y2="0"/>
							<text transform="matrix(1 0 0 1 -23.3525 3.2)" class="st3 st4 st9">0.2</text>
						</g>
						<g transform="translate(0,269.75779201597265)">
							<line class="st8" x1="0" y1="0" x2="-4" y2="0"/>
							<text transform="matrix(1 0 0 1 -23.3525 3.2)" class="st3 st4 st9">0.4</text>
						</g>
						<g transform="translate(0,196.17382726681177)">
							<line class="st8" x1="0" y1="0" x2="-4" y2="0"/>
							<text transform="matrix(1 0 0 1 -23.3525 3.2)" class="st3 st4 st9">0.6</text>
						</g>
						<g transform="translate(0,122.58986251765083)">
							<line class="st8" x1="0" y1="0" x2="-4" y2="0"/>
							<text transform="matrix(1 0 0 1 -23.3525 3.2)" class="st3 st4 st9">0.8</text>
						</g>
						<g transform="translate(0,49.00589776848995)">
							<line class="st8" x1="0" y1="0" x2="-4" y2="0"/>
							<text transform="matrix(1 0 0 1 -13.3574 3.2)" class="st3 st4 st9">1</text>
						</g>
						<path class="st8" d="M-2,2h2v356h-2"/>
					</g>
					<g>
						<text transform="matrix(1 0 0 1 -12.3438 -28)" class="st3 st4 st9">VINT</text>
					</g>
					<g>
						<g transform="translate(0,-10)">
							<text transform="matrix(1 0 0 1 -20.8911 0)" class="st3 st4 st9">1.12776</text>
						</g>
						<g transform="translate(0,370)">
							<text transform="matrix(1 0 0 1 -20.8911 7.5)" class="st3 st4 st9">0.16016</text>
						</g>
					</g>
					<g>
						<rect x="-5" y="2" class="st10" width="10" height="358"/>
						<line class="st11" x1="0" y1="360" x2="0" y2="0"/>
						<line class="st12" x1="0" y1="360" x2="0" y2="0"/>
					</g>
				</g>
			</g>
			<g transform="translate(896,0)">
				<g>
					<g>
						<g transform="translate(0,348.2836976140333)">
							<line class="st8" x1="0" y1="0" x2="-4" y2="0"/>
							<text transform="matrix(1 0 0 1 -23.3525 3.2)" class="st3 st4 st9">0.2</text>
						</g>
						<g transform="translate(0,306.72088569612055)">
							<line class="st8" x1="0" y1="0" x2="-4" y2="0"/>
							<text transform="matrix(1 0 0 1 -29.71 3.2)" class="st3 st4 st9">0.25</text>
						</g>
						<g transform="translate(0,265.1580737782077)">
							<line class="st8" x1="0" y1="0" x2="-4" y2="0"/>
							<text transform="matrix(1 0 0 1 -23.3525 3.2)" class="st3 st4 st9">0.3</text>
						</g>
						<g transform="translate(0,223.59526186029493)">
							<line class="st8" x1="0" y1="0" x2="-4" y2="0"/>
							<text transform="matrix(1 0 0 1 -29.71 3.2)" class="st3 st4 st9">0.35</text>
						</g>
						<g transform="translate(0,182.0324499423821)">
							<line class="st8" x1="0" y1="0" x2="-4" y2="0"/>
							<text transform="matrix(1 0 0 1 -23.3525 3.2)" class="st3 st4 st9">0.4</text>
						</g>
						<g transform="translate(0,140.46963802446933)">
							<line class="st8" x1="0" y1="0" x2="-4" y2="0"/>
							<text transform="matrix(1 0 0 1 -29.71 3.2)" class="st3 st4 st9">0.45</text>
						</g>
						<g transform="translate(0,98.90682610655652)">
							<line class="st8" x1="0" y1="0" x2="-4" y2="0"/>
							<text transform="matrix(1 0 0 1 -23.3525 3.2)" class="st3 st4 st9">0.5</text>
						</g>
						<g transform="translate(0,57.34401418864368)">
							<line class="st8" x1="0" y1="0" x2="-4" y2="0"/>
							<text transform="matrix(1 0 0 1 -29.71 3.2)" class="st3 st4 st9">0.55</text>
						</g>
						<g transform="translate(0,15.781202270730974)">
							<line class="st8" x1="0" y1="0" x2="-4" y2="0"/>
							<text transform="matrix(1 0 0 1 -23.3525 3.2)" class="st3 st4 st9">0.6</text>
						</g>
						<path class="st8" d="M-2,2h2v356h-2"/>
					</g>
					<g>
						<text transform="matrix(1 0 0 1 -14.6973 -28)" class="st3 st4 st9">Share</text>
					</g>
					<g>
						<g transform="translate(0,-10)">
							<text transform="matrix(1 0 0 1 -20.8911 0)" class="st3 st4 st9">0.61658</text>
						</g>
						<g transform="translate(0,370)">
							<text transform="matrix(1 0 0 1 -20.8911 7.5)" class="st3 st4 st9">0.18831</text>
						</g>
					</g>
					<g>
						<rect x="-5" y="2" class="st10" width="10" height="358"/>
						<line class="st11" x1="0" y1="360" x2="0" y2="0"/>
						<line class="st12" x1="0" y1="360" x2="0" y2="0"/>
					</g>
				</g>
			</g>
		</g>
	</g>
</g>
<g id="figure_1" class="st13">
	<g id="axes_1">
		<g id="patch_2">
			<g>
				<defs>
					<rect id="SVGID_00000036942290815618441770000010841469247953146499_" x="752" y="44.4" width="72.9" height="391.5"/>
				</defs>
				<clipPath id="SVGID_00000011709423640556628080000012916182078312303776_">
					<use xlink:href="#SVGID_00000036942290815618441770000010841469247953146499_"  style="overflow:visible;"/>
				</clipPath>
				
					<path style="clip-path:url(#SVGID_00000011709423640556628080000012916182078312303776_);fill:#1F77B4;fill-opacity:0.75;stroke:#000000;" d="
					M756.6,418.2v-20.9H752v20.9H756.6z"/>
			</g>
		</g>
		<g id="patch_3">
			<g>
				<defs>
					<rect id="SVGID_00000165223841241449301270000008051383855397273217_" x="752" y="44.4" width="72.9" height="391.5"/>
				</defs>
				<clipPath id="SVGID_00000086678669296576833250000001441768516430535838_">
					<use xlink:href="#SVGID_00000165223841241449301270000008051383855397273217_"  style="overflow:visible;"/>
				</clipPath>
				
					<path style="clip-path:url(#SVGID_00000086678669296576833250000001441768516430535838_);fill:#1F77B4;fill-opacity:0.75;stroke:#000000;" d="
					M765.9,397.2v-20.9H752v20.9H765.9z"/>
			</g>
		</g>
		<g id="patch_4">
			<g>
				<defs>
					<rect id="SVGID_00000101783164898879523780000003127600372461577890_" x="752" y="44.4" width="72.9" height="391.5"/>
				</defs>
				<clipPath id="SVGID_00000029742631469712941890000008650447039828962183_">
					<use xlink:href="#SVGID_00000101783164898879523780000003127600372461577890_"  style="overflow:visible;"/>
				</clipPath>
				
					<path style="clip-path:url(#SVGID_00000029742631469712941890000008650447039828962183_);fill:#1F77B4;fill-opacity:0.75;stroke:#000000;" d="
					M784.4,376.3v-20.9H752v20.9H784.4z"/>
			</g>
		</g>
		<g id="patch_5">
			<g>
				<defs>
					<rect id="SVGID_00000087401478137114841840000005889863795965936267_" x="752" y="44.4" width="72.9" height="391.5"/>
				</defs>
				<clipPath id="SVGID_00000081634844720645918110000011088811958637776290_">
					<use xlink:href="#SVGID_00000087401478137114841840000005889863795965936267_"  style="overflow:visible;"/>
				</clipPath>
				
					<path style="clip-path:url(#SVGID_00000081634844720645918110000011088811958637776290_);fill:#1F77B4;fill-opacity:0.75;stroke:#000000;" d="
					M804.1,355.4v-20.9H752v20.9H804.1z"/>
			</g>
		</g>
		<g id="patch_6">
			<g>
				<defs>
					<rect id="SVGID_00000057865526734885454700000011759272919325479074_" x="752" y="44.4" width="72.9" height="391.5"/>
				</defs>
				<clipPath id="SVGID_00000064317642749884637180000013745165439642876857_">
					<use xlink:href="#SVGID_00000057865526734885454700000011759272919325479074_"  style="overflow:visible;"/>
				</clipPath>
				
					<path style="clip-path:url(#SVGID_00000064317642749884637180000013745165439642876857_);fill:#1F77B4;fill-opacity:0.75;stroke:#000000;" d="
					M814.5,334.4v-20.9H752v20.9H814.5z"/>
			</g>
		</g>
		<g id="patch_7">
			<g>
				<defs>
					<rect id="SVGID_00000174594297802770813690000005631641663515672992_" x="752" y="44.4" width="72.9" height="391.5"/>
				</defs>
				<clipPath id="SVGID_00000079464161455006381580000015338743124963231415_">
					<use xlink:href="#SVGID_00000174594297802770813690000005631641663515672992_"  style="overflow:visible;"/>
				</clipPath>
				
					<path style="clip-path:url(#SVGID_00000079464161455006381580000015338743124963231415_);fill:#1F77B4;fill-opacity:0.75;stroke:#000000;" d="
					M821.5,313.5v-20.9H752v20.9H821.5z"/>
			</g>
		</g>
		<g id="patch_8">
			<g>
				<defs>
					<rect id="SVGID_00000148657706193532571720000005800075425467143349_" x="752" y="44.4" width="72.9" height="391.5"/>
				</defs>
				<clipPath id="SVGID_00000119092997545113150100000010856545934793447088_">
					<use xlink:href="#SVGID_00000148657706193532571720000005800075425467143349_"  style="overflow:visible;"/>
				</clipPath>
				
					<path style="clip-path:url(#SVGID_00000119092997545113150100000010856545934793447088_);fill:#1F77B4;fill-opacity:0.75;stroke:#000000;" d="
					M814.5,292.5v-20.9H752v20.9H814.5z"/>
			</g>
		</g>
		<g id="patch_9">
			<g>
				<defs>
					<rect id="SVGID_00000060732642019322067140000003374796580236296881_" x="752" y="44.4" width="72.9" height="391.5"/>
				</defs>
				<clipPath id="SVGID_00000080194744874982654990000016094448373930818971_">
					<use xlink:href="#SVGID_00000060732642019322067140000003374796580236296881_"  style="overflow:visible;"/>
				</clipPath>
				
					<path style="clip-path:url(#SVGID_00000080194744874982654990000016094448373930818971_);fill:#1F77B4;fill-opacity:0.75;stroke:#000000;" d="
					M805.3,271.6v-20.9H752v20.9H805.3z"/>
			</g>
		</g>
		<g id="patch_10">
			<g>
				<defs>
					<rect id="SVGID_00000096054350024021329450000017366922687037955005_" x="752" y="44.4" width="72.9" height="391.5"/>
				</defs>
				<clipPath id="SVGID_00000133528447799881751080000016925054684217729181_">
					<use xlink:href="#SVGID_00000096054350024021329450000017366922687037955005_"  style="overflow:visible;"/>
				</clipPath>
				
					<path style="clip-path:url(#SVGID_00000133528447799881751080000016925054684217729181_);fill:#1F77B4;fill-opacity:0.75;stroke:#000000;" d="
					M790.2,250.7v-20.9H752v20.9H790.2z"/>
			</g>
		</g>
		<g id="patch_11">
			<g>
				<defs>
					<rect id="SVGID_00000063613640555837663620000013506702877403302024_" x="752" y="44.4" width="72.9" height="391.5"/>
				</defs>
				<clipPath id="SVGID_00000060728507122777275310000013260464420367353749_">
					<use xlink:href="#SVGID_00000063613640555837663620000013506702877403302024_"  style="overflow:visible;"/>
				</clipPath>
				
					<path style="clip-path:url(#SVGID_00000060728507122777275310000013260464420367353749_);fill:#1F77B4;fill-opacity:0.75;stroke:#000000;" d="
					M780.9,229.7v-20.9H752v20.9H780.9z"/>
			</g>
		</g>
		<g id="patch_12">
			<g>
				<defs>
					<rect id="SVGID_00000168811222622578196700000005961248398494869677_" x="752" y="44.4" width="72.9" height="391.5"/>
				</defs>
				<clipPath id="SVGID_00000063599079725274049500000014121998852935398306_">
					<use xlink:href="#SVGID_00000168811222622578196700000005961248398494869677_"  style="overflow:visible;"/>
				</clipPath>
				
					<path style="clip-path:url(#SVGID_00000063599079725274049500000014121998852935398306_);fill:#1F77B4;fill-opacity:0.75;stroke:#000000;" d="
					M770.5,208.8v-20.9H752v20.9H770.5z"/>
			</g>
		</g>
		<g id="patch_13">
			<g>
				<defs>
					<rect id="SVGID_00000132055278372000294990000017293108812397769124_" x="752" y="44.4" width="72.9" height="391.5"/>
				</defs>
				<clipPath id="SVGID_00000041279393811945169630000007008962039910714536_">
					<use xlink:href="#SVGID_00000132055278372000294990000017293108812397769124_"  style="overflow:visible;"/>
				</clipPath>
				
					<path style="clip-path:url(#SVGID_00000041279393811945169630000007008962039910714536_);fill:#1F77B4;fill-opacity:0.75;stroke:#000000;" d="
					M762.4,187.9v-20.9H752v20.9H762.4z"/>
			</g>
		</g>
		<g id="patch_14">
			<g>
				<defs>
					<rect id="SVGID_00000096751221340136120400000017698819049806827420_" x="752" y="44.4" width="72.9" height="391.5"/>
				</defs>
				<clipPath id="SVGID_00000068657599578595202320000001914507365512050312_">
					<use xlink:href="#SVGID_00000096751221340136120400000017698819049806827420_"  style="overflow:visible;"/>
				</clipPath>
				
					<path style="clip-path:url(#SVGID_00000068657599578595202320000001914507365512050312_);fill:#1F77B4;fill-opacity:0.75;stroke:#000000;" d="
					M758.9,166.9V146H752v20.9H758.9z"/>
			</g>
		</g>
		<g id="patch_15">
			<g>
				<defs>
					<rect id="SVGID_00000163785702842902371740000006432628895586155929_" x="752" y="44.4" width="72.9" height="391.5"/>
				</defs>
				<clipPath id="SVGID_00000169552269732049730570000014405492270162943657_">
					<use xlink:href="#SVGID_00000163785702842902371740000006432628895586155929_"  style="overflow:visible;"/>
				</clipPath>
				
					<path style="clip-path:url(#SVGID_00000169552269732049730570000014405492270162943657_);fill:#1F77B4;fill-opacity:0.75;stroke:#000000;" d="
					M756.6,146V125H752V146H756.6z"/>
			</g>
		</g>
		<g id="patch_16">
			<g>
				<defs>
					<rect id="SVGID_00000007410299626984517600000004332729357153587331_" x="752" y="44.4" width="72.9" height="391.5"/>
				</defs>
				<clipPath id="SVGID_00000132066128460968171080000014789423440575627412_">
					<use xlink:href="#SVGID_00000007410299626984517600000004332729357153587331_"  style="overflow:visible;"/>
				</clipPath>
				
					<path style="clip-path:url(#SVGID_00000132066128460968171080000014789423440575627412_);fill:#1F77B4;fill-opacity:0.75;stroke:#000000;" d="
					M754.3,125v-20.9H752V125H754.3z"/>
			</g>
		</g>
		<g id="patch_17">
			<g>
				<defs>
					<rect id="SVGID_00000140695376146611151990000012857422233734945198_" x="752" y="44.4" width="72.9" height="391.5"/>
				</defs>
				<clipPath id="SVGID_00000124160934464614334950000004197436813618157188_">
					<use xlink:href="#SVGID_00000140695376146611151990000012857422233734945198_"  style="overflow:visible;"/>
				</clipPath>
				
					<path style="clip-path:url(#SVGID_00000124160934464614334950000004197436813618157188_);fill:#1F77B4;fill-opacity:0.75;stroke:#000000;" d="
					M752,83.2L752,83.2v20.9V83.2z"/>
			</g>
		</g>
		<g id="patch_18">
			<g>
				<defs>
					<rect id="SVGID_00000055691350147273062660000003067365193599457952_" x="752" y="44.4" width="72.9" height="391.5"/>
				</defs>
				<clipPath id="SVGID_00000041973817028066698230000018143458638682438329_">
					<use xlink:href="#SVGID_00000055691350147273062660000003067365193599457952_"  style="overflow:visible;"/>
				</clipPath>
				
					<path style="clip-path:url(#SVGID_00000041973817028066698230000018143458638682438329_);fill:#1F77B4;fill-opacity:0.75;stroke:#000000;" d="
					M754.3,83.2V62.2H752v20.9H754.3z"/>
			</g>
		</g>
	</g>
</g>
<g id="figure_1_00000031191460098434136100000018298837587741326771_" class="st13">
	<g id="axes_1_00000116231288414439828130000005441963813807056542_">
		<g id="patch_2_00000065059132823354609440000004662830922529486507_">
			<g>
				<defs>
					<rect id="SVGID_00000078761650339319156320000002273629025217778826_" x="528" y="44.4" width="72.7" height="390.4"/>
				</defs>
				<clipPath id="SVGID_00000042018264518808288980000003241701805621894550_">
					<use xlink:href="#SVGID_00000078761650339319156320000002273629025217778826_"  style="overflow:visible;"/>
				</clipPath>
				
					<path style="clip-path:url(#SVGID_00000042018264518808288980000003241701805621894550_);fill:#1F77B4;fill-opacity:0.75;stroke:#000000;" d="
					M597.3,417v-35.5H528V417H597.3z"/>
			</g>
		</g>
		<g id="patch_3_00000048491090393715756410000007696095252406484637_">
			<g>
				<defs>
					<rect id="SVGID_00000020388259299235249610000014910421281425108380_" x="528" y="44.4" width="72.7" height="390.4"/>
				</defs>
				<clipPath id="SVGID_00000011746741635971789740000017056252401247341488_">
					<use xlink:href="#SVGID_00000020388259299235249610000014910421281425108380_"  style="overflow:visible;"/>
				</clipPath>
				
					<path style="clip-path:url(#SVGID_00000011746741635971789740000017056252401247341488_);fill:#1F77B4;fill-opacity:0.75;stroke:#000000;" d="
					M594.1,381.5V346H528v35.5H594.1z"/>
			</g>
		</g>
		<g id="patch_4_00000010297710989568211150000003864415277596340383_">
			<g>
				<defs>
					<rect id="SVGID_00000092414400500414522720000001002202099751468172_" x="528" y="44.4" width="72.7" height="390.4"/>
				</defs>
				<clipPath id="SVGID_00000034808948023881168420000004076670064587055243_">
					<use xlink:href="#SVGID_00000092414400500414522720000001002202099751468172_"  style="overflow:visible;"/>
				</clipPath>
				
					<path style="clip-path:url(#SVGID_00000034808948023881168420000004076670064587055243_);fill:#1F77B4;fill-opacity:0.75;stroke:#000000;" d="
					M595.7,346v-35.5H528V346H595.7z"/>
			</g>
		</g>
		<g id="patch_5_00000140736630786679056840000010335579243853850558_">
			<g>
				<defs>
					<rect id="SVGID_00000176756208059813663270000016850645020902601857_" x="528" y="44.4" width="72.7" height="390.4"/>
				</defs>
				<clipPath id="SVGID_00000163073028576361317800000005909684341269642170_">
					<use xlink:href="#SVGID_00000176756208059813663270000016850645020902601857_"  style="overflow:visible;"/>
				</clipPath>
				
					<path style="clip-path:url(#SVGID_00000163073028576361317800000005909684341269642170_);fill:#1F77B4;fill-opacity:0.75;stroke:#000000;" d="
					M594.1,310.5V275H528v35.5H594.1z"/>
			</g>
		</g>
		<g id="patch_6_00000155122830028971517590000009427395905250504330_">
			<g>
				<defs>
					<rect id="SVGID_00000160192833753269904830000007203259317102988961_" x="528" y="44.4" width="72.7" height="390.4"/>
				</defs>
				<clipPath id="SVGID_00000079460445866566974860000004136916943944102784_">
					<use xlink:href="#SVGID_00000160192833753269904830000007203259317102988961_"  style="overflow:visible;"/>
				</clipPath>
				
					<path style="clip-path:url(#SVGID_00000079460445866566974860000004136916943944102784_);fill:#1F77B4;fill-opacity:0.75;stroke:#000000;" d="
					M592.5,275v-35.5H528V275H592.5z"/>
			</g>
		</g>
		<g id="patch_7_00000154400048851608754190000010799556497922671806_">
			<g>
				<defs>
					<rect id="SVGID_00000044878869706788330000000010077702444738208429_" x="528" y="44.4" width="72.7" height="390.4"/>
				</defs>
				<clipPath id="SVGID_00000173143382638351254060000017108281197747122867_">
					<use xlink:href="#SVGID_00000044878869706788330000000010077702444738208429_"  style="overflow:visible;"/>
				</clipPath>
				
					<path style="clip-path:url(#SVGID_00000173143382638351254060000017108281197747122867_);fill:#1F77B4;fill-opacity:0.75;stroke:#000000;" d="
					M587.8,239.5v-35.5H528v35.5H587.8z"/>
			</g>
		</g>
		<g id="patch_8_00000144321880585909361690000003566125592514924672_">
			<g>
				<defs>
					<rect id="SVGID_00000039832781507938627020000002902575502579270025_" x="528" y="44.4" width="72.7" height="390.4"/>
				</defs>
				<clipPath id="SVGID_00000060736095537422369680000017575776866674440580_">
					<use xlink:href="#SVGID_00000039832781507938627020000002902575502579270025_"  style="overflow:visible;"/>
				</clipPath>
				
					<path style="clip-path:url(#SVGID_00000060736095537422369680000017575776866674440580_);fill:#1F77B4;fill-opacity:0.75;stroke:#000000;" d="
					M586.2,204.1v-35.5H528v35.5H586.2z"/>
			</g>
		</g>
		<g id="patch_9_00000158004635249951986770000007688946625476575670_">
			<g>
				<defs>
					<rect id="SVGID_00000158024833723517531420000017382535385565115831_" x="528" y="44.4" width="72.7" height="390.4"/>
				</defs>
				<clipPath id="SVGID_00000038408603006810068230000007201417495868465560_">
					<use xlink:href="#SVGID_00000158024833723517531420000017382535385565115831_"  style="overflow:visible;"/>
				</clipPath>
				
					<path style="clip-path:url(#SVGID_00000038408603006810068230000007201417495868465560_);fill:#1F77B4;fill-opacity:0.75;stroke:#000000;" d="
					M587.8,168.6v-35.5H528v35.5H587.8z"/>
			</g>
		</g>
		<g id="patch_10_00000027599125002896224880000013539471082787185570_">
			<g>
				<defs>
					<rect id="SVGID_00000088842162815302466900000010547964136978298294_" x="528" y="44.4" width="72.7" height="390.4"/>
				</defs>
				<clipPath id="SVGID_00000102545071242959834300000018428913705895135620_">
					<use xlink:href="#SVGID_00000088842162815302466900000010547964136978298294_"  style="overflow:visible;"/>
				</clipPath>
				
					<path style="clip-path:url(#SVGID_00000102545071242959834300000018428913705895135620_);fill:#1F77B4;fill-opacity:0.75;stroke:#000000;" d="
					M586.2,133.1V97.6H528v35.5H586.2z"/>
			</g>
		</g>
		<g id="patch_11_00000112626700011021325600000006642096469475521963_">
			<g>
				<defs>
					<rect id="SVGID_00000071545974173979411140000015503224104112058511_" x="528" y="44.4" width="72.7" height="390.4"/>
				</defs>
				<clipPath id="SVGID_00000027590839840077406260000008092131558528342938_">
					<use xlink:href="#SVGID_00000071545974173979411140000015503224104112058511_"  style="overflow:visible;"/>
				</clipPath>
				
					<path style="clip-path:url(#SVGID_00000027590839840077406260000008092131558528342938_);fill:#1F77B4;fill-opacity:0.75;stroke:#000000;" d="
					M587.8,97.6V62.1H528v35.5H587.8z"/>
			</g>
		</g>
	</g>
</g>
</svg>
