<?xml version="1.0" encoding="UTF-8" standalone="no"?>
<!DOCTYPE svg PUBLIC "-//W3C//DTD SVG 1.1//EN"
 "http://www.w3.org/Graphics/SVG/1.1/DTD/svg11.dtd">
<!-- Generated by graphviz version 6.0.2 (20221011.1828)
 -->
<!-- Title: Tree Pages: 1 -->
<svg width="605pt" height="314pt"
 viewBox="0.00 0.00 604.50 314.00" xmlns="http://www.w3.org/2000/svg" xmlns:xlink="http://www.w3.org/1999/xlink">
<g id="graph0" class="graph" transform="scale(1 1) rotate(0) translate(4 310)">
<title>Tree</title>
<polygon fill="white" stroke="none" points="-4,4 -4,-310 600.5,-310 600.5,4 -4,4"/>
<!-- 0 -->
<g id="node1" class="node">
<title>0</title>
<path fill="#f5cdb1" stroke="black" d="M347,-306C347,-306 225,-306 225,-306 219,-306 213,-300 213,-294 213,-294 213,-235 213,-235 213,-229 219,-223 225,-223 225,-223 347,-223 347,-223 353,-223 359,-229 359,-235 359,-235 359,-294 359,-294 359,-300 353,-306 347,-306"/>
<text text-anchor="start" x="233" y="-290.8" font-family="Helvetica,sans-Serif" font-size="14.00">WindBio ≤ 0.602</text>
<text text-anchor="start" x="257" y="-275.8" font-family="Helvetica,sans-Serif" font-size="14.00">gini = 0.6</text>
<text text-anchor="start" x="238.5" y="-260.8" font-family="Helvetica,sans-Serif" font-size="14.00">samples = 394</text>
<text text-anchor="start" x="221" y="-245.8" font-family="Helvetica,sans-Serif" font-size="14.00">value = [214, 96, 84]</text>
<text text-anchor="start" x="233" y="-230.8" font-family="Helvetica,sans-Serif" font-size="14.00">class = Cluster 0</text>
</g>
<!-- 1 -->
<g id="node2" class="node">
<title>1</title>
<path fill="#54e992" stroke="black" d="M282,-187C282,-187 94,-187 94,-187 88,-187 82,-181 82,-175 82,-175 82,-116 82,-116 82,-110 88,-104 94,-104 94,-104 282,-104 282,-104 288,-104 294,-110 294,-116 294,-116 294,-175 294,-175 294,-181 288,-187 282,-187"/>
<text text-anchor="start" x="90" y="-171.8" font-family="Helvetica,sans-Serif" font-size="14.00">AEEI EUR / New 2016 ≤ 1.489</text>
<text text-anchor="start" x="150.5" y="-156.8" font-family="Helvetica,sans-Serif" font-size="14.00">gini = 0.226</text>
<text text-anchor="start" x="144.5" y="-141.8" font-family="Helvetica,sans-Serif" font-size="14.00">samples = 72</text>
<text text-anchor="start" x="135.5" y="-126.8" font-family="Helvetica,sans-Serif" font-size="14.00">value = [6, 63, 3]</text>
<text text-anchor="start" x="135" y="-111.8" font-family="Helvetica,sans-Serif" font-size="14.00">class = Cluster 1</text>
</g>
<!-- 0&#45;&gt;1 -->
<g id="edge1" class="edge">
<title>0&#45;&gt;1</title>
<path fill="none" stroke="black" d="M252,-222.91C244.4,-213.83 236.26,-204.12 228.43,-194.77"/>
<polygon fill="black" stroke="black" points="231.04,-192.44 221.94,-187.02 225.68,-196.93 231.04,-192.44"/>
<text text-anchor="middle" x="219.74" y="-208.22" font-family="Helvetica,sans-Serif" font-size="14.00">True</text>
</g>
<!-- 4 -->
<g id="node5" class="node">
<title>4</title>
<path fill="#f1bd97" stroke="black" d="M446,-187C446,-187 324,-187 324,-187 318,-187 312,-181 312,-175 312,-175 312,-116 312,-116 312,-110 318,-104 324,-104 324,-104 446,-104 446,-104 452,-104 458,-110 458,-116 458,-116 458,-175 458,-175 458,-181 452,-187 446,-187"/>
<text text-anchor="start" x="329" y="-171.8" font-family="Helvetica,sans-Serif" font-size="14.00">WindGas ≤ 0.892</text>
<text text-anchor="start" x="347.5" y="-156.8" font-family="Helvetica,sans-Serif" font-size="14.00">gini = 0.509</text>
<text text-anchor="start" x="337.5" y="-141.8" font-family="Helvetica,sans-Serif" font-size="14.00">samples = 322</text>
<text text-anchor="start" x="320" y="-126.8" font-family="Helvetica,sans-Serif" font-size="14.00">value = [208, 33, 81]</text>
<text text-anchor="start" x="332" y="-111.8" font-family="Helvetica,sans-Serif" font-size="14.00">class = Cluster 0</text>
</g>
<!-- 0&#45;&gt;4 -->
<g id="edge4" class="edge">
<title>0&#45;&gt;4</title>
<path fill="none" stroke="black" d="M320.35,-222.91C328.03,-213.83 336.24,-204.12 344.16,-194.77"/>
<polygon fill="black" stroke="black" points="346.93,-196.92 350.71,-187.02 341.58,-192.39 346.93,-196.92"/>
<text text-anchor="middle" x="352.79" y="-208.23" font-family="Helvetica,sans-Serif" font-size="14.00">False</text>
</g>
<!-- 2 -->
<g id="node3" class="node">
<title>2</title>
<path fill="#49e78c" stroke="black" d="M110,-68C110,-68 12,-68 12,-68 6,-68 0,-62 0,-56 0,-56 0,-12 0,-12 0,-6 6,0 12,0 12,0 110,0 110,0 116,0 122,-6 122,-12 122,-12 122,-56 122,-56 122,-62 116,-68 110,-68"/>
<text text-anchor="start" x="23.5" y="-52.8" font-family="Helvetica,sans-Serif" font-size="14.00">gini = 0.149</text>
<text text-anchor="start" x="17.5" y="-37.8" font-family="Helvetica,sans-Serif" font-size="14.00">samples = 63</text>
<text text-anchor="start" x="8.5" y="-22.8" font-family="Helvetica,sans-Serif" font-size="14.00">value = [2, 58, 3]</text>
<text text-anchor="start" x="8" y="-7.8" font-family="Helvetica,sans-Serif" font-size="14.00">class = Cluster 1</text>
</g>
<!-- 1&#45;&gt;2 -->
<g id="edge2" class="edge">
<title>1&#45;&gt;2</title>
<path fill="none" stroke="black" d="M140.71,-103.73C129.81,-94.33 118.24,-84.35 107.38,-74.99"/>
<polygon fill="black" stroke="black" points="109.48,-72.18 99.62,-68.3 104.91,-77.48 109.48,-72.18"/>
</g>
<!-- 3 -->
<g id="node4" class="node">
<title>3</title>
<path fill="#d7fae6" stroke="black" d="M250,-68C250,-68 152,-68 152,-68 146,-68 140,-62 140,-56 140,-56 140,-12 140,-12 140,-6 146,0 152,0 152,0 250,0 250,0 256,0 262,-6 262,-12 262,-12 262,-56 262,-56 262,-62 256,-68 250,-68"/>
<text text-anchor="start" x="163.5" y="-52.8" font-family="Helvetica,sans-Serif" font-size="14.00">gini = 0.494</text>
<text text-anchor="start" x="161.5" y="-37.8" font-family="Helvetica,sans-Serif" font-size="14.00">samples = 9</text>
<text text-anchor="start" x="152.5" y="-22.8" font-family="Helvetica,sans-Serif" font-size="14.00">value = [4, 5, 0]</text>
<text text-anchor="start" x="148" y="-7.8" font-family="Helvetica,sans-Serif" font-size="14.00">class = Cluster 1</text>
</g>
<!-- 1&#45;&gt;3 -->
<g id="edge3" class="edge">
<title>1&#45;&gt;3</title>
<path fill="none" stroke="black" d="M192.84,-103.73C193.83,-95.43 194.87,-86.67 195.86,-78.28"/>
<polygon fill="black" stroke="black" points="199.34,-78.64 197.05,-68.3 192.39,-77.82 199.34,-78.64"/>
</g>
<!-- 5 -->
<g id="node6" class="node">
<title>5</title>
<path fill="#c4a2f3" stroke="black" d="M429.5,-68C429.5,-68 316.5,-68 316.5,-68 310.5,-68 304.5,-62 304.5,-56 304.5,-56 304.5,-12 304.5,-12 304.5,-6 310.5,0 316.5,0 316.5,0 429.5,0 429.5,0 435.5,0 441.5,-6 441.5,-12 441.5,-12 441.5,-56 441.5,-56 441.5,-62 435.5,-68 429.5,-68"/>
<text text-anchor="start" x="335.5" y="-52.8" font-family="Helvetica,sans-Serif" font-size="14.00">gini = 0.573</text>
<text text-anchor="start" x="325.5" y="-37.8" font-family="Helvetica,sans-Serif" font-size="14.00">samples = 120</text>
<text text-anchor="start" x="312.5" y="-22.8" font-family="Helvetica,sans-Serif" font-size="14.00">value = [26, 24, 70]</text>
<text text-anchor="start" x="320" y="-7.8" font-family="Helvetica,sans-Serif" font-size="14.00">class = Cluster 2</text>
</g>
<!-- 4&#45;&gt;5 -->
<g id="edge5" class="edge">
<title>4&#45;&gt;5</title>
<path fill="none" stroke="black" d="M380.53,-103.73C379.62,-95.43 378.66,-86.67 377.74,-78.28"/>
<polygon fill="black" stroke="black" points="381.22,-77.86 376.65,-68.3 374.26,-78.62 381.22,-77.86"/>
</g>
<!-- 6 -->
<g id="node7" class="node">
<title>6</title>
<path fill="#e88e4e" stroke="black" d="M584.5,-68C584.5,-68 471.5,-68 471.5,-68 465.5,-68 459.5,-62 459.5,-56 459.5,-56 459.5,-12 459.5,-12 459.5,-6 465.5,0 471.5,0 471.5,0 584.5,0 584.5,0 590.5,0 596.5,-6 596.5,-12 596.5,-12 596.5,-56 596.5,-56 596.5,-62 590.5,-68 584.5,-68"/>
<text text-anchor="start" x="490.5" y="-52.8" font-family="Helvetica,sans-Serif" font-size="14.00">gini = 0.183</text>
<text text-anchor="start" x="480.5" y="-37.8" font-family="Helvetica,sans-Serif" font-size="14.00">samples = 202</text>
<text text-anchor="start" x="467.5" y="-22.8" font-family="Helvetica,sans-Serif" font-size="14.00">value = [182, 9, 11]</text>
<text text-anchor="start" x="475" y="-7.8" font-family="Helvetica,sans-Serif" font-size="14.00">class = Cluster 0</text>
</g>
<!-- 4&#45;&gt;6 -->
<g id="edge6" class="edge">
<title>4&#45;&gt;6</title>
<path fill="none" stroke="black" d="M438.25,-103.73C450.75,-94.15 464.06,-83.96 476.49,-74.44"/>
<polygon fill="black" stroke="black" points="478.7,-77.16 484.51,-68.3 474.45,-71.6 478.7,-77.16"/>
</g>
</g>
</svg>
