<?xml version="1.0" encoding="UTF-8" standalone="no"?>
<!DOCTYPE svg PUBLIC "-//W3C//DTD SVG 1.1//EN"
 "http://www.w3.org/Graphics/SVG/1.1/DTD/svg11.dtd">
<!-- Generated by graphviz version 6.0.2 (20221011.1828)
 -->
<!-- Title: Tree Pages: 1 -->
<svg width="967pt" height="433pt"
 viewBox="0.00 0.00 966.50 433.00" xmlns="http://www.w3.org/2000/svg" xmlns:xlink="http://www.w3.org/1999/xlink">
<g id="graph0" class="graph" transform="scale(1 1) rotate(0) translate(4 429)">
<title>Tree</title>
<polygon fill="white" stroke="none" points="-4,4 -4,-429 962.5,-429 962.5,4 -4,4"/>
<!-- 0 -->
<g id="node1" class="node">
<title>0</title>
<path fill="#f0b78e" stroke="black" d="M378.5,-425C378.5,-425 259.5,-425 259.5,-425 253.5,-425 247.5,-419 247.5,-413 247.5,-413 247.5,-354 247.5,-354 247.5,-348 253.5,-342 259.5,-342 259.5,-342 378.5,-342 378.5,-342 384.5,-342 390.5,-348 390.5,-354 390.5,-354 390.5,-413 390.5,-413 390.5,-419 384.5,-425 378.5,-425"/>
<text text-anchor="start" x="263" y="-409.8" font-family="Helvetica,sans-Serif" font-size="14.00">WindGas ≤ 0.753</text>
<text text-anchor="start" x="285.5" y="-394.8" font-family="Helvetica,sans-Serif" font-size="14.00">gini = 0.42</text>
<text text-anchor="start" x="271.5" y="-379.8" font-family="Helvetica,sans-Serif" font-size="14.00">samples = 400</text>
<text text-anchor="start" x="262" y="-364.8" font-family="Helvetica,sans-Serif" font-size="14.00">value = [280, 120]</text>
<text text-anchor="start" x="255.5" y="-349.8" font-family="Helvetica,sans-Serif" font-size="14.00">class = Low Renew.</text>
</g>
<!-- 1 -->
<g id="node2" class="node">
<title>1</title>
<path fill="#60b0ea" stroke="black" d="M298,-306C298,-306 176,-306 176,-306 170,-306 164,-300 164,-294 164,-294 164,-235 164,-235 164,-229 170,-223 176,-223 176,-223 298,-223 298,-223 304,-223 310,-229 310,-235 310,-235 310,-294 310,-294 310,-300 304,-306 298,-306"/>
<text text-anchor="start" x="200.5" y="-290.8" font-family="Helvetica,sans-Serif" font-size="14.00">Bio ≤ 0.542</text>
<text text-anchor="start" x="199.5" y="-275.8" font-family="Helvetica,sans-Serif" font-size="14.00">gini = 0.273</text>
<text text-anchor="start" x="193.5" y="-260.8" font-family="Helvetica,sans-Serif" font-size="14.00">samples = 92</text>
<text text-anchor="start" x="188.5" y="-245.8" font-family="Helvetica,sans-Serif" font-size="14.00">value = [15, 77]</text>
<text text-anchor="start" x="172" y="-230.8" font-family="Helvetica,sans-Serif" font-size="14.00">class = High Renew.</text>
</g>
<!-- 0&#45;&gt;1 -->
<g id="edge1" class="edge">
<title>0&#45;&gt;1</title>
<path fill="none" stroke="black" d="M290.55,-341.91C284.32,-333.01 277.66,-323.51 271.22,-314.33"/>
<polygon fill="black" stroke="black" points="274,-312.2 265.4,-306.02 268.27,-316.22 274,-312.2"/>
<text text-anchor="middle" x="261.07" y="-326.94" font-family="Helvetica,sans-Serif" font-size="14.00">True</text>
</g>
<!-- 6 -->
<g id="node7" class="node">
<title>6</title>
<path fill="#e99559" stroke="black" d="M541.5,-306C541.5,-306 422.5,-306 422.5,-306 416.5,-306 410.5,-300 410.5,-294 410.5,-294 410.5,-235 410.5,-235 410.5,-229 416.5,-223 422.5,-223 422.5,-223 541.5,-223 541.5,-223 547.5,-223 553.5,-229 553.5,-235 553.5,-235 553.5,-294 553.5,-294 553.5,-300 547.5,-306 541.5,-306"/>
<text text-anchor="start" x="429" y="-290.8" font-family="Helvetica,sans-Serif" font-size="14.00">WindBio ≤ 0.476</text>
<text text-anchor="start" x="448.5" y="-275.8" font-family="Helvetica,sans-Serif" font-size="14.00">gini = 0.24</text>
<text text-anchor="start" x="434.5" y="-260.8" font-family="Helvetica,sans-Serif" font-size="14.00">samples = 308</text>
<text text-anchor="start" x="429" y="-245.8" font-family="Helvetica,sans-Serif" font-size="14.00">value = [265, 43]</text>
<text text-anchor="start" x="418.5" y="-230.8" font-family="Helvetica,sans-Serif" font-size="14.00">class = Low Renew.</text>
</g>
<!-- 0&#45;&gt;6 -->
<g id="edge6" class="edge">
<title>0&#45;&gt;6</title>
<path fill="none" stroke="black" d="M375.55,-341.91C388.95,-332.29 403.35,-321.95 417.09,-312.09"/>
<polygon fill="black" stroke="black" points="419.47,-314.7 425.55,-306.02 415.38,-309.01 419.47,-314.7"/>
<text text-anchor="middle" x="421.5" y="-326.99" font-family="Helvetica,sans-Serif" font-size="14.00">False</text>
</g>
<!-- 2 -->
<g id="node3" class="node">
<title>2</title>
<path fill="#e58139" stroke="black" d="M133.5,-179.5C133.5,-179.5 14.5,-179.5 14.5,-179.5 8.5,-179.5 2.5,-173.5 2.5,-167.5 2.5,-167.5 2.5,-123.5 2.5,-123.5 2.5,-117.5 8.5,-111.5 14.5,-111.5 14.5,-111.5 133.5,-111.5 133.5,-111.5 139.5,-111.5 145.5,-117.5 145.5,-123.5 145.5,-123.5 145.5,-167.5 145.5,-167.5 145.5,-173.5 139.5,-179.5 133.5,-179.5"/>
<text text-anchor="start" x="45" y="-164.3" font-family="Helvetica,sans-Serif" font-size="14.00">gini = 0.0</text>
<text text-anchor="start" x="34.5" y="-149.3" font-family="Helvetica,sans-Serif" font-size="14.00">samples = 3</text>
<text text-anchor="start" x="33.5" y="-134.3" font-family="Helvetica,sans-Serif" font-size="14.00">value = [3, 0]</text>
<text text-anchor="start" x="10.5" y="-119.3" font-family="Helvetica,sans-Serif" font-size="14.00">class = Low Renew.</text>
</g>
<!-- 1&#45;&gt;2 -->
<g id="edge2" class="edge">
<title>1&#45;&gt;2</title>
<path fill="none" stroke="black" d="M180.45,-222.91C163.69,-210.88 145.38,-197.73 128.74,-185.79"/>
<polygon fill="black" stroke="black" points="130.37,-182.65 120.21,-179.67 126.29,-188.34 130.37,-182.65"/>
</g>
<!-- 3 -->
<g id="node4" class="node">
<title>3</title>
<path fill="#58ace9" stroke="black" d="M298,-187C298,-187 176,-187 176,-187 170,-187 164,-181 164,-175 164,-175 164,-116 164,-116 164,-110 170,-104 176,-104 176,-104 298,-104 298,-104 304,-104 310,-110 310,-116 310,-116 310,-175 310,-175 310,-181 304,-187 298,-187"/>
<text text-anchor="start" x="181" y="-171.8" font-family="Helvetica,sans-Serif" font-size="14.00">WindGas ≤ 0.647</text>
<text text-anchor="start" x="199.5" y="-156.8" font-family="Helvetica,sans-Serif" font-size="14.00">gini = 0.233</text>
<text text-anchor="start" x="193.5" y="-141.8" font-family="Helvetica,sans-Serif" font-size="14.00">samples = 89</text>
<text text-anchor="start" x="188.5" y="-126.8" font-family="Helvetica,sans-Serif" font-size="14.00">value = [12, 77]</text>
<text text-anchor="start" x="172" y="-111.8" font-family="Helvetica,sans-Serif" font-size="14.00">class = High Renew.</text>
</g>
<!-- 1&#45;&gt;3 -->
<g id="edge3" class="edge">
<title>1&#45;&gt;3</title>
<path fill="none" stroke="black" d="M237,-222.91C237,-214.65 237,-205.86 237,-197.3"/>
<polygon fill="black" stroke="black" points="240.5,-197.02 237,-187.02 233.5,-197.02 240.5,-197.02"/>
</g>
<!-- 4 -->
<g id="node5" class="node">
<title>4</title>
<path fill="#399de5" stroke="black" d="M134,-68C134,-68 12,-68 12,-68 6,-68 0,-62 0,-56 0,-56 0,-12 0,-12 0,-6 6,0 12,0 12,0 134,0 134,0 140,0 146,-6 146,-12 146,-12 146,-56 146,-56 146,-62 140,-68 134,-68"/>
<text text-anchor="start" x="44" y="-52.8" font-family="Helvetica,sans-Serif" font-size="14.00">gini = 0.0</text>
<text text-anchor="start" x="29.5" y="-37.8" font-family="Helvetica,sans-Serif" font-size="14.00">samples = 44</text>
<text text-anchor="start" x="28.5" y="-22.8" font-family="Helvetica,sans-Serif" font-size="14.00">value = [0, 44]</text>
<text text-anchor="start" x="8" y="-7.8" font-family="Helvetica,sans-Serif" font-size="14.00">class = High Renew.</text>
</g>
<!-- 3&#45;&gt;4 -->
<g id="edge4" class="edge">
<title>3&#45;&gt;4</title>
<path fill="none" stroke="black" d="M175.93,-103.73C161.24,-93.92 145.59,-83.46 131.04,-73.75"/>
<polygon fill="black" stroke="black" points="132.87,-70.77 122.61,-68.13 128.99,-76.59 132.87,-70.77"/>
</g>
<!-- 5 -->
<g id="node6" class="node">
<title>5</title>
<path fill="#81c1ee" stroke="black" d="M298,-68C298,-68 176,-68 176,-68 170,-68 164,-62 164,-56 164,-56 164,-12 164,-12 164,-6 170,0 176,0 176,0 298,0 298,0 304,0 310,-6 310,-12 310,-12 310,-56 310,-56 310,-62 304,-68 298,-68"/>
<text text-anchor="start" x="199.5" y="-52.8" font-family="Helvetica,sans-Serif" font-size="14.00">gini = 0.391</text>
<text text-anchor="start" x="193.5" y="-37.8" font-family="Helvetica,sans-Serif" font-size="14.00">samples = 45</text>
<text text-anchor="start" x="188.5" y="-22.8" font-family="Helvetica,sans-Serif" font-size="14.00">value = [12, 33]</text>
<text text-anchor="start" x="172" y="-7.8" font-family="Helvetica,sans-Serif" font-size="14.00">class = High Renew.</text>
</g>
<!-- 3&#45;&gt;5 -->
<g id="edge5" class="edge">
<title>3&#45;&gt;5</title>
<path fill="none" stroke="black" d="M237,-103.73C237,-95.52 237,-86.86 237,-78.56"/>
<polygon fill="black" stroke="black" points="240.5,-78.3 237,-68.3 233.5,-78.3 240.5,-78.3"/>
</g>
<!-- 7 -->
<g id="node8" class="node">
<title>7</title>
<path fill="#7bbeee" stroke="black" d="M543,-187C543,-187 421,-187 421,-187 415,-187 409,-181 409,-175 409,-175 409,-116 409,-116 409,-110 415,-104 421,-104 421,-104 543,-104 543,-104 549,-104 555,-110 555,-116 555,-116 555,-175 555,-175 555,-181 549,-187 543,-187"/>
<text text-anchor="start" x="445.5" y="-171.8" font-family="Helvetica,sans-Serif" font-size="14.00">PC ≤ 0.831</text>
<text text-anchor="start" x="444.5" y="-156.8" font-family="Helvetica,sans-Serif" font-size="14.00">gini = 0.375</text>
<text text-anchor="start" x="438.5" y="-141.8" font-family="Helvetica,sans-Serif" font-size="14.00">samples = 24</text>
<text text-anchor="start" x="437.5" y="-126.8" font-family="Helvetica,sans-Serif" font-size="14.00">value = [6, 18]</text>
<text text-anchor="start" x="417" y="-111.8" font-family="Helvetica,sans-Serif" font-size="14.00">class = High Renew.</text>
</g>
<!-- 6&#45;&gt;7 -->
<g id="edge7" class="edge">
<title>6&#45;&gt;7</title>
<path fill="none" stroke="black" d="M482,-222.91C482,-214.65 482,-205.86 482,-197.3"/>
<polygon fill="black" stroke="black" points="485.5,-197.02 482,-187.02 478.5,-197.02 485.5,-197.02"/>
</g>
<!-- 10 -->
<g id="node11" class="node">
<title>10</title>
<path fill="#e88d4c" stroke="black" d="M785.5,-187C785.5,-187 666.5,-187 666.5,-187 660.5,-187 654.5,-181 654.5,-175 654.5,-175 654.5,-116 654.5,-116 654.5,-110 660.5,-104 666.5,-104 666.5,-104 785.5,-104 785.5,-104 791.5,-104 797.5,-110 797.5,-116 797.5,-116 797.5,-175 797.5,-175 797.5,-181 791.5,-187 785.5,-187"/>
<text text-anchor="start" x="689.5" y="-171.8" font-family="Helvetica,sans-Serif" font-size="14.00">PC ≤ 1.117</text>
<text text-anchor="start" x="688.5" y="-156.8" font-family="Helvetica,sans-Serif" font-size="14.00">gini = 0.161</text>
<text text-anchor="start" x="678.5" y="-141.8" font-family="Helvetica,sans-Serif" font-size="14.00">samples = 284</text>
<text text-anchor="start" x="673" y="-126.8" font-family="Helvetica,sans-Serif" font-size="14.00">value = [259, 25]</text>
<text text-anchor="start" x="662.5" y="-111.8" font-family="Helvetica,sans-Serif" font-size="14.00">class = Low Renew.</text>
</g>
<!-- 6&#45;&gt;10 -->
<g id="edge10" class="edge">
<title>6&#45;&gt;10</title>
<path fill="none" stroke="black" d="M553.56,-229.19C582.36,-215.38 615.71,-199.38 645.37,-185.16"/>
<polygon fill="black" stroke="black" points="646.94,-188.29 654.44,-180.81 643.91,-181.98 646.94,-188.29"/>
</g>
<!-- 8 -->
<g id="node9" class="node">
<title>8</title>
<path fill="#efb388" stroke="black" d="M459.5,-68C459.5,-68 340.5,-68 340.5,-68 334.5,-68 328.5,-62 328.5,-56 328.5,-56 328.5,-12 328.5,-12 328.5,-6 334.5,0 340.5,0 340.5,0 459.5,0 459.5,0 465.5,0 471.5,-6 471.5,-12 471.5,-12 471.5,-56 471.5,-56 471.5,-62 465.5,-68 459.5,-68"/>
<text text-anchor="start" x="362.5" y="-52.8" font-family="Helvetica,sans-Serif" font-size="14.00">gini = 0.408</text>
<text text-anchor="start" x="360.5" y="-37.8" font-family="Helvetica,sans-Serif" font-size="14.00">samples = 7</text>
<text text-anchor="start" x="359.5" y="-22.8" font-family="Helvetica,sans-Serif" font-size="14.00">value = [5, 2]</text>
<text text-anchor="start" x="336.5" y="-7.8" font-family="Helvetica,sans-Serif" font-size="14.00">class = Low Renew.</text>
</g>
<!-- 7&#45;&gt;8 -->
<g id="edge8" class="edge">
<title>7&#45;&gt;8</title>
<path fill="none" stroke="black" d="M451.47,-103.73C444.77,-94.79 437.68,-85.32 430.97,-76.36"/>
<polygon fill="black" stroke="black" points="433.73,-74.21 424.94,-68.3 428.13,-78.4 433.73,-74.21"/>
</g>
<!-- 9 -->
<g id="node10" class="node">
<title>9</title>
<path fill="#45a3e7" stroke="black" d="M624,-68C624,-68 502,-68 502,-68 496,-68 490,-62 490,-56 490,-56 490,-12 490,-12 490,-6 496,0 502,0 502,0 624,0 624,0 630,0 636,-6 636,-12 636,-12 636,-56 636,-56 636,-62 630,-68 624,-68"/>
<text text-anchor="start" x="525.5" y="-52.8" font-family="Helvetica,sans-Serif" font-size="14.00">gini = 0.111</text>
<text text-anchor="start" x="519.5" y="-37.8" font-family="Helvetica,sans-Serif" font-size="14.00">samples = 17</text>
<text text-anchor="start" x="518.5" y="-22.8" font-family="Helvetica,sans-Serif" font-size="14.00">value = [1, 16]</text>
<text text-anchor="start" x="498" y="-7.8" font-family="Helvetica,sans-Serif" font-size="14.00">class = High Renew.</text>
</g>
<!-- 7&#45;&gt;9 -->
<g id="edge9" class="edge">
<title>7&#45;&gt;9</title>
<path fill="none" stroke="black" d="M512.16,-103.73C518.77,-94.79 525.78,-85.32 532.41,-76.36"/>
<polygon fill="black" stroke="black" points="535.23,-78.42 538.37,-68.3 529.61,-74.26 535.23,-78.42"/>
</g>
<!-- 11 -->
<g id="node12" class="node">
<title>11</title>
<path fill="#e6843d" stroke="black" d="M785.5,-68C785.5,-68 666.5,-68 666.5,-68 660.5,-68 654.5,-62 654.5,-56 654.5,-56 654.5,-12 654.5,-12 654.5,-6 660.5,0 666.5,0 666.5,0 785.5,0 785.5,0 791.5,0 797.5,-6 797.5,-12 797.5,-12 797.5,-56 797.5,-56 797.5,-62 791.5,-68 785.5,-68"/>
<text text-anchor="start" x="688.5" y="-52.8" font-family="Helvetica,sans-Serif" font-size="14.00">gini = 0.042</text>
<text text-anchor="start" x="678.5" y="-37.8" font-family="Helvetica,sans-Serif" font-size="14.00">samples = 187</text>
<text text-anchor="start" x="677.5" y="-22.8" font-family="Helvetica,sans-Serif" font-size="14.00">value = [183, 4]</text>
<text text-anchor="start" x="662.5" y="-7.8" font-family="Helvetica,sans-Serif" font-size="14.00">class = Low Renew.</text>
</g>
<!-- 10&#45;&gt;11 -->
<g id="edge11" class="edge">
<title>10&#45;&gt;11</title>
<path fill="none" stroke="black" d="M726,-103.73C726,-95.52 726,-86.86 726,-78.56"/>
<polygon fill="black" stroke="black" points="729.5,-78.3 726,-68.3 722.5,-78.3 729.5,-78.3"/>
</g>
<!-- 12 -->
<g id="node13" class="node">
<title>12</title>
<path fill="#eca470" stroke="black" d="M946.5,-68C946.5,-68 827.5,-68 827.5,-68 821.5,-68 815.5,-62 815.5,-56 815.5,-56 815.5,-12 815.5,-12 815.5,-6 821.5,0 827.5,0 827.5,0 946.5,0 946.5,0 952.5,0 958.5,-6 958.5,-12 958.5,-12 958.5,-56 958.5,-56 958.5,-62 952.5,-68 946.5,-68"/>
<text text-anchor="start" x="849.5" y="-52.8" font-family="Helvetica,sans-Serif" font-size="14.00">gini = 0.339</text>
<text text-anchor="start" x="843.5" y="-37.8" font-family="Helvetica,sans-Serif" font-size="14.00">samples = 97</text>
<text text-anchor="start" x="838.5" y="-22.8" font-family="Helvetica,sans-Serif" font-size="14.00">value = [76, 21]</text>
<text text-anchor="start" x="823.5" y="-7.8" font-family="Helvetica,sans-Serif" font-size="14.00">class = Low Renew.</text>
</g>
<!-- 10&#45;&gt;12 -->
<g id="edge12" class="edge">
<title>10&#45;&gt;12</title>
<path fill="none" stroke="black" d="M785.95,-103.73C800.37,-93.92 815.74,-83.46 830.03,-73.75"/>
<polygon fill="black" stroke="black" points="831.99,-76.64 838.3,-68.13 828.06,-70.85 831.99,-76.64"/>
</g>
</g>
</svg>
