<?xml version="1.0" encoding="UTF-8" standalone="no"?>
<!DOCTYPE svg PUBLIC "-//W3C//DTD SVG 1.1//EN"
 "http://www.w3.org/Graphics/SVG/1.1/DTD/svg11.dtd">
<!-- Generated by graphviz version 6.0.2 (20221011.1828)
 -->
<!-- Title: Tree Pages: 1 -->
<svg width="1142pt" height="433pt"
 viewBox="0.00 0.00 1141.50 433.00" xmlns="http://www.w3.org/2000/svg" xmlns:xlink="http://www.w3.org/1999/xlink">
<g id="graph0" class="graph" transform="scale(1 1) rotate(0) translate(4 429)">
<title>Tree</title>
<polygon fill="white" stroke="none" points="-4,4 -4,-429 1137.5,-429 1137.5,4 -4,4"/>
<!-- 0 -->
<g id="node1" class="node">
<title>0</title>
<path fill="#8cf0b6" stroke="black" d="M620,-425C620,-425 498,-425 498,-425 492,-425 486,-419 486,-413 486,-413 486,-354 486,-354 486,-348 492,-342 498,-342 498,-342 620,-342 620,-342 626,-342 632,-348 632,-354 632,-354 632,-413 632,-413 632,-419 626,-425 620,-425"/>
<text text-anchor="start" x="503" y="-409.8" font-family="Helvetica,sans-Serif" font-size="14.00">WindGas ≤ 0.827</text>
<text text-anchor="start" x="521.5" y="-394.8" font-family="Helvetica,sans-Serif" font-size="14.00">gini = 0.506</text>
<text text-anchor="start" x="511.5" y="-379.8" font-family="Helvetica,sans-Serif" font-size="14.00">samples = 400</text>
<text text-anchor="start" x="494" y="-364.8" font-family="Helvetica,sans-Serif" font-size="14.00">value = [77, 264, 59]</text>
<text text-anchor="start" x="506" y="-349.8" font-family="Helvetica,sans-Serif" font-size="14.00">class = Cluster 1</text>
</g>
<!-- 1 -->
<g id="node2" class="node">
<title>1</title>
<path fill="#fef8f4" stroke="black" d="M471.5,-306C471.5,-306 358.5,-306 358.5,-306 352.5,-306 346.5,-300 346.5,-294 346.5,-294 346.5,-235 346.5,-235 346.5,-229 352.5,-223 358.5,-223 358.5,-223 471.5,-223 471.5,-223 477.5,-223 483.5,-229 483.5,-235 483.5,-235 483.5,-294 483.5,-294 483.5,-300 477.5,-306 471.5,-306"/>
<text text-anchor="start" x="359" y="-290.8" font-family="Helvetica,sans-Serif" font-size="14.00">WindGas ≤ 0.647</text>
<text text-anchor="start" x="377.5" y="-275.8" font-family="Helvetica,sans-Serif" font-size="14.00">gini = 0.622</text>
<text text-anchor="start" x="367.5" y="-260.8" font-family="Helvetica,sans-Serif" font-size="14.00">samples = 124</text>
<text text-anchor="start" x="354.5" y="-245.8" font-family="Helvetica,sans-Serif" font-size="14.00">value = [54, 20, 50]</text>
<text text-anchor="start" x="362" y="-230.8" font-family="Helvetica,sans-Serif" font-size="14.00">class = Cluster 0</text>
</g>
<!-- 0&#45;&gt;1 -->
<g id="edge1" class="edge">
<title>0&#45;&gt;1</title>
<path fill="none" stroke="black" d="M509.04,-341.91C497.31,-332.38 484.72,-322.15 472.69,-312.37"/>
<polygon fill="black" stroke="black" points="474.84,-309.61 464.87,-306.02 470.43,-315.04 474.84,-309.61"/>
<text text-anchor="middle" x="467.44" y="-327.19" font-family="Helvetica,sans-Serif" font-size="14.00">True</text>
</g>
<!-- 8 -->
<g id="node9" class="node">
<title>8</title>
<path fill="#52e891" stroke="black" d="M739.5,-306C739.5,-306 626.5,-306 626.5,-306 620.5,-306 614.5,-300 614.5,-294 614.5,-294 614.5,-235 614.5,-235 614.5,-229 620.5,-223 626.5,-223 626.5,-223 739.5,-223 739.5,-223 745.5,-223 751.5,-229 751.5,-235 751.5,-235 751.5,-294 751.5,-294 751.5,-300 745.5,-306 739.5,-306"/>
<text text-anchor="start" x="630" y="-290.8" font-family="Helvetica,sans-Serif" font-size="14.00">WindBio ≤ 0.476</text>
<text text-anchor="start" x="649.5" y="-275.8" font-family="Helvetica,sans-Serif" font-size="14.00">gini = 0.21</text>
<text text-anchor="start" x="635.5" y="-260.8" font-family="Helvetica,sans-Serif" font-size="14.00">samples = 276</text>
<text text-anchor="start" x="622.5" y="-245.8" font-family="Helvetica,sans-Serif" font-size="14.00">value = [23, 244, 9]</text>
<text text-anchor="start" x="630" y="-230.8" font-family="Helvetica,sans-Serif" font-size="14.00">class = Cluster 1</text>
</g>
<!-- 0&#45;&gt;8 -->
<g id="edge8" class="edge">
<title>0&#45;&gt;8</title>
<path fill="none" stroke="black" d="M602.02,-341.91C611.93,-332.56 622.55,-322.54 632.73,-312.93"/>
<polygon fill="black" stroke="black" points="635.18,-315.43 640.05,-306.02 630.38,-310.34 635.18,-315.43"/>
<text text-anchor="middle" x="639.33" y="-327.31" font-family="Helvetica,sans-Serif" font-size="14.00">False</text>
</g>
<!-- 2 -->
<g id="node3" class="node">
<title>2</title>
<path fill="#a470ec" stroke="black" d="M250,-187C250,-187 152,-187 152,-187 146,-187 140,-181 140,-175 140,-175 140,-116 140,-116 140,-110 146,-104 152,-104 152,-104 250,-104 250,-104 256,-104 262,-110 262,-116 262,-116 262,-175 262,-175 262,-181 256,-187 250,-187"/>
<text text-anchor="start" x="164.5" y="-171.8" font-family="Helvetica,sans-Serif" font-size="14.00">PC ≤ 0.743</text>
<text text-anchor="start" x="163.5" y="-156.8" font-family="Helvetica,sans-Serif" font-size="14.00">gini = 0.355</text>
<text text-anchor="start" x="157.5" y="-141.8" font-family="Helvetica,sans-Serif" font-size="14.00">samples = 45</text>
<text text-anchor="start" x="148.5" y="-126.8" font-family="Helvetica,sans-Serif" font-size="14.00">value = [9, 1, 35]</text>
<text text-anchor="start" x="148" y="-111.8" font-family="Helvetica,sans-Serif" font-size="14.00">class = Cluster 2</text>
</g>
<!-- 1&#45;&gt;2 -->
<g id="edge2" class="edge">
<title>1&#45;&gt;2</title>
<path fill="none" stroke="black" d="M346.41,-226C322.45,-212.9 295.53,-198.18 271.42,-185"/>
<polygon fill="black" stroke="black" points="272.79,-181.76 262.34,-180.03 269.43,-187.9 272.79,-181.76"/>
</g>
<!-- 5 -->
<g id="node6" class="node">
<title>5</title>
<path fill="#f4c8a9" stroke="black" d="M471.5,-187C471.5,-187 358.5,-187 358.5,-187 352.5,-187 346.5,-181 346.5,-175 346.5,-175 346.5,-116 346.5,-116 346.5,-110 352.5,-104 358.5,-104 358.5,-104 471.5,-104 471.5,-104 477.5,-104 483.5,-110 483.5,-116 483.5,-116 483.5,-175 483.5,-175 483.5,-181 477.5,-187 471.5,-187"/>
<text text-anchor="start" x="375.5" y="-171.8" font-family="Helvetica,sans-Serif" font-size="14.00">Pop ≤ 1.317</text>
<text text-anchor="start" x="377.5" y="-156.8" font-family="Helvetica,sans-Serif" font-size="14.00">gini = 0.582</text>
<text text-anchor="start" x="371.5" y="-141.8" font-family="Helvetica,sans-Serif" font-size="14.00">samples = 79</text>
<text text-anchor="start" x="354.5" y="-126.8" font-family="Helvetica,sans-Serif" font-size="14.00">value = [45, 19, 15]</text>
<text text-anchor="start" x="362" y="-111.8" font-family="Helvetica,sans-Serif" font-size="14.00">class = Cluster 0</text>
</g>
<!-- 1&#45;&gt;5 -->
<g id="edge5" class="edge">
<title>1&#45;&gt;5</title>
<path fill="none" stroke="black" d="M415,-222.91C415,-214.65 415,-205.86 415,-197.3"/>
<polygon fill="black" stroke="black" points="418.5,-197.02 415,-187.02 411.5,-197.02 418.5,-197.02"/>
</g>
<!-- 3 -->
<g id="node4" class="node">
<title>3</title>
<path fill="#eeab7b" stroke="black" d="M110,-68C110,-68 12,-68 12,-68 6,-68 0,-62 0,-56 0,-56 0,-12 0,-12 0,-6 6,0 12,0 12,0 110,0 110,0 116,0 122,-6 122,-12 122,-12 122,-56 122,-56 122,-62 116,-68 110,-68"/>
<text text-anchor="start" x="23.5" y="-52.8" font-family="Helvetica,sans-Serif" font-size="14.00">gini = 0.375</text>
<text text-anchor="start" x="21.5" y="-37.8" font-family="Helvetica,sans-Serif" font-size="14.00">samples = 8</text>
<text text-anchor="start" x="12.5" y="-22.8" font-family="Helvetica,sans-Serif" font-size="14.00">value = [6, 0, 2]</text>
<text text-anchor="start" x="8" y="-7.8" font-family="Helvetica,sans-Serif" font-size="14.00">class = Cluster 0</text>
</g>
<!-- 2&#45;&gt;3 -->
<g id="edge3" class="edge">
<title>2&#45;&gt;3</title>
<path fill="none" stroke="black" d="M148.87,-103.73C136.74,-94.24 123.85,-84.16 111.78,-74.72"/>
<polygon fill="black" stroke="black" points="113.61,-71.7 103.57,-68.3 109.3,-77.22 113.61,-71.7"/>
</g>
<!-- 4 -->
<g id="node5" class="node">
<title>4</title>
<path fill="#9050e8" stroke="black" d="M250,-68C250,-68 152,-68 152,-68 146,-68 140,-62 140,-56 140,-56 140,-12 140,-12 140,-6 146,0 152,0 152,0 250,0 250,0 256,0 262,-6 262,-12 262,-12 262,-56 262,-56 262,-62 256,-68 250,-68"/>
<text text-anchor="start" x="163.5" y="-52.8" font-family="Helvetica,sans-Serif" font-size="14.00">gini = 0.197</text>
<text text-anchor="start" x="157.5" y="-37.8" font-family="Helvetica,sans-Serif" font-size="14.00">samples = 37</text>
<text text-anchor="start" x="148.5" y="-22.8" font-family="Helvetica,sans-Serif" font-size="14.00">value = [3, 1, 33]</text>
<text text-anchor="start" x="148" y="-7.8" font-family="Helvetica,sans-Serif" font-size="14.00">class = Cluster 2</text>
</g>
<!-- 2&#45;&gt;4 -->
<g id="edge4" class="edge">
<title>2&#45;&gt;4</title>
<path fill="none" stroke="black" d="M201,-103.73C201,-95.52 201,-86.86 201,-78.56"/>
<polygon fill="black" stroke="black" points="204.5,-78.3 201,-68.3 197.5,-78.3 204.5,-78.3"/>
</g>
<!-- 6 -->
<g id="node7" class="node">
<title>6</title>
<path fill="#5ae996" stroke="black" d="M390,-68C390,-68 292,-68 292,-68 286,-68 280,-62 280,-56 280,-56 280,-12 280,-12 280,-6 286,0 292,0 292,0 390,0 390,0 396,0 402,-6 402,-12 402,-12 402,-56 402,-56 402,-62 396,-68 390,-68"/>
<text text-anchor="start" x="303.5" y="-52.8" font-family="Helvetica,sans-Serif" font-size="14.00">gini = 0.245</text>
<text text-anchor="start" x="301.5" y="-37.8" font-family="Helvetica,sans-Serif" font-size="14.00">samples = 7</text>
<text text-anchor="start" x="292.5" y="-22.8" font-family="Helvetica,sans-Serif" font-size="14.00">value = [0, 6, 1]</text>
<text text-anchor="start" x="288" y="-7.8" font-family="Helvetica,sans-Serif" font-size="14.00">class = Cluster 1</text>
</g>
<!-- 5&#45;&gt;6 -->
<g id="edge6" class="edge">
<title>5&#45;&gt;6</title>
<path fill="none" stroke="black" d="M387.45,-103.73C381.47,-94.88 375.13,-85.51 369.13,-76.63"/>
<polygon fill="black" stroke="black" points="372,-74.63 363.5,-68.3 366.2,-78.54 372,-74.63"/>
</g>
<!-- 7 -->
<g id="node8" class="node">
<title>7</title>
<path fill="#f1bc95" stroke="black" d="M545.5,-68C545.5,-68 432.5,-68 432.5,-68 426.5,-68 420.5,-62 420.5,-56 420.5,-56 420.5,-12 420.5,-12 420.5,-6 426.5,0 432.5,0 432.5,0 545.5,0 545.5,0 551.5,0 557.5,-6 557.5,-12 557.5,-12 557.5,-56 557.5,-56 557.5,-62 551.5,-68 545.5,-68"/>
<text text-anchor="start" x="451.5" y="-52.8" font-family="Helvetica,sans-Serif" font-size="14.00">gini = 0.539</text>
<text text-anchor="start" x="445.5" y="-37.8" font-family="Helvetica,sans-Serif" font-size="14.00">samples = 72</text>
<text text-anchor="start" x="428.5" y="-22.8" font-family="Helvetica,sans-Serif" font-size="14.00">value = [45, 13, 14]</text>
<text text-anchor="start" x="436" y="-7.8" font-family="Helvetica,sans-Serif" font-size="14.00">class = Cluster 0</text>
</g>
<!-- 5&#45;&gt;7 -->
<g id="edge7" class="edge">
<title>5&#45;&gt;7</title>
<path fill="none" stroke="black" d="M442.55,-103.73C448.53,-94.88 454.87,-85.51 460.87,-76.63"/>
<polygon fill="black" stroke="black" points="463.8,-78.54 466.5,-68.3 458,-74.63 463.8,-78.54"/>
</g>
<!-- 9 -->
<g id="node10" class="node">
<title>9</title>
<path fill="#fae6d7" stroke="black" d="M732,-187C732,-187 634,-187 634,-187 628,-187 622,-181 622,-175 622,-175 622,-116 622,-116 622,-110 628,-104 634,-104 634,-104 732,-104 732,-104 738,-104 744,-110 744,-116 744,-116 744,-175 744,-175 744,-181 738,-187 732,-187"/>
<text text-anchor="start" x="648" y="-171.8" font-family="Helvetica,sans-Serif" font-size="14.00">Pop ≤ 1.54</text>
<text text-anchor="start" x="649.5" y="-156.8" font-family="Helvetica,sans-Serif" font-size="14.00">gini = 0.64</text>
<text text-anchor="start" x="639.5" y="-141.8" font-family="Helvetica,sans-Serif" font-size="14.00">samples = 22</text>
<text text-anchor="start" x="630.5" y="-126.8" font-family="Helvetica,sans-Serif" font-size="14.00">value = [10, 5, 7]</text>
<text text-anchor="start" x="630" y="-111.8" font-family="Helvetica,sans-Serif" font-size="14.00">class = Cluster 0</text>
</g>
<!-- 8&#45;&gt;9 -->
<g id="edge9" class="edge">
<title>8&#45;&gt;9</title>
<path fill="none" stroke="black" d="M683,-222.91C683,-214.65 683,-205.86 683,-197.3"/>
<polygon fill="black" stroke="black" points="686.5,-197.02 683,-187.02 679.5,-197.02 686.5,-197.02"/>
</g>
<!-- 12 -->
<g id="node13" class="node">
<title>12</title>
<path fill="#45e789" stroke="black" d="M1014,-187C1014,-187 820,-187 820,-187 814,-187 808,-181 808,-175 808,-175 808,-116 808,-116 808,-110 814,-104 820,-104 820,-104 1014,-104 1014,-104 1020,-104 1026,-110 1026,-116 1026,-116 1026,-175 1026,-175 1026,-181 1020,-187 1014,-187"/>
<text text-anchor="start" x="816" y="-171.8" font-family="Helvetica,sans-Serif" font-size="14.00">AEEI KOR / New 2016 ≤ &#45;0.396</text>
<text text-anchor="start" x="879.5" y="-156.8" font-family="Helvetica,sans-Serif" font-size="14.00">gini = 0.112</text>
<text text-anchor="start" x="869.5" y="-141.8" font-family="Helvetica,sans-Serif" font-size="14.00">samples = 254</text>
<text text-anchor="start" x="856.5" y="-126.8" font-family="Helvetica,sans-Serif" font-size="14.00">value = [13, 239, 2]</text>
<text text-anchor="start" x="864" y="-111.8" font-family="Helvetica,sans-Serif" font-size="14.00">class = Cluster 1</text>
</g>
<!-- 8&#45;&gt;12 -->
<g id="edge12" class="edge">
<title>8&#45;&gt;12</title>
<path fill="none" stroke="black" d="M751.63,-229.19C775.17,-217.42 801.88,-204.06 826.86,-191.57"/>
<polygon fill="black" stroke="black" points="828.6,-194.61 835.98,-187.01 825.47,-188.35 828.6,-194.61"/>
</g>
<!-- 10 -->
<g id="node11" class="node">
<title>10</title>
<path fill="#f1bb94" stroke="black" d="M686,-68C686,-68 588,-68 588,-68 582,-68 576,-62 576,-56 576,-56 576,-12 576,-12 576,-6 582,0 588,0 588,0 686,0 686,0 692,0 698,-6 698,-12 698,-12 698,-56 698,-56 698,-62 692,-68 686,-68"/>
<text text-anchor="start" x="599.5" y="-52.8" font-family="Helvetica,sans-Serif" font-size="14.00">gini = 0.539</text>
<text text-anchor="start" x="593.5" y="-37.8" font-family="Helvetica,sans-Serif" font-size="14.00">samples = 16</text>
<text text-anchor="start" x="584.5" y="-22.8" font-family="Helvetica,sans-Serif" font-size="14.00">value = [10, 3, 3]</text>
<text text-anchor="start" x="584" y="-7.8" font-family="Helvetica,sans-Serif" font-size="14.00">class = Cluster 0</text>
</g>
<!-- 9&#45;&gt;10 -->
<g id="edge10" class="edge">
<title>9&#45;&gt;10</title>
<path fill="none" stroke="black" d="M665.87,-103.73C662.31,-95.24 658.54,-86.28 654.95,-77.73"/>
<polygon fill="black" stroke="black" points="658.09,-76.16 650.99,-68.3 651.64,-78.87 658.09,-76.16"/>
</g>
<!-- 11 -->
<g id="node12" class="node">
<title>11</title>
<path fill="#c09cf2" stroke="black" d="M826,-68C826,-68 728,-68 728,-68 722,-68 716,-62 716,-56 716,-56 716,-12 716,-12 716,-6 722,0 728,0 728,0 826,0 826,0 832,0 838,-6 838,-12 838,-12 838,-56 838,-56 838,-62 832,-68 826,-68"/>
<text text-anchor="start" x="739.5" y="-52.8" font-family="Helvetica,sans-Serif" font-size="14.00">gini = 0.444</text>
<text text-anchor="start" x="737.5" y="-37.8" font-family="Helvetica,sans-Serif" font-size="14.00">samples = 6</text>
<text text-anchor="start" x="728.5" y="-22.8" font-family="Helvetica,sans-Serif" font-size="14.00">value = [0, 2, 4]</text>
<text text-anchor="start" x="724" y="-7.8" font-family="Helvetica,sans-Serif" font-size="14.00">class = Cluster 2</text>
</g>
<!-- 9&#45;&gt;11 -->
<g id="edge11" class="edge">
<title>9&#45;&gt;11</title>
<path fill="none" stroke="black" d="M718,-103.73C725.75,-94.7 733.97,-85.12 741.73,-76.08"/>
<polygon fill="black" stroke="black" points="744.56,-78.17 748.41,-68.3 739.24,-73.61 744.56,-78.17"/>
</g>
<!-- 13 -->
<g id="node14" class="node">
<title>13</title>
<path fill="#e58139" stroke="black" d="M966,-68C966,-68 868,-68 868,-68 862,-68 856,-62 856,-56 856,-56 856,-12 856,-12 856,-6 862,0 868,0 868,0 966,0 966,0 972,0 978,-6 978,-12 978,-12 978,-56 978,-56 978,-62 972,-68 966,-68"/>
<text text-anchor="start" x="888" y="-52.8" font-family="Helvetica,sans-Serif" font-size="14.00">gini = 0.0</text>
<text text-anchor="start" x="877.5" y="-37.8" font-family="Helvetica,sans-Serif" font-size="14.00">samples = 2</text>
<text text-anchor="start" x="868.5" y="-22.8" font-family="Helvetica,sans-Serif" font-size="14.00">value = [2, 0, 0]</text>
<text text-anchor="start" x="864" y="-7.8" font-family="Helvetica,sans-Serif" font-size="14.00">class = Cluster 0</text>
</g>
<!-- 12&#45;&gt;13 -->
<g id="edge13" class="edge">
<title>12&#45;&gt;13</title>
<path fill="none" stroke="black" d="M917,-103.73C917,-95.52 917,-86.86 917,-78.56"/>
<polygon fill="black" stroke="black" points="920.5,-78.3 917,-68.3 913.5,-78.3 920.5,-78.3"/>
</g>
<!-- 14 -->
<g id="node15" class="node">
<title>14</title>
<path fill="#44e688" stroke="black" d="M1121.5,-68C1121.5,-68 1008.5,-68 1008.5,-68 1002.5,-68 996.5,-62 996.5,-56 996.5,-56 996.5,-12 996.5,-12 996.5,-6 1002.5,0 1008.5,0 1008.5,0 1121.5,0 1121.5,0 1127.5,0 1133.5,-6 1133.5,-12 1133.5,-12 1133.5,-56 1133.5,-56 1133.5,-62 1127.5,-68 1121.5,-68"/>
<text text-anchor="start" x="1027.5" y="-52.8" font-family="Helvetica,sans-Serif" font-size="14.00">gini = 0.099</text>
<text text-anchor="start" x="1017.5" y="-37.8" font-family="Helvetica,sans-Serif" font-size="14.00">samples = 252</text>
<text text-anchor="start" x="1004.5" y="-22.8" font-family="Helvetica,sans-Serif" font-size="14.00">value = [11, 239, 2]</text>
<text text-anchor="start" x="1012" y="-7.8" font-family="Helvetica,sans-Serif" font-size="14.00">class = Cluster 1</text>
</g>
<!-- 12&#45;&gt;14 -->
<g id="edge14" class="edge">
<title>12&#45;&gt;14</title>
<path fill="none" stroke="black" d="M972.11,-103.73C985.05,-94.15 998.82,-83.96 1011.69,-74.44"/>
<polygon fill="black" stroke="black" points="1014.04,-77.06 1019.99,-68.3 1009.87,-71.43 1014.04,-77.06"/>
</g>
</g>
</svg>
