<?xml version="1.0" encoding="utf-8" standalone="no"?>
<!DOCTYPE svg PUBLIC "-//W3C//DTD SVG 1.1//EN"
  "http://www.w3.org/Graphics/SVG/1.1/DTD/svg11.dtd">
<svg xmlns:xlink="http://www.w3.org/1999/xlink" width="720pt" height="576pt" viewBox="0 0 720 576" xmlns="http://www.w3.org/2000/svg" version="1.1">
 <metadata>
  <rdf:RDF xmlns:dc="http://purl.org/dc/elements/1.1/" xmlns:cc="http://creativecommons.org/ns#" xmlns:rdf="http://www.w3.org/1999/02/22-rdf-syntax-ns#">
   <cc:Work>
    <dc:type rdf:resource="http://purl.org/dc/dcmitype/StillImage"/>
    <dc:date>2023-07-17T19:54:02.585024</dc:date>
    <dc:format>image/svg+xml</dc:format>
    <dc:creator>
     <cc:Agent>
      <dc:title>Matplotlib v3.5.2, https://matplotlib.org/</dc:title>
     </cc:Agent>
    </dc:creator>
   </cc:Work>
  </rdf:RDF>
 </metadata>
 <defs>
  <style type="text/css">*{stroke-linejoin: round; stroke-linecap: butt}</style>
 </defs>
 <g id="figure_1">
  <g id="patch_1">
   <path d="M 0 576 
L 720 576 
L 720 0 
L 0 0 
z
" style="fill: #ffffff"/>
  </g>
  <g id="axes_1">
   <g id="patch_2">
    <path d="M 90 378.0675 
L 648 378.0675 
L 648 203.6925 
L 90 203.6925 
z
" style="fill: #ffffff"/>
   </g>
   <g id="QuadMesh_1">
    <path d="M 90 203.6925 
L 124.875 203.6925 
L 124.875 238.5675 
L 90 238.5675 
L 90 203.6925 
" clip-path="url(#pe01d602844)" style="fill: #edbad2"/>
    <path d="M 124.875 203.6925 
L 159.75 203.6925 
L 159.75 238.5675 
L 124.875 238.5675 
L 124.875 203.6925 
" clip-path="url(#pe01d602844)" style="fill: #ebafcc"/>
    <path d="M 159.75 203.6925 
L 194.625 203.6925 
L 194.625 238.5675 
L 159.75 238.5675 
L 159.75 203.6925 
" clip-path="url(#pe01d602844)" style="fill: #eba9c9"/>
    <path d="M 194.625 203.6925 
L 229.5 203.6925 
L 229.5 238.5675 
L 194.625 238.5675 
L 194.625 203.6925 
" clip-path="url(#pe01d602844)" style="fill: #eba9c9"/>
    <path d="M 229.5 203.6925 
L 264.375 203.6925 
L 264.375 238.5675 
L 229.5 238.5675 
L 229.5 203.6925 
" clip-path="url(#pe01d602844)" style="fill: #eaa6c7"/>
    <path d="M 264.375 203.6925 
L 299.25 203.6925 
L 299.25 238.5675 
L 264.375 238.5675 
L 264.375 203.6925 
" clip-path="url(#pe01d602844)" style="fill: #eba9c9"/>
    <path d="M 299.25 203.6925 
L 334.125 203.6925 
L 334.125 238.5675 
L 299.25 238.5675 
L 299.25 203.6925 
" clip-path="url(#pe01d602844)" style="fill: #eaa6c7"/>
    <path d="M 334.125 203.6925 
L 369 203.6925 
L 369 238.5675 
L 334.125 238.5675 
L 334.125 203.6925 
" clip-path="url(#pe01d602844)" style="fill: #eaa5c6"/>
    <path d="M 369 203.6925 
L 403.875 203.6925 
L 403.875 238.5675 
L 369 238.5675 
L 369 203.6925 
" clip-path="url(#pe01d602844)" style="fill: #eaa1c4"/>
    <path d="M 403.875 203.6925 
L 438.75 203.6925 
L 438.75 238.5675 
L 403.875 238.5675 
L 403.875 203.6925 
" clip-path="url(#pe01d602844)" style="fill: #e998bf"/>
    <path d="M 438.75 203.6925 
L 473.625 203.6925 
L 473.625 238.5675 
L 438.75 238.5675 
L 438.75 203.6925 
" clip-path="url(#pe01d602844)" style="fill: #e99cc1"/>
    <path d="M 473.625 203.6925 
L 508.5 203.6925 
L 508.5 238.5675 
L 473.625 238.5675 
L 473.625 203.6925 
" clip-path="url(#pe01d602844)" style="fill: #e998bf"/>
    <path d="M 508.5 203.6925 
L 543.375 203.6925 
L 543.375 238.5675 
L 508.5 238.5675 
L 508.5 203.6925 
" clip-path="url(#pe01d602844)" style="fill: #e99ac0"/>
    <path d="M 543.375 203.6925 
L 578.25 203.6925 
L 578.25 238.5675 
L 543.375 238.5675 
L 543.375 203.6925 
" clip-path="url(#pe01d602844)" style="fill: #e99bc1"/>
    <path d="M 578.25 203.6925 
L 613.125 203.6925 
L 613.125 238.5675 
L 578.25 238.5675 
L 578.25 203.6925 
" clip-path="url(#pe01d602844)" style="fill: #e997bf"/>
    <path d="M 613.125 203.6925 
L 648 203.6925 
L 648 238.5675 
L 613.125 238.5675 
L 613.125 203.6925 
" clip-path="url(#pe01d602844)" style="fill: #e88fba"/>
    <path d="M 90 238.5675 
L 124.875 238.5675 
L 124.875 273.4425 
L 90 273.4425 
L 90 238.5675 
" clip-path="url(#pe01d602844)" style="fill: #f0d7e2"/>
    <path d="M 124.875 238.5675 
L 159.75 238.5675 
L 159.75 273.4425 
L 124.875 273.4425 
L 124.875 238.5675 
" clip-path="url(#pe01d602844)" style="fill: #efcede"/>
    <path d="M 159.75 238.5675 
L 194.625 238.5675 
L 194.625 273.4425 
L 159.75 273.4425 
L 159.75 238.5675 
" clip-path="url(#pe01d602844)" style="fill: #edbdd4"/>
    <path d="M 194.625 238.5675 
L 229.5 238.5675 
L 229.5 273.4425 
L 194.625 273.4425 
L 194.625 238.5675 
" clip-path="url(#pe01d602844)" style="fill: #eba8c8"/>
    <path d="M 229.5 238.5675 
L 264.375 238.5675 
L 264.375 273.4425 
L 229.5 273.4425 
L 229.5 238.5675 
" clip-path="url(#pe01d602844)" style="fill: #eba9c9"/>
    <path d="M 264.375 238.5675 
L 299.25 238.5675 
L 299.25 273.4425 
L 264.375 273.4425 
L 264.375 238.5675 
" clip-path="url(#pe01d602844)" style="fill: #ebaecc"/>
    <path d="M 299.25 238.5675 
L 334.125 238.5675 
L 334.125 273.4425 
L 299.25 273.4425 
L 299.25 238.5675 
" clip-path="url(#pe01d602844)" style="fill: #ecb4cf"/>
    <path d="M 334.125 238.5675 
L 369 238.5675 
L 369 273.4425 
L 334.125 273.4425 
L 334.125 238.5675 
" clip-path="url(#pe01d602844)" style="fill: #ecb7d1"/>
    <path d="M 369 238.5675 
L 403.875 238.5675 
L 403.875 273.4425 
L 369 273.4425 
L 369 238.5675 
" clip-path="url(#pe01d602844)" style="fill: #edbcd3"/>
    <path d="M 403.875 238.5675 
L 438.75 238.5675 
L 438.75 273.4425 
L 403.875 273.4425 
L 403.875 238.5675 
" clip-path="url(#pe01d602844)" style="fill: #eec8da"/>
    <path d="M 438.75 238.5675 
L 473.625 238.5675 
L 473.625 273.4425 
L 438.75 273.4425 
L 438.75 238.5675 
" clip-path="url(#pe01d602844)" style="fill: #eec7d9"/>
    <path d="M 473.625 238.5675 
L 508.5 238.5675 
L 508.5 273.4425 
L 473.625 273.4425 
L 473.625 238.5675 
" clip-path="url(#pe01d602844)" style="fill: #efcfde"/>
    <path d="M 508.5 238.5675 
L 543.375 238.5675 
L 543.375 273.4425 
L 508.5 273.4425 
L 508.5 238.5675 
" clip-path="url(#pe01d602844)" style="fill: #efd0df"/>
    <path d="M 543.375 238.5675 
L 578.25 238.5675 
L 578.25 273.4425 
L 543.375 273.4425 
L 543.375 238.5675 
" clip-path="url(#pe01d602844)" style="fill: #eec5d9"/>
    <path d="M 578.25 238.5675 
L 613.125 238.5675 
L 613.125 273.4425 
L 578.25 273.4425 
L 578.25 238.5675 
" clip-path="url(#pe01d602844)" style="fill: #eec8da"/>
    <path d="M 613.125 238.5675 
L 648 238.5675 
L 648 273.4425 
L 613.125 273.4425 
L 613.125 238.5675 
" clip-path="url(#pe01d602844)" style="fill: #efd0de"/>
    <path d="M 90 273.4425 
L 124.875 273.4425 
L 124.875 308.3175 
L 90 308.3175 
L 90 273.4425 
" clip-path="url(#pe01d602844)" style="fill: #f1e6eb"/>
    <path d="M 124.875 273.4425 
L 159.75 273.4425 
L 159.75 308.3175 
L 124.875 308.3175 
L 124.875 273.4425 
" clip-path="url(#pe01d602844)" style="fill: #f0dbe5"/>
    <path d="M 159.75 273.4425 
L 194.625 273.4425 
L 194.625 308.3175 
L 159.75 308.3175 
L 159.75 273.4425 
" clip-path="url(#pe01d602844)" style="fill: #f0d5e2"/>
    <path d="M 194.625 273.4425 
L 229.5 273.4425 
L 229.5 308.3175 
L 194.625 308.3175 
L 194.625 273.4425 
" clip-path="url(#pe01d602844)" style="fill: #f0dbe5"/>
    <path d="M 229.5 273.4425 
L 264.375 273.4425 
L 264.375 308.3175 
L 229.5 308.3175 
L 229.5 273.4425 
" clip-path="url(#pe01d602844)" style="fill: #f0d5e2"/>
    <path d="M 264.375 273.4425 
L 299.25 273.4425 
L 299.25 308.3175 
L 264.375 308.3175 
L 264.375 273.4425 
" clip-path="url(#pe01d602844)" style="fill: #f0d5e2"/>
    <path d="M 299.25 273.4425 
L 334.125 273.4425 
L 334.125 308.3175 
L 299.25 308.3175 
L 299.25 273.4425 
" clip-path="url(#pe01d602844)" style="fill: #efccdd"/>
    <path d="M 334.125 273.4425 
L 369 273.4425 
L 369 308.3175 
L 334.125 308.3175 
L 334.125 273.4425 
" clip-path="url(#pe01d602844)" style="fill: #efcfde"/>
    <path d="M 369 273.4425 
L 403.875 273.4425 
L 403.875 308.3175 
L 369 308.3175 
L 369 273.4425 
" clip-path="url(#pe01d602844)" style="fill: #efcddd"/>
    <path d="M 403.875 273.4425 
L 438.75 273.4425 
L 438.75 308.3175 
L 403.875 308.3175 
L 403.875 273.4425 
" clip-path="url(#pe01d602844)" style="fill: #eecbdc"/>
    <path d="M 438.75 273.4425 
L 473.625 273.4425 
L 473.625 308.3175 
L 438.75 308.3175 
L 438.75 273.4425 
" clip-path="url(#pe01d602844)" style="fill: #efcddd"/>
    <path d="M 473.625 273.4425 
L 508.5 273.4425 
L 508.5 308.3175 
L 473.625 308.3175 
L 473.625 273.4425 
" clip-path="url(#pe01d602844)" style="fill: #efcddd"/>
    <path d="M 508.5 273.4425 
L 543.375 273.4425 
L 543.375 308.3175 
L 508.5 308.3175 
L 508.5 273.4425 
" clip-path="url(#pe01d602844)" style="fill: #efcddd"/>
    <path d="M 543.375 273.4425 
L 578.25 273.4425 
L 578.25 308.3175 
L 543.375 308.3175 
L 543.375 273.4425 
" clip-path="url(#pe01d602844)" style="fill: #efd1df"/>
    <path d="M 578.25 273.4425 
L 613.125 273.4425 
L 613.125 308.3175 
L 578.25 308.3175 
L 578.25 273.4425 
" clip-path="url(#pe01d602844)" style="fill: #efd2e0"/>
    <path d="M 613.125 273.4425 
L 648 273.4425 
L 648 308.3175 
L 613.125 308.3175 
L 613.125 273.4425 
" clip-path="url(#pe01d602844)" style="fill: #efd4e1"/>
    <path d="M 90 308.3175 
L 124.875 308.3175 
L 124.875 343.1925 
L 90 343.1925 
L 90 308.3175 
" clip-path="url(#pe01d602844)" style="fill: #f2e8ec"/>
    <path d="M 124.875 308.3175 
L 159.75 308.3175 
L 159.75 343.1925 
L 124.875 343.1925 
L 124.875 308.3175 
" clip-path="url(#pe01d602844)" style="fill: #f1e5ea"/>
    <path d="M 159.75 308.3175 
L 194.625 308.3175 
L 194.625 343.1925 
L 159.75 343.1925 
L 159.75 308.3175 
" clip-path="url(#pe01d602844)" style="fill: #f2e8ec"/>
    <path d="M 194.625 308.3175 
L 229.5 308.3175 
L 229.5 343.1925 
L 194.625 343.1925 
L 194.625 308.3175 
" clip-path="url(#pe01d602844)" style="fill: #f2e8ec"/>
    <path d="M 229.5 308.3175 
L 264.375 308.3175 
L 264.375 343.1925 
L 229.5 343.1925 
L 229.5 308.3175 
" clip-path="url(#pe01d602844)" style="fill: #f1e5ea"/>
    <path d="M 264.375 308.3175 
L 299.25 308.3175 
L 299.25 343.1925 
L 264.375 343.1925 
L 264.375 308.3175 
" clip-path="url(#pe01d602844)" style="fill: #f1e0e8"/>
    <path d="M 299.25 308.3175 
L 334.125 308.3175 
L 334.125 343.1925 
L 299.25 343.1925 
L 299.25 308.3175 
" clip-path="url(#pe01d602844)" style="fill: #f1e0e8"/>
    <path d="M 334.125 308.3175 
L 369 308.3175 
L 369 343.1925 
L 334.125 343.1925 
L 334.125 308.3175 
" clip-path="url(#pe01d602844)" style="fill: #f0dbe5"/>
    <path d="M 369 308.3175 
L 403.875 308.3175 
L 403.875 343.1925 
L 369 343.1925 
L 369 308.3175 
" clip-path="url(#pe01d602844)" style="fill: #f0d6e2"/>
    <path d="M 403.875 308.3175 
L 438.75 308.3175 
L 438.75 343.1925 
L 403.875 343.1925 
L 403.875 308.3175 
" clip-path="url(#pe01d602844)" style="fill: #f0d8e3"/>
    <path d="M 438.75 308.3175 
L 473.625 308.3175 
L 473.625 343.1925 
L 438.75 343.1925 
L 438.75 308.3175 
" clip-path="url(#pe01d602844)" style="fill: #f0d7e3"/>
    <path d="M 473.625 308.3175 
L 508.5 308.3175 
L 508.5 343.1925 
L 473.625 343.1925 
L 473.625 308.3175 
" clip-path="url(#pe01d602844)" style="fill: #efd3e1"/>
    <path d="M 508.5 308.3175 
L 543.375 308.3175 
L 543.375 343.1925 
L 508.5 343.1925 
L 508.5 308.3175 
" clip-path="url(#pe01d602844)" style="fill: #efd1df"/>
    <path d="M 543.375 308.3175 
L 578.25 308.3175 
L 578.25 343.1925 
L 543.375 343.1925 
L 543.375 308.3175 
" clip-path="url(#pe01d602844)" style="fill: #efcfde"/>
    <path d="M 578.25 308.3175 
L 613.125 308.3175 
L 613.125 343.1925 
L 578.25 343.1925 
L 578.25 308.3175 
" clip-path="url(#pe01d602844)" style="fill: #eecadb"/>
    <path d="M 613.125 308.3175 
L 648 308.3175 
L 648 343.1925 
L 613.125 343.1925 
L 613.125 308.3175 
" clip-path="url(#pe01d602844)" style="fill: #eec7d9"/>
    <path d="M 90 343.1925 
L 124.875 343.1925 
L 124.875 378.0675 
L 90 378.0675 
L 90 343.1925 
" clip-path="url(#pe01d602844)" style="fill: #f2e6eb"/>
    <path d="M 124.875 343.1925 
L 159.75 343.1925 
L 159.75 378.0675 
L 124.875 378.0675 
L 124.875 343.1925 
" clip-path="url(#pe01d602844)" style="fill: #f2e8ec"/>
    <path d="M 159.75 343.1925 
L 194.625 343.1925 
L 194.625 378.0675 
L 159.75 378.0675 
L 159.75 343.1925 
" clip-path="url(#pe01d602844)" style="fill: #f1e6eb"/>
    <path d="M 194.625 343.1925 
L 229.5 343.1925 
L 229.5 378.0675 
L 194.625 378.0675 
L 194.625 343.1925 
" clip-path="url(#pe01d602844)" style="fill: #f1e6eb"/>
    <path d="M 229.5 343.1925 
L 264.375 343.1925 
L 264.375 378.0675 
L 229.5 378.0675 
L 229.5 343.1925 
" clip-path="url(#pe01d602844)" style="fill: #f1e1e8"/>
    <path d="M 264.375 343.1925 
L 299.25 343.1925 
L 299.25 378.0675 
L 264.375 378.0675 
L 264.375 343.1925 
" clip-path="url(#pe01d602844)" style="fill: #f1dfe7"/>
    <path d="M 299.25 343.1925 
L 334.125 343.1925 
L 334.125 378.0675 
L 299.25 378.0675 
L 299.25 343.1925 
" clip-path="url(#pe01d602844)" style="fill: #f1e2e9"/>
    <path d="M 334.125 343.1925 
L 369 343.1925 
L 369 378.0675 
L 334.125 378.0675 
L 334.125 343.1925 
" clip-path="url(#pe01d602844)" style="fill: #f1dfe7"/>
    <path d="M 369 343.1925 
L 403.875 343.1925 
L 403.875 378.0675 
L 369 378.0675 
L 369 343.1925 
" clip-path="url(#pe01d602844)" style="fill: #f0dde6"/>
    <path d="M 403.875 343.1925 
L 438.75 343.1925 
L 438.75 378.0675 
L 403.875 378.0675 
L 403.875 343.1925 
" clip-path="url(#pe01d602844)" style="fill: #f0dae4"/>
    <path d="M 438.75 343.1925 
L 473.625 343.1925 
L 473.625 378.0675 
L 438.75 378.0675 
L 438.75 343.1925 
" clip-path="url(#pe01d602844)" style="fill: #f0dbe5"/>
    <path d="M 473.625 343.1925 
L 508.5 343.1925 
L 508.5 378.0675 
L 473.625 378.0675 
L 473.625 343.1925 
" clip-path="url(#pe01d602844)" style="fill: #f0d9e4"/>
    <path d="M 508.5 343.1925 
L 543.375 343.1925 
L 543.375 378.0675 
L 508.5 378.0675 
L 508.5 343.1925 
" clip-path="url(#pe01d602844)" style="fill: #f0dce6"/>
    <path d="M 543.375 343.1925 
L 578.25 343.1925 
L 578.25 378.0675 
L 543.375 378.0675 
L 543.375 343.1925 
" clip-path="url(#pe01d602844)" style="fill: #f1e0e8"/>
    <path d="M 578.25 343.1925 
L 613.125 343.1925 
L 613.125 378.0675 
L 578.25 378.0675 
L 578.25 343.1925 
" clip-path="url(#pe01d602844)" style="fill: #f1dfe7"/>
    <path d="M 613.125 343.1925 
L 648 343.1925 
L 648 378.0675 
L 613.125 378.0675 
L 613.125 343.1925 
" clip-path="url(#pe01d602844)" style="fill: #f1dee6"/>
   </g>
   <g id="matplotlib.axis_1">
    <g id="xtick_1">
     <g id="line2d_1">
      <defs>
       <path id="m57e00c5b84" d="M 0 0 
L 0 3.5 
" style="stroke: #000000; stroke-width: 0.8"/>
      </defs>
      <g>
       <use xlink:href="#m57e00c5b84" x="107.4375" y="378.0675" style="stroke: #000000; stroke-width: 0.8"/>
      </g>
     </g>
     <g id="text_1">
      <!-- 2025 -->
      <g transform="translate(92.4375 395.914375)scale(0.15 -0.15)">
       <defs>
        <path id="PalatinoLinotype-Roman-32" d="M 144 -31 
L 106 0 
L 106 144 
L 1153 1253 
Q 1800 1938 1990 2313 
Q 2181 2688 2181 3013 
Q 2181 3394 1950 3647 
Q 1719 3900 1325 3900 
Q 1072 3900 884 3822 
Q 697 3744 633 3647 
Q 569 3550 447 3103 
L 419 3078 
L 291 3078 
L 259 3106 
Q 331 3528 359 3941 
Q 653 4228 908 4308 
Q 1163 4388 1441 4388 
Q 1772 4388 2075 4263 
Q 2378 4138 2562 3858 
Q 2747 3578 2747 3209 
Q 2747 2934 2639 2657 
Q 2531 2381 2323 2123 
Q 2116 1866 1756 1506 
L 781 513 
L 2016 513 
Q 2584 513 2963 553 
L 2984 528 
Q 2966 422 2966 250 
Q 2966 94 2984 3 
L 2963 -31 
Q 2738 -19 2272 -9 
Q 1806 0 1656 0 
Q 1353 0 840 -8 
Q 328 -16 144 -31 
z
" transform="scale(0.015625)"/>
        <path id="PalatinoLinotype-Roman-30" d="M 194 1909 
Q 194 2466 250 2911 
Q 306 3356 498 3704 
Q 691 4053 980 4226 
Q 1269 4400 1638 4400 
Q 2056 4400 2373 4184 
Q 2691 3969 2830 3522 
Q 2969 3075 2969 2306 
Q 2969 1056 2586 465 
Q 2203 -125 1525 -125 
Q 1184 -125 923 22 
Q 663 169 495 447 
Q 328 725 261 1103 
Q 194 1481 194 1909 
z
M 731 2091 
Q 731 1497 820 1009 
Q 909 522 1117 308 
Q 1325 94 1613 94 
Q 1891 94 2077 284 
Q 2263 475 2348 937 
Q 2434 1400 2434 2081 
Q 2434 3150 2231 3662 
Q 2028 4175 1559 4175 
Q 1150 4175 940 3778 
Q 731 3381 731 2091 
z
" transform="scale(0.015625)"/>
        <path id="PalatinoLinotype-Roman-35" d="M 409 44 
Q 334 288 100 850 
L 106 891 
L 216 953 
L 253 944 
Q 513 472 577 408 
Q 641 344 869 258 
Q 1097 172 1350 172 
Q 1666 172 1909 309 
Q 2153 447 2272 715 
Q 2391 984 2391 1325 
Q 2391 1659 2273 1901 
Q 2156 2144 1915 2269 
Q 1675 2394 1397 2394 
Q 1222 2394 1080 2347 
Q 938 2300 842 2226 
Q 747 2153 616 2009 
L 488 2047 
L 522 2719 
Q 534 2909 534 3103 
L 534 3659 
Q 534 3909 519 4138 
Q 509 4278 509 4316 
L 550 4347 
Q 1028 4309 1641 4309 
Q 2106 4309 2756 4347 
L 2769 4316 
Q 2747 4163 2747 4031 
Q 2747 3966 2756 3813 
L 2725 3794 
Q 2369 3819 1769 3819 
Q 953 3819 822 3813 
Q 775 3444 756 2513 
Q 1013 2700 1219 2767 
Q 1425 2834 1666 2834 
Q 2006 2834 2318 2678 
Q 2631 2522 2786 2225 
Q 2941 1928 2941 1584 
Q 2941 950 2417 417 
Q 1894 -116 1078 -116 
Q 859 -116 717 -78 
Q 575 -41 409 44 
z
" transform="scale(0.015625)"/>
       </defs>
       <use xlink:href="#PalatinoLinotype-Roman-32"/>
       <use xlink:href="#PalatinoLinotype-Roman-30" x="50"/>
       <use xlink:href="#PalatinoLinotype-Roman-32" x="100"/>
       <use xlink:href="#PalatinoLinotype-Roman-35" x="150"/>
      </g>
     </g>
    </g>
    <g id="xtick_2">
     <g id="line2d_2">
      <g>
       <use xlink:href="#m57e00c5b84" x="142.3125" y="378.0675" style="stroke: #000000; stroke-width: 0.8"/>
      </g>
     </g>
     <g id="text_2">
      <!-- 2030 -->
      <g transform="translate(127.3125 395.914375)scale(0.15 -0.15)">
       <defs>
        <path id="PalatinoLinotype-Roman-33" d="M 325 72 
Q 269 441 116 959 
L 131 1006 
L 247 1050 
L 291 1028 
Q 400 741 525 553 
Q 650 366 884 266 
Q 1119 166 1391 166 
Q 1734 166 1936 309 
Q 2138 453 2247 700 
Q 2356 947 2356 1256 
Q 2356 1672 2139 1909 
Q 1922 2147 1538 2147 
Q 1406 2147 1303 2122 
Q 1200 2097 984 2009 
L 950 2041 
L 1019 2381 
Q 1272 2366 1356 2366 
Q 1722 2366 1936 2625 
Q 2150 2884 2150 3238 
Q 2150 3547 1926 3756 
Q 1703 3966 1375 3966 
Q 1159 3966 967 3878 
Q 775 3791 650 3666 
Q 597 3559 481 3247 
L 450 3219 
L 309 3219 
L 284 3247 
L 472 3972 
Q 863 4413 1531 4413 
Q 2041 4413 2355 4142 
Q 2669 3872 2669 3463 
Q 2669 3150 2484 2889 
Q 2300 2628 1972 2397 
Q 2513 2331 2733 2073 
Q 2953 1816 2953 1450 
Q 2953 850 2409 370 
Q 1866 -109 1153 -109 
Q 941 -109 756 -73 
Q 572 -38 325 72 
z
" transform="scale(0.015625)"/>
       </defs>
       <use xlink:href="#PalatinoLinotype-Roman-32"/>
       <use xlink:href="#PalatinoLinotype-Roman-30" x="50"/>
       <use xlink:href="#PalatinoLinotype-Roman-33" x="100"/>
       <use xlink:href="#PalatinoLinotype-Roman-30" x="150"/>
      </g>
     </g>
    </g>
    <g id="xtick_3">
     <g id="line2d_3">
      <g>
       <use xlink:href="#m57e00c5b84" x="177.1875" y="378.0675" style="stroke: #000000; stroke-width: 0.8"/>
      </g>
     </g>
     <g id="text_3">
      <!-- 2035 -->
      <g transform="translate(162.1875 395.914375)scale(0.15 -0.15)">
       <use xlink:href="#PalatinoLinotype-Roman-32"/>
       <use xlink:href="#PalatinoLinotype-Roman-30" x="50"/>
       <use xlink:href="#PalatinoLinotype-Roman-33" x="100"/>
       <use xlink:href="#PalatinoLinotype-Roman-35" x="150"/>
      </g>
     </g>
    </g>
    <g id="xtick_4">
     <g id="line2d_4">
      <g>
       <use xlink:href="#m57e00c5b84" x="212.0625" y="378.0675" style="stroke: #000000; stroke-width: 0.8"/>
      </g>
     </g>
     <g id="text_4">
      <!-- 2040 -->
      <g transform="translate(197.0625 395.914375)scale(0.15 -0.15)">
       <defs>
        <path id="PalatinoLinotype-Roman-34" d="M 1028 -25 
L 1003 0 
L 1003 134 
L 1028 159 
Q 1491 172 1577 187 
Q 1663 203 1703 253 
Q 1744 303 1764 497 
Q 1784 691 1784 909 
L 1784 1141 
L 1100 1141 
Q 503 1141 91 1122 
L 38 1291 
Q 581 2309 1853 4241 
L 2294 4419 
L 2372 4381 
Q 2338 3850 2338 3066 
L 2328 2184 
L 2328 1538 
Q 2759 1541 2994 1556 
L 3022 1525 
Q 3016 1406 3016 1353 
Q 3019 1250 3025 1150 
L 2994 1122 
Q 2691 1141 2488 1141 
L 2328 1141 
L 2328 931 
Q 2328 581 2347 434 
Q 2366 288 2406 245 
Q 2447 203 2570 183 
Q 2694 163 2997 159 
L 3025 134 
L 3025 0 
L 3000 -25 
Q 2450 0 2078 0 
Q 1472 0 1028 -25 
z
M 450 1538 
L 1784 1538 
L 1813 3759 
Q 1513 3331 1056 2584 
Q 600 1838 450 1538 
z
" transform="scale(0.015625)"/>
       </defs>
       <use xlink:href="#PalatinoLinotype-Roman-32"/>
       <use xlink:href="#PalatinoLinotype-Roman-30" x="50"/>
       <use xlink:href="#PalatinoLinotype-Roman-34" x="100"/>
       <use xlink:href="#PalatinoLinotype-Roman-30" x="150"/>
      </g>
     </g>
    </g>
    <g id="xtick_5">
     <g id="line2d_5">
      <g>
       <use xlink:href="#m57e00c5b84" x="246.9375" y="378.0675" style="stroke: #000000; stroke-width: 0.8"/>
      </g>
     </g>
     <g id="text_5">
      <!-- 2045 -->
      <g transform="translate(231.9375 395.914375)scale(0.15 -0.15)">
       <use xlink:href="#PalatinoLinotype-Roman-32"/>
       <use xlink:href="#PalatinoLinotype-Roman-30" x="50"/>
       <use xlink:href="#PalatinoLinotype-Roman-34" x="100"/>
       <use xlink:href="#PalatinoLinotype-Roman-35" x="150"/>
      </g>
     </g>
    </g>
    <g id="xtick_6">
     <g id="line2d_6">
      <g>
       <use xlink:href="#m57e00c5b84" x="281.8125" y="378.0675" style="stroke: #000000; stroke-width: 0.8"/>
      </g>
     </g>
     <g id="text_6">
      <!-- 2050 -->
      <g transform="translate(266.8125 395.914375)scale(0.15 -0.15)">
       <use xlink:href="#PalatinoLinotype-Roman-32"/>
       <use xlink:href="#PalatinoLinotype-Roman-30" x="50"/>
       <use xlink:href="#PalatinoLinotype-Roman-35" x="100"/>
       <use xlink:href="#PalatinoLinotype-Roman-30" x="150"/>
      </g>
     </g>
    </g>
    <g id="xtick_7">
     <g id="line2d_7">
      <g>
       <use xlink:href="#m57e00c5b84" x="316.6875" y="378.0675" style="stroke: #000000; stroke-width: 0.8"/>
      </g>
     </g>
     <g id="text_7">
      <!-- 2055 -->
      <g transform="translate(301.6875 395.914375)scale(0.15 -0.15)">
       <use xlink:href="#PalatinoLinotype-Roman-32"/>
       <use xlink:href="#PalatinoLinotype-Roman-30" x="50"/>
       <use xlink:href="#PalatinoLinotype-Roman-35" x="100"/>
       <use xlink:href="#PalatinoLinotype-Roman-35" x="150"/>
      </g>
     </g>
    </g>
    <g id="xtick_8">
     <g id="line2d_8">
      <g>
       <use xlink:href="#m57e00c5b84" x="351.5625" y="378.0675" style="stroke: #000000; stroke-width: 0.8"/>
      </g>
     </g>
     <g id="text_8">
      <!-- 2060 -->
      <g transform="translate(336.5625 395.914375)scale(0.15 -0.15)">
       <defs>
        <path id="PalatinoLinotype-Roman-36" d="M 2700 4322 
L 2700 4284 
Q 2359 4213 1923 3944 
Q 1488 3675 1191 3222 
Q 894 2769 847 2128 
Q 953 2203 1091 2309 
Q 1269 2444 1351 2494 
Q 1434 2544 1573 2581 
Q 1713 2619 1894 2619 
Q 2216 2619 2472 2476 
Q 2728 2334 2856 2057 
Q 2984 1781 2984 1413 
Q 2984 891 2731 539 
Q 2478 188 2193 36 
Q 1909 -116 1541 -116 
Q 913 -116 566 354 
Q 219 825 219 1578 
Q 219 2078 364 2539 
Q 509 3000 806 3373 
Q 1103 3747 1564 4037 
Q 2025 4328 2472 4431 
L 2700 4322 
z
M 788 1341 
Q 788 1031 877 728 
Q 966 425 1162 259 
Q 1359 94 1625 94 
Q 1853 94 2047 222 
Q 2241 350 2342 623 
Q 2444 897 2444 1200 
Q 2444 1503 2344 1742 
Q 2244 1981 2053 2114 
Q 1863 2247 1609 2247 
Q 1422 2247 1234 2156 
Q 1047 2066 945 1950 
Q 844 1834 816 1704 
Q 788 1575 788 1341 
z
" transform="scale(0.015625)"/>
       </defs>
       <use xlink:href="#PalatinoLinotype-Roman-32"/>
       <use xlink:href="#PalatinoLinotype-Roman-30" x="50"/>
       <use xlink:href="#PalatinoLinotype-Roman-36" x="100"/>
       <use xlink:href="#PalatinoLinotype-Roman-30" x="150"/>
      </g>
     </g>
    </g>
    <g id="xtick_9">
     <g id="line2d_9">
      <g>
       <use xlink:href="#m57e00c5b84" x="386.4375" y="378.0675" style="stroke: #000000; stroke-width: 0.8"/>
      </g>
     </g>
     <g id="text_9">
      <!-- 2065 -->
      <g transform="translate(371.4375 395.914375)scale(0.15 -0.15)">
       <use xlink:href="#PalatinoLinotype-Roman-32"/>
       <use xlink:href="#PalatinoLinotype-Roman-30" x="50"/>
       <use xlink:href="#PalatinoLinotype-Roman-36" x="100"/>
       <use xlink:href="#PalatinoLinotype-Roman-35" x="150"/>
      </g>
     </g>
    </g>
    <g id="xtick_10">
     <g id="line2d_10">
      <g>
       <use xlink:href="#m57e00c5b84" x="421.3125" y="378.0675" style="stroke: #000000; stroke-width: 0.8"/>
      </g>
     </g>
     <g id="text_10">
      <!-- 2070 -->
      <g transform="translate(406.3125 395.914375)scale(0.15 -0.15)">
       <defs>
        <path id="PalatinoLinotype-Roman-37" d="M 422 -25 
L 356 41 
Q 469 209 822 766 
L 1394 1678 
L 1931 2556 
L 2400 3363 
Q 2550 3625 2638 3788 
L 2606 3819 
L 1638 3819 
Q 1272 3819 987 3806 
Q 703 3794 653 3770 
Q 603 3747 583 3712 
Q 563 3678 538 3475 
L 481 3034 
L 453 3009 
L 322 3009 
L 294 3034 
L 309 3891 
Q 309 4038 294 4344 
L 356 4375 
Q 528 4356 1054 4334 
Q 1581 4313 1759 4313 
Q 2394 4313 3144 4356 
L 3169 4331 
L 3169 4169 
L 2719 3372 
Q 2309 2641 1784 1639 
Q 1259 638 1019 0 
L 988 -25 
Q 809 -9 719 -9 
Q 575 -9 422 -25 
z
" transform="scale(0.015625)"/>
       </defs>
       <use xlink:href="#PalatinoLinotype-Roman-32"/>
       <use xlink:href="#PalatinoLinotype-Roman-30" x="50"/>
       <use xlink:href="#PalatinoLinotype-Roman-37" x="100"/>
       <use xlink:href="#PalatinoLinotype-Roman-30" x="150"/>
      </g>
     </g>
    </g>
    <g id="xtick_11">
     <g id="line2d_11">
      <g>
       <use xlink:href="#m57e00c5b84" x="456.1875" y="378.0675" style="stroke: #000000; stroke-width: 0.8"/>
      </g>
     </g>
     <g id="text_11">
      <!-- 2075 -->
      <g transform="translate(441.1875 395.914375)scale(0.15 -0.15)">
       <use xlink:href="#PalatinoLinotype-Roman-32"/>
       <use xlink:href="#PalatinoLinotype-Roman-30" x="50"/>
       <use xlink:href="#PalatinoLinotype-Roman-37" x="100"/>
       <use xlink:href="#PalatinoLinotype-Roman-35" x="150"/>
      </g>
     </g>
    </g>
    <g id="xtick_12">
     <g id="line2d_12">
      <g>
       <use xlink:href="#m57e00c5b84" x="491.0625" y="378.0675" style="stroke: #000000; stroke-width: 0.8"/>
      </g>
     </g>
     <g id="text_12">
      <!-- 2080 -->
      <g transform="translate(476.0625 395.914375)scale(0.15 -0.15)">
       <defs>
        <path id="PalatinoLinotype-Roman-38" d="M 1050 2216 
Q 703 2400 523 2639 
Q 344 2878 344 3219 
Q 344 3697 697 4039 
Q 1050 4381 1659 4381 
Q 1969 4381 2233 4273 
Q 2497 4166 2640 3952 
Q 2784 3738 2784 3475 
Q 2784 3200 2615 2948 
Q 2447 2697 2019 2438 
L 2019 2409 
Q 2384 2234 2561 2112 
Q 2738 1991 2850 1783 
Q 2963 1575 2963 1303 
Q 2963 931 2748 589 
Q 2534 247 2184 69 
Q 1834 -109 1459 -109 
Q 913 -109 556 197 
Q 200 503 200 1013 
Q 200 1425 445 1723 
Q 691 2022 1050 2188 
L 1050 2216 
z
M 1778 2516 
Q 2113 2725 2231 2936 
Q 2350 3147 2350 3391 
Q 2350 3750 2144 3959 
Q 1938 4169 1591 4169 
Q 1259 4169 1040 3983 
Q 822 3797 822 3463 
Q 822 3209 964 3023 
Q 1106 2838 1778 2516 
z
M 1303 2103 
Q 934 1884 790 1632 
Q 647 1381 647 1063 
Q 647 616 897 361 
Q 1147 106 1541 106 
Q 1809 106 2028 231 
Q 2247 356 2355 573 
Q 2463 791 2463 1047 
Q 2463 1416 2205 1622 
Q 1947 1828 1303 2103 
z
" transform="scale(0.015625)"/>
       </defs>
       <use xlink:href="#PalatinoLinotype-Roman-32"/>
       <use xlink:href="#PalatinoLinotype-Roman-30" x="50"/>
       <use xlink:href="#PalatinoLinotype-Roman-38" x="100"/>
       <use xlink:href="#PalatinoLinotype-Roman-30" x="150"/>
      </g>
     </g>
    </g>
    <g id="xtick_13">
     <g id="line2d_13">
      <g>
       <use xlink:href="#m57e00c5b84" x="525.9375" y="378.0675" style="stroke: #000000; stroke-width: 0.8"/>
      </g>
     </g>
     <g id="text_13">
      <!-- 2085 -->
      <g transform="translate(510.9375 395.914375)scale(0.15 -0.15)">
       <use xlink:href="#PalatinoLinotype-Roman-32"/>
       <use xlink:href="#PalatinoLinotype-Roman-30" x="50"/>
       <use xlink:href="#PalatinoLinotype-Roman-38" x="100"/>
       <use xlink:href="#PalatinoLinotype-Roman-35" x="150"/>
      </g>
     </g>
    </g>
    <g id="xtick_14">
     <g id="line2d_14">
      <g>
       <use xlink:href="#m57e00c5b84" x="560.8125" y="378.0675" style="stroke: #000000; stroke-width: 0.8"/>
      </g>
     </g>
     <g id="text_14">
      <!-- 2090 -->
      <g transform="translate(545.8125 395.914375)scale(0.15 -0.15)">
       <defs>
        <path id="PalatinoLinotype-Roman-39" d="M 416 -25 
L 416 34 
Q 1284 234 1781 798 
Q 2278 1363 2341 2178 
Q 1881 1631 1313 1631 
Q 953 1631 686 1803 
Q 419 1975 291 2250 
Q 163 2525 163 2894 
Q 163 3572 570 3981 
Q 978 4391 1581 4391 
Q 2191 4391 2567 3950 
Q 2944 3509 2944 2681 
Q 2944 2316 2875 1980 
Q 2806 1644 2615 1291 
Q 2425 938 2111 634 
Q 1797 331 1401 129 
Q 1006 -72 622 -125 
L 416 -25 
z
M 703 3097 
Q 703 2825 798 2564 
Q 894 2303 1091 2161 
Q 1288 2019 1553 2019 
Q 1922 2019 2147 2267 
Q 2372 2516 2372 3009 
Q 2372 3522 2150 3848 
Q 1928 4175 1541 4175 
Q 1169 4175 936 3900 
Q 703 3625 703 3097 
z
" transform="scale(0.015625)"/>
       </defs>
       <use xlink:href="#PalatinoLinotype-Roman-32"/>
       <use xlink:href="#PalatinoLinotype-Roman-30" x="50"/>
       <use xlink:href="#PalatinoLinotype-Roman-39" x="100"/>
       <use xlink:href="#PalatinoLinotype-Roman-30" x="150"/>
      </g>
     </g>
    </g>
    <g id="xtick_15">
     <g id="line2d_15">
      <g>
       <use xlink:href="#m57e00c5b84" x="595.6875" y="378.0675" style="stroke: #000000; stroke-width: 0.8"/>
      </g>
     </g>
     <g id="text_15">
      <!-- 2095 -->
      <g transform="translate(580.6875 395.914375)scale(0.15 -0.15)">
       <use xlink:href="#PalatinoLinotype-Roman-32"/>
       <use xlink:href="#PalatinoLinotype-Roman-30" x="50"/>
       <use xlink:href="#PalatinoLinotype-Roman-39" x="100"/>
       <use xlink:href="#PalatinoLinotype-Roman-35" x="150"/>
      </g>
     </g>
    </g>
    <g id="xtick_16">
     <g id="line2d_16">
      <g>
       <use xlink:href="#m57e00c5b84" x="630.5625" y="378.0675" style="stroke: #000000; stroke-width: 0.8"/>
      </g>
     </g>
     <g id="text_16">
      <!-- 2100 -->
      <g transform="translate(615.5625 395.914375)scale(0.15 -0.15)">
       <defs>
        <path id="PalatinoLinotype-Roman-31" d="M 478 3531 
L 422 3550 
L 391 3806 
L 422 3838 
Q 734 3928 1212 4128 
Q 1691 4328 1897 4434 
L 1978 4403 
Q 1928 3034 1928 2759 
L 1928 1600 
Q 1928 1172 1937 795 
Q 1947 419 1965 351 
Q 1984 284 2029 246 
Q 2075 209 2156 198 
Q 2238 188 2641 166 
L 2663 141 
L 2663 0 
L 2641 -25 
Q 1956 0 1675 0 
Q 1463 0 634 -25 
L 613 0 
L 613 141 
L 638 166 
Q 1106 200 1173 215 
Q 1241 231 1277 270 
Q 1313 309 1334 418 
Q 1356 528 1370 1065 
Q 1384 1603 1384 1616 
L 1384 2847 
Q 1384 3753 1379 3831 
Q 1375 3909 1325 3909 
Q 1313 3909 1291 3903 
Q 1269 3897 1153 3847 
L 844 3709 
Q 650 3625 478 3531 
z
" transform="scale(0.015625)"/>
       </defs>
       <use xlink:href="#PalatinoLinotype-Roman-32"/>
       <use xlink:href="#PalatinoLinotype-Roman-31" x="50"/>
       <use xlink:href="#PalatinoLinotype-Roman-30" x="100"/>
       <use xlink:href="#PalatinoLinotype-Roman-30" x="150"/>
      </g>
     </g>
    </g>
   </g>
   <g id="matplotlib.axis_2">
    <g id="ytick_1">
     <g id="line2d_17">
      <defs>
       <path id="m1bd8975b8a" d="M 0 0 
L -3.5 0 
" style="stroke: #000000; stroke-width: 0.8"/>
      </defs>
      <g>
       <use xlink:href="#m1bd8975b8a" x="90" y="221.13" style="stroke: #000000; stroke-width: 0.8"/>
      </g>
     </g>
     <g id="text_17">
      <!-- WindGas -->
      <g transform="translate(20.810938 224.444062)scale(0.15 -0.15)">
       <defs>
        <path id="PalatinoLinotype-Roman-57" d="M 1472 -59 
L 1188 1244 
L 584 3816 
Q 513 4122 434 4158 
Q 356 4194 97 4225 
L 72 4250 
L 72 4388 
L 97 4416 
Q 547 4391 894 4391 
Q 1153 4391 1650 4416 
L 1678 4388 
L 1678 4250 
L 1653 4225 
Q 1306 4213 1236 4191 
Q 1166 4169 1166 4088 
Q 1166 4022 1228 3673 
Q 1291 3325 1341 3106 
L 1831 941 
L 2603 2863 
Q 2906 3625 3200 4459 
L 3400 4459 
Q 3650 3675 3916 2938 
L 4650 900 
L 5181 2766 
Q 5263 3059 5381 3537 
Q 5500 4016 5500 4091 
Q 5500 4175 5422 4195 
Q 5344 4216 4972 4225 
L 4947 4253 
L 4947 4391 
L 4972 4416 
Q 5503 4391 5613 4391 
Q 5713 4391 6263 4416 
L 6288 4391 
L 6288 4250 
L 6263 4228 
Q 6084 4222 6025 4195 
Q 5966 4169 5922 4114 
Q 5878 4059 5797 3794 
L 5616 3213 
L 5294 2159 
Q 5225 1931 5041 1234 
L 4694 -59 
L 4375 -59 
Q 4050 909 3838 1491 
L 3125 3419 
L 2503 1875 
L 2169 1000 
Q 2038 653 1959 434 
L 1788 -59 
L 1472 -59 
z
" transform="scale(0.015625)"/>
        <path id="PalatinoLinotype-Roman-69" d="M 900 4375 
Q 1047 4375 1150 4272 
Q 1253 4169 1253 4022 
Q 1253 3878 1150 3775 
Q 1047 3672 900 3672 
Q 756 3672 651 3773 
Q 547 3875 547 4022 
Q 547 4169 651 4272 
Q 756 4375 900 4375 
z
M 1166 2978 
L 1225 2938 
Q 1191 2528 1191 1897 
L 1191 1191 
Q 1191 1122 1203 748 
Q 1216 375 1230 312 
Q 1244 250 1272 222 
Q 1300 194 1340 186 
Q 1381 178 1678 159 
L 1706 134 
L 1706 3 
L 1681 -25 
Q 1291 0 928 0 
Q 569 0 178 -25 
L 150 3 
L 150 134 
L 178 159 
Q 481 178 520 187 
Q 559 197 589 226 
Q 619 256 630 317 
Q 641 378 655 720 
Q 669 1063 669 1238 
L 669 1853 
Q 669 1978 656 2193 
Q 644 2409 636 2459 
Q 628 2509 587 2532 
Q 547 2556 425 2556 
L 163 2559 
L 134 2584 
L 134 2719 
L 159 2744 
Q 756 2816 1166 2978 
z
M 922 -188 
L 922 -188 
z
" transform="scale(0.015625)"/>
        <path id="PalatinoLinotype-Roman-6e" d="M 1069 2978 
L 1128 2938 
Q 1109 2728 1103 2388 
Q 1353 2594 1578 2806 
Q 1644 2866 1701 2894 
Q 1759 2922 1893 2953 
Q 2028 2984 2169 2984 
Q 2406 2984 2629 2887 
Q 2853 2791 2967 2658 
Q 3081 2525 3125 2344 
Q 3169 2163 3169 1897 
L 3169 1347 
Q 3169 1294 3184 569 
Q 3191 272 3250 215 
Q 3309 159 3638 159 
L 3663 134 
L 3663 0 
L 3638 -25 
Q 3241 0 3100 0 
Q 3019 0 2644 -25 
L 2606 9 
Q 2647 416 2647 1069 
L 2647 1478 
Q 2647 1847 2630 2009 
Q 2613 2172 2525 2305 
Q 2438 2438 2291 2511 
Q 2144 2584 1941 2584 
Q 1778 2584 1662 2551 
Q 1547 2519 1403 2417 
Q 1259 2316 1190 2227 
Q 1122 2138 1108 2061 
Q 1094 1984 1094 1734 
L 1094 1191 
Q 1094 1122 1106 748 
Q 1119 375 1133 312 
Q 1147 250 1175 222 
Q 1203 194 1243 186 
Q 1284 178 1581 159 
L 1609 134 
L 1609 3 
L 1584 -25 
Q 1194 0 831 0 
Q 472 0 81 -25 
L 53 3 
L 53 134 
L 81 159 
Q 384 178 423 187 
Q 463 197 492 226 
Q 522 256 533 317 
Q 544 378 558 720 
Q 572 1063 572 1238 
L 572 1853 
Q 572 1978 559 2193 
Q 547 2409 539 2459 
Q 531 2509 490 2532 
Q 450 2556 328 2556 
L 66 2559 
L 38 2584 
L 38 2719 
L 63 2744 
Q 659 2816 1069 2978 
z
" transform="scale(0.015625)"/>
        <path id="PalatinoLinotype-Roman-64" d="M 2103 4238 
L 2103 4369 
L 2128 4397 
Q 2725 4466 3134 4628 
L 3194 4591 
Q 3159 4231 3159 3150 
L 3159 1103 
Q 3159 788 3170 552 
Q 3181 316 3209 272 
Q 3238 228 3302 200 
Q 3366 172 3666 147 
L 3694 122 
L 3694 3 
L 3666 -25 
Q 3328 -3 3141 -3 
Q 2972 -3 2659 -25 
L 2625 9 
Q 2634 316 2634 438 
Q 2634 453 2638 556 
Q 2466 431 2294 278 
Q 2041 53 1963 -3 
Q 1819 -75 1553 -75 
Q 1122 -75 820 137 
Q 519 350 391 679 
Q 263 1009 263 1356 
Q 263 1709 395 2036 
Q 528 2363 773 2513 
Q 1019 2663 1308 2823 
Q 1597 2984 1881 2984 
Q 2278 2984 2638 2788 
L 2625 3484 
Q 2619 3847 2606 3989 
Q 2594 4131 2575 4157 
Q 2556 4184 2511 4196 
Q 2466 4209 2131 4209 
L 2103 4238 
z
M 2638 2253 
Q 2444 2472 2208 2587 
Q 1972 2703 1734 2703 
Q 1472 2703 1245 2561 
Q 1019 2419 919 2139 
Q 819 1859 819 1531 
Q 819 984 1095 653 
Q 1372 322 1791 322 
Q 2019 322 2195 426 
Q 2372 531 2486 709 
Q 2600 888 2619 1066 
Q 2638 1244 2638 1719 
L 2638 2253 
z
" transform="scale(0.015625)"/>
        <path id="PalatinoLinotype-Roman-47" d="M 4681 1703 
L 4681 1609 
L 4669 1572 
L 4516 1481 
Q 4459 1447 4450 1428 
Q 4441 1409 4427 1242 
Q 4413 1075 4413 834 
Q 4413 563 4447 244 
L 4428 213 
Q 3572 -116 2669 -116 
Q 1975 -116 1415 146 
Q 856 409 528 925 
Q 200 1441 200 2150 
Q 200 3231 939 3868 
Q 1678 4506 2869 4506 
Q 3744 4506 4441 4209 
L 4463 4175 
Q 4406 3966 4331 3297 
L 4306 3275 
L 4163 3275 
L 4138 3300 
L 4122 3631 
Q 4113 3794 4102 3822 
Q 4091 3850 4034 3895 
Q 3978 3941 3745 4039 
Q 3513 4138 3278 4183 
Q 3044 4228 2775 4228 
Q 2203 4228 1762 3990 
Q 1322 3753 1098 3298 
Q 875 2844 875 2288 
Q 875 1713 1115 1217 
Q 1356 722 1806 444 
Q 2256 166 2853 166 
Q 3113 166 3383 217 
Q 3653 269 3828 363 
Q 3856 463 3856 766 
L 3856 1113 
Q 3856 1359 3825 1420 
Q 3794 1481 3670 1506 
Q 3547 1531 3138 1538 
L 3109 1566 
L 3109 1703 
L 3138 1731 
L 3328 1725 
Q 3819 1709 4128 1709 
Q 4306 1709 4650 1728 
L 4681 1703 
z
" transform="scale(0.015625)"/>
        <path id="PalatinoLinotype-Roman-61" d="M 663 2119 
L 541 2150 
L 516 2181 
L 516 2569 
Q 1072 2981 1597 2981 
Q 1956 2981 2193 2847 
Q 2431 2713 2537 2511 
Q 2644 2309 2644 2041 
L 2628 1413 
L 2628 481 
Q 2628 291 2654 250 
Q 2681 209 2715 195 
Q 2750 181 2844 172 
L 3022 156 
L 3047 128 
L 3047 3 
L 3022 -22 
Q 2794 -3 2597 -3 
Q 2409 -3 2147 -22 
L 2100 22 
L 2113 525 
L 1431 -6 
Q 1259 -78 1056 -78 
Q 806 -78 626 12 
Q 447 103 351 265 
Q 256 428 256 659 
Q 256 1119 543 1376 
Q 831 1634 2113 1816 
Q 2113 2278 1906 2467 
Q 1700 2656 1353 2656 
Q 1172 2656 1023 2603 
Q 875 2550 853 2517 
Q 831 2484 684 2134 
L 663 2119 
z
M 2113 1625 
Q 1238 1478 1022 1309 
Q 806 1141 806 788 
Q 806 300 1291 300 
Q 1706 300 2113 781 
L 2113 1625 
z
M 1581 3175 
L 1581 3175 
z
M 1516 -188 
L 1516 -188 
z
" transform="scale(0.015625)"/>
        <path id="PalatinoLinotype-Roman-73" d="M 316 919 
L 450 919 
L 478 891 
Q 484 628 509 441 
Q 606 294 843 201 
Q 1081 109 1313 109 
Q 1644 109 1842 287 
Q 2041 466 2041 713 
Q 2041 847 1969 945 
Q 1897 1044 1751 1108 
Q 1606 1172 1231 1259 
Q 909 1334 781 1376 
Q 653 1419 534 1519 
Q 416 1619 353 1764 
Q 291 1909 291 2084 
Q 291 2503 623 2754 
Q 956 3006 1453 3006 
Q 1663 3006 1909 2948 
Q 2156 2891 2284 2838 
L 2313 2794 
Q 2288 2669 2281 2138 
L 2253 2109 
L 2128 2109 
L 2100 2138 
Q 2088 2328 2066 2404 
Q 2044 2481 1953 2570 
Q 1863 2659 1697 2720 
Q 1531 2781 1347 2781 
Q 1156 2781 1026 2725 
Q 897 2669 817 2555 
Q 738 2441 738 2278 
Q 738 2159 786 2065 
Q 834 1972 934 1914 
Q 1034 1856 1144 1831 
L 1484 1744 
Q 1922 1638 2111 1559 
Q 2300 1481 2403 1323 
Q 2506 1166 2506 941 
Q 2506 509 2150 200 
Q 1794 -109 1234 -109 
Q 1038 -109 745 -65 
Q 453 -22 247 31 
L 231 72 
L 263 281 
Q 278 378 281 476 
Q 284 575 288 891 
L 316 919 
z
" transform="scale(0.015625)"/>
       </defs>
       <use xlink:href="#PalatinoLinotype-Roman-57"/>
       <use xlink:href="#PalatinoLinotype-Roman-69" x="97.5"/>
       <use xlink:href="#PalatinoLinotype-Roman-6e" x="126.601562"/>
       <use xlink:href="#PalatinoLinotype-Roman-64" x="184.804688"/>
       <use xlink:href="#PalatinoLinotype-Roman-47" x="245.888672"/>
       <use xlink:href="#PalatinoLinotype-Roman-61" x="322.207031"/>
       <use xlink:href="#PalatinoLinotype-Roman-73" x="372.207031"/>
      </g>
     </g>
    </g>
    <g id="ytick_2">
     <g id="line2d_18">
      <g>
       <use xlink:href="#m1bd8975b8a" x="90" y="256.005" style="stroke: #000000; stroke-width: 0.8"/>
      </g>
     </g>
     <g id="text_18">
      <!-- PC -->
      <g transform="translate(63.303125 259.319062)scale(0.15 -0.15)">
       <defs>
        <path id="PalatinoLinotype-Roman-50" d="M 184 4416 
Q 972 4391 1188 4391 
Q 1481 4391 1847 4406 
Q 2234 4419 2325 4419 
Q 2763 4419 3048 4328 
Q 3334 4238 3521 3997 
Q 3709 3756 3709 3416 
Q 3709 3134 3578 2871 
Q 3447 2609 3212 2425 
Q 2978 2241 2737 2161 
Q 2497 2081 2238 2081 
Q 2044 2081 1806 2125 
L 1753 2316 
L 1781 2347 
Q 2016 2294 2163 2294 
Q 2572 2294 2820 2564 
Q 3069 2834 3069 3256 
Q 3069 3681 2811 3934 
Q 2553 4188 2031 4188 
Q 1747 4188 1406 4081 
Q 1378 3841 1378 2919 
L 1378 1472 
L 1381 863 
Q 1384 509 1400 406 
Q 1416 303 1445 268 
Q 1475 234 1559 211 
Q 1644 188 1975 175 
L 2000 156 
L 2000 0 
L 1975 -25 
Q 1178 0 1078 0 
Q 972 0 184 -25 
L 159 0 
L 159 156 
L 184 175 
Q 475 188 572 206 
Q 669 225 701 254 
Q 734 284 754 381 
Q 775 478 778 813 
L 781 1472 
L 781 2919 
L 775 3528 
Q 772 3884 758 3987 
Q 744 4091 714 4125 
Q 684 4159 600 4181 
Q 516 4203 184 4216 
L 159 4238 
L 159 4394 
L 184 4416 
z
" transform="scale(0.015625)"/>
        <path id="PalatinoLinotype-Roman-43" d="M 4359 528 
L 4241 238 
Q 3547 -116 2759 -116 
Q 1631 -116 926 525 
Q 222 1166 222 2200 
Q 222 2913 573 3445 
Q 925 3978 1501 4242 
Q 2078 4506 2797 4506 
Q 3213 4506 3619 4418 
Q 4025 4331 4297 4209 
L 4319 4178 
Q 4247 4003 4184 3313 
L 4163 3288 
L 4016 3288 
L 3991 3313 
L 3959 3844 
Q 3731 4025 3407 4126 
Q 3084 4228 2734 4228 
Q 2206 4228 1787 4001 
Q 1369 3775 1137 3345 
Q 906 2916 906 2294 
Q 906 1669 1178 1197 
Q 1450 725 1920 472 
Q 2391 219 3019 219 
Q 3297 219 3553 272 
Q 3809 325 3979 403 
Q 4150 481 4306 594 
L 4359 528 
z
" transform="scale(0.015625)"/>
       </defs>
       <use xlink:href="#PalatinoLinotype-Roman-50"/>
       <use xlink:href="#PalatinoLinotype-Roman-43" x="60.400391"/>
      </g>
     </g>
    </g>
    <g id="ytick_3">
     <g id="line2d_19">
      <g>
       <use xlink:href="#m1bd8975b8a" x="90" y="290.88" style="stroke: #000000; stroke-width: 0.8"/>
      </g>
     </g>
     <g id="text_19">
      <!-- WindBio -->
      <g transform="translate(24.399219 294.194062)scale(0.15 -0.15)">
       <defs>
        <path id="PalatinoLinotype-Roman-42" d="M 113 4216 
L 88 4238 
L 88 4394 
L 113 4416 
Q 647 4391 938 4391 
Q 1047 4391 1803 4416 
Q 2047 4422 2156 4422 
Q 2578 4422 2825 4337 
Q 3072 4253 3222 4039 
Q 3372 3825 3372 3553 
Q 3372 3206 3122 2909 
Q 2872 2613 2309 2484 
Q 2647 2453 2865 2393 
Q 3084 2334 3243 2211 
Q 3403 2088 3495 1891 
Q 3588 1694 3588 1434 
Q 3588 1231 3525 1022 
Q 3463 813 3295 606 
Q 3128 400 2890 253 
Q 2653 106 2404 40 
Q 2156 -25 1788 -25 
Q 1713 -25 1338 -9 
Q 922 0 888 0 
Q 675 0 366 -25 
L 341 0 
L 341 103 
L 366 134 
Q 547 216 575 247 
Q 603 278 620 800 
Q 638 1322 638 1597 
L 638 2744 
L 634 3453 
Q 634 3684 628 3829 
Q 622 3975 611 4037 
Q 600 4100 575 4125 
Q 550 4150 504 4167 
Q 459 4184 350 4197 
L 113 4216 
z
M 1234 2575 
Q 1391 2563 1588 2563 
Q 2234 2563 2487 2794 
Q 2741 3025 2741 3428 
Q 2741 3663 2644 3827 
Q 2547 3991 2339 4078 
Q 2131 4166 1775 4166 
Q 1484 4166 1263 4119 
Q 1234 3838 1234 3138 
L 1234 2575 
z
M 1241 297 
Q 1481 241 1734 241 
Q 2181 241 2434 384 
Q 2688 528 2808 783 
Q 2928 1038 2928 1338 
Q 2928 1788 2673 2058 
Q 2419 2328 1572 2328 
Q 1431 2328 1234 2316 
L 1234 1250 
L 1241 297 
z
" transform="scale(0.015625)"/>
        <path id="PalatinoLinotype-Roman-6f" d="M 213 1431 
Q 213 1803 366 2148 
Q 519 2494 898 2745 
Q 1278 2997 1800 2997 
Q 2456 2997 2868 2583 
Q 3281 2169 3281 1519 
Q 3281 803 2807 340 
Q 2334 -122 1666 -122 
Q 1228 -122 884 114 
Q 541 350 377 690 
Q 213 1031 213 1431 
z
M 803 1647 
Q 803 1209 915 864 
Q 1028 519 1272 309 
Q 1516 100 1828 100 
Q 2197 100 2437 392 
Q 2678 684 2678 1272 
Q 2678 1938 2417 2363 
Q 2156 2788 1666 2788 
Q 1259 2788 1031 2494 
Q 803 2200 803 1647 
z
M 1750 3175 
L 1750 3175 
z
M 1703 -188 
L 1703 -188 
z
" transform="scale(0.015625)"/>
       </defs>
       <use xlink:href="#PalatinoLinotype-Roman-57"/>
       <use xlink:href="#PalatinoLinotype-Roman-69" x="97.5"/>
       <use xlink:href="#PalatinoLinotype-Roman-6e" x="126.601562"/>
       <use xlink:href="#PalatinoLinotype-Roman-64" x="184.804688"/>
       <use xlink:href="#PalatinoLinotype-Roman-42" x="245.888672"/>
       <use xlink:href="#PalatinoLinotype-Roman-69" x="306.972656"/>
       <use xlink:href="#PalatinoLinotype-Roman-6f" x="336.074219"/>
      </g>
     </g>
    </g>
    <g id="ytick_4">
     <g id="line2d_20">
      <g>
       <use xlink:href="#m1bd8975b8a" x="90" y="325.755" style="stroke: #000000; stroke-width: 0.8"/>
      </g>
     </g>
     <g id="text_20">
      <!-- CHN GDP -->
      <g transform="translate(11.550781 329.069062)scale(0.15 -0.15)">
       <defs>
        <path id="PalatinoLinotype-Roman-48" d="M 184 4416 
Q 981 4391 1078 4391 
Q 1181 4391 1975 4416 
L 2000 4394 
L 2000 4238 
L 1975 4216 
Q 1759 4209 1642 4196 
Q 1525 4184 1472 4150 
Q 1419 4116 1401 3989 
Q 1384 3863 1384 3638 
L 1378 2919 
L 1378 2481 
Q 2063 2463 2675 2463 
Q 3513 2463 3950 2481 
L 3950 2919 
L 3944 3528 
Q 3941 3884 3925 3987 
Q 3909 4091 3881 4125 
Q 3853 4159 3768 4181 
Q 3684 4203 3350 4216 
L 3328 4238 
L 3328 4394 
L 3350 4416 
Q 4150 4391 4247 4391 
Q 4353 4391 5144 4416 
L 5169 4394 
L 5169 4238 
L 5144 4216 
Q 4925 4209 4808 4196 
Q 4691 4184 4637 4150 
Q 4584 4116 4568 3989 
Q 4553 3863 4550 3638 
L 4544 2919 
L 4544 1472 
L 4550 863 
Q 4553 509 4568 406 
Q 4584 303 4614 268 
Q 4644 234 4726 211 
Q 4809 188 5144 175 
L 5169 156 
L 5169 0 
L 5144 -25 
Q 4344 0 4247 0 
Q 4147 0 3350 -25 
L 3328 0 
L 3328 156 
L 3350 175 
Q 3644 188 3741 206 
Q 3838 225 3869 254 
Q 3900 284 3922 381 
Q 3944 478 3944 813 
L 3950 1472 
L 3950 2184 
Q 3025 2203 2653 2203 
Q 2272 2203 1378 2184 
L 1378 1472 
L 1381 863 
Q 1384 509 1400 406 
Q 1416 303 1445 268 
Q 1475 234 1559 211 
Q 1644 188 1975 175 
L 2000 156 
L 2000 0 
L 1975 -25 
Q 1178 0 1078 0 
Q 981 0 184 -25 
L 159 0 
L 159 156 
L 184 175 
Q 475 188 572 206 
Q 669 225 701 254 
Q 734 284 754 381 
Q 775 478 778 813 
L 781 1472 
L 781 2919 
L 775 3528 
Q 772 3884 758 3987 
Q 744 4091 714 4125 
Q 684 4159 600 4181 
Q 516 4203 184 4216 
L 159 4238 
L 159 4394 
L 184 4416 
z
" transform="scale(0.015625)"/>
        <path id="PalatinoLinotype-Roman-4e" d="M 206 -22 
L 178 6 
L 178 150 
L 206 175 
Q 397 178 511 197 
Q 625 216 658 259 
Q 691 303 702 400 
Q 713 497 723 837 
Q 734 1178 734 1325 
L 734 3850 
Q 734 4009 676 4086 
Q 619 4163 519 4183 
Q 419 4203 178 4206 
L 153 4231 
L 153 4378 
L 178 4406 
Q 609 4391 744 4391 
Q 1059 4391 1263 4406 
L 2259 3113 
L 3725 1275 
Q 3991 941 4266 641 
L 4266 3059 
Q 4266 3172 4255 3539 
Q 4244 3906 4228 4004 
Q 4213 4103 4173 4137 
Q 4134 4172 4026 4189 
Q 3919 4206 3734 4209 
L 3709 4234 
L 3709 4378 
L 3734 4406 
Q 3988 4391 4456 4391 
Q 4884 4391 5078 4406 
L 5106 4378 
L 5106 4234 
L 5081 4209 
Q 4875 4206 4762 4186 
Q 4650 4166 4622 4119 
Q 4594 4072 4583 3981 
Q 4572 3891 4561 3550 
Q 4550 3209 4550 3059 
L 4550 1575 
L 4553 716 
Q 4559 294 4566 -131 
Q 4409 -78 4025 0 
L 3803 263 
L 3138 1075 
L 1019 3722 
L 1019 1325 
Q 1019 1181 1030 812 
Q 1041 444 1056 366 
Q 1072 288 1097 258 
Q 1122 228 1205 203 
Q 1288 178 1547 175 
L 1572 150 
L 1572 3 
L 1547 -22 
Q 1384 0 1022 0 
Q 556 0 206 -22 
z
" transform="scale(0.015625)"/>
        <path id="PalatinoLinotype-Roman-20" transform="scale(0.015625)"/>
        <path id="PalatinoLinotype-Roman-44" d="M 94 4394 
L 119 4416 
Q 659 4391 856 4391 
L 2319 4422 
Q 2944 4422 3344 4305 
Q 3744 4188 4055 3898 
Q 4366 3609 4527 3226 
Q 4688 2844 4688 2409 
Q 4688 1988 4541 1575 
Q 4394 1163 4123 836 
Q 3853 509 3508 309 
Q 3163 109 2816 42 
Q 2469 -25 2106 -25 
Q 1863 -25 1188 -6 
Q 966 0 894 0 
Q 678 0 372 -25 
L 347 0 
L 347 103 
L 372 134 
Q 556 228 582 251 
Q 609 275 626 798 
Q 644 1322 644 1597 
L 644 2744 
L 641 3453 
Q 641 3684 634 3829 
Q 628 3975 612 4037 
Q 597 4100 576 4125 
Q 556 4150 511 4167 
Q 466 4184 356 4197 
L 119 4216 
L 94 4238 
L 94 4394 
z
M 1250 316 
Q 1569 253 1984 253 
Q 2713 253 3148 497 
Q 3584 741 3800 1219 
Q 4016 1697 4016 2297 
Q 4016 3181 3544 3668 
Q 3072 4156 2056 4156 
Q 1638 4156 1250 4094 
Q 1225 3581 1225 2938 
L 1225 1956 
L 1231 1038 
Q 1231 769 1250 316 
z
" transform="scale(0.015625)"/>
       </defs>
       <use xlink:href="#PalatinoLinotype-Roman-43"/>
       <use xlink:href="#PalatinoLinotype-Roman-48" x="70.898438"/>
       <use xlink:href="#PalatinoLinotype-Roman-4e" x="154.101562"/>
       <use xlink:href="#PalatinoLinotype-Roman-20" x="237.207031"/>
       <use xlink:href="#PalatinoLinotype-Roman-47" x="262.207031"/>
       <use xlink:href="#PalatinoLinotype-Roman-44" x="338.525391"/>
       <use xlink:href="#PalatinoLinotype-Roman-50" x="415.917969"/>
      </g>
     </g>
    </g>
    <g id="ytick_5">
     <g id="line2d_21">
      <g>
       <use xlink:href="#m1bd8975b8a" x="90" y="360.63" style="stroke: #000000; stroke-width: 0.8"/>
      </g>
     </g>
     <g id="text_21">
      <!-- FF-COAL -->
      <g transform="translate(18.066406 363.944062)scale(0.15 -0.15)">
       <defs>
        <path id="PalatinoLinotype-Roman-46" d="M 1363 2106 
L 1363 1472 
L 1366 863 
Q 1369 522 1384 411 
Q 1400 300 1429 267 
Q 1459 234 1543 211 
Q 1628 188 1959 175 
L 1984 156 
L 1984 0 
L 1959 -25 
Q 1166 0 1063 0 
Q 963 0 169 -25 
L 144 0 
L 144 156 
L 169 175 
Q 463 188 558 206 
Q 653 225 686 256 
Q 719 288 739 381 
Q 759 475 763 806 
L 766 1472 
L 766 2919 
L 759 3528 
Q 756 3884 742 3987 
Q 728 4091 698 4125 
Q 669 4159 584 4181 
Q 500 4203 169 4216 
L 144 4238 
L 144 4394 
L 169 4416 
Q 1494 4397 1716 4397 
Q 2459 4397 3241 4416 
L 3266 4394 
Q 3216 4238 3200 4039 
Q 3184 3841 3166 3478 
L 3141 3453 
L 2994 3453 
L 2972 3478 
Q 2966 3500 2944 3719 
Q 2928 3891 2894 4034 
Q 2569 4144 1997 4144 
Q 1741 4144 1397 4106 
Q 1363 3863 1363 2919 
L 1363 2378 
Q 1759 2372 1903 2372 
Q 2169 2372 2359 2392 
Q 2550 2413 2587 2431 
Q 2625 2450 2645 2501 
Q 2666 2553 2684 2728 
L 2703 2897 
L 2725 2922 
L 2884 2922 
L 2909 2894 
L 2888 2209 
Q 2888 2091 2897 1866 
Q 2909 1609 2909 1469 
L 2881 1444 
L 2725 1444 
L 2703 1469 
L 2691 1734 
Q 2681 1891 2659 1962 
Q 2638 2034 2588 2056 
Q 2538 2078 2366 2097 
Q 2194 2116 1838 2116 
Q 1522 2116 1363 2106 
z
" transform="scale(0.015625)"/>
        <path id="PalatinoLinotype-Roman-2d" d="M 141 1344 
L 141 1388 
L 281 1806 
L 1953 1806 
L 1953 1759 
L 1803 1344 
L 141 1344 
z
" transform="scale(0.015625)"/>
        <path id="PalatinoLinotype-Roman-4f" d="M 150 2153 
Q 150 2622 284 3028 
Q 419 3434 742 3779 
Q 1066 4125 1522 4314 
Q 1978 4503 2553 4503 
Q 3619 4503 4250 3923 
Q 4881 3344 4881 2341 
Q 4881 1634 4572 1071 
Q 4263 509 3686 196 
Q 3109 -116 2391 -116 
Q 1881 -116 1453 54 
Q 1025 225 723 562 
Q 422 900 286 1344 
Q 150 1788 150 2153 
z
M 800 2359 
Q 800 1978 923 1539 
Q 1047 1100 1292 786 
Q 1538 472 1858 319 
Q 2178 166 2588 166 
Q 3072 166 3450 387 
Q 3828 609 4025 1076 
Q 4222 1544 4222 2125 
Q 4222 2756 3997 3265 
Q 3772 3775 3356 4006 
Q 2941 4238 2434 4238 
Q 1675 4238 1237 3763 
Q 800 3288 800 2359 
z
M 2469 4647 
L 2469 4647 
z
M 2484 -188 
L 2484 -188 
z
" transform="scale(0.015625)"/>
        <path id="PalatinoLinotype-Roman-41" d="M 138 -25 
L 109 0 
L 109 163 
L 138 188 
Q 366 191 431 211 
Q 497 231 548 292 
Q 600 353 756 691 
L 1084 1403 
L 1934 3328 
Q 2175 3894 2413 4459 
L 2616 4459 
L 3950 1322 
L 4128 903 
Q 4206 725 4307 515 
Q 4409 306 4448 268 
Q 4488 231 4545 211 
Q 4603 191 4803 188 
L 4828 163 
L 4828 0 
L 4803 -25 
Q 4472 3 4206 3 
Q 3688 -13 3169 -25 
L 3144 0 
L 3144 163 
L 3169 188 
Q 3519 194 3606 217 
Q 3694 241 3694 325 
Q 3694 394 3650 506 
L 3266 1459 
L 1456 1459 
L 1116 659 
Q 1025 444 1025 344 
Q 1025 266 1109 228 
Q 1194 191 1534 188 
L 1563 163 
L 1563 0 
L 1538 -25 
Q 1134 0 831 0 
Q 488 0 138 -25 
z
M 1563 1728 
L 3144 1728 
L 2359 3613 
L 1563 1728 
z
M 2509 4647 
L 2509 4647 
z
M 2438 -188 
L 2438 -188 
z
" transform="scale(0.015625)"/>
        <path id="PalatinoLinotype-Roman-4c" d="M 116 4394 
L 141 4416 
Q 916 4391 1034 4391 
Q 1141 4391 1931 4416 
L 1956 4394 
L 1956 4238 
L 1931 4216 
Q 1716 4209 1598 4196 
Q 1481 4184 1428 4150 
Q 1375 4116 1358 3989 
Q 1341 3863 1341 3638 
L 1334 2919 
L 1334 1538 
Q 1334 1019 1341 813 
L 1356 272 
L 1994 272 
Q 2756 272 2945 290 
Q 3134 309 3309 381 
Q 3344 459 3408 740 
Q 3472 1022 3475 1066 
L 3503 1091 
L 3656 1091 
L 3678 1066 
Q 3653 941 3626 581 
Q 3600 222 3600 0 
L 3575 -25 
Q 2981 -6 2016 -6 
L 1103 0 
Q 791 0 466 -25 
L 441 0 
L 441 103 
L 466 134 
Q 659 234 678 256 
Q 697 278 717 659 
Q 738 1041 738 1578 
L 738 2919 
L 731 3528 
Q 728 3884 714 3987 
Q 700 4091 670 4125 
Q 641 4159 556 4181 
Q 472 4203 141 4216 
L 116 4238 
L 116 4394 
z
" transform="scale(0.015625)"/>
       </defs>
       <use xlink:href="#PalatinoLinotype-Roman-46"/>
       <use xlink:href="#PalatinoLinotype-Roman-46" x="55.615234"/>
       <use xlink:href="#PalatinoLinotype-Roman-2d" x="111.230469"/>
       <use xlink:href="#PalatinoLinotype-Roman-43" x="144.53125"/>
       <use xlink:href="#PalatinoLinotype-Roman-4f" x="215.429688"/>
       <use xlink:href="#PalatinoLinotype-Roman-41" x="294.042969"/>
       <use xlink:href="#PalatinoLinotype-Roman-4c" x="371.826172"/>
      </g>
     </g>
    </g>
   </g>
   <g id="text_22">
    <!-- CHN -->
    <g transform="translate(335.789375 195.8175)scale(0.28 -0.28)">
     <use xlink:href="#PalatinoLinotype-Roman-43"/>
     <use xlink:href="#PalatinoLinotype-Roman-48" x="70.898438"/>
     <use xlink:href="#PalatinoLinotype-Roman-4e" x="154.101562"/>
    </g>
   </g>
  </g>
 </g>
 <defs>
  <clipPath id="pe01d602844">
   <rect x="90" y="203.6925" width="558" height="174.375"/>
  </clipPath>
 </defs>
</svg>
